# Created by DisUnity v0.3.4
v 0.040839728 0.20574376 0.30072758
v 0.19478904 0.060451493 0.3007276
v 0.14594035 -0.14552103 0.30072728
v -0.05686383 -0.20620374 0.30072695
v -0.16196465 0.14506792 0.30072758
v -0.21080828 -0.060906753 0.3007268
v -0.0133247655 0.18351208 7.430432E-4
v 0.11724403 0.23198298 0.44677833
v -0.015639065 0.26349995 0.44677845
v 0.07925269 0.16155124 7.4301404E-4
v 0.2165676 0.13824598 0.44677857
v 0.14844972 0.09624427 7.4297463E-4
v 0.2557142 0.007406175 0.4467782
v 0.17572162 0.0050917333 7.429848E-4
v -0.10448387 0.15623516 7.4312487E-4
v -0.1464851 0.22435245 0.4467783
v -0.16978921 0.087036595 7.4316416E-4
v -0.2402216 0.12502961 0.44677842
v -0.19174525 -0.005540257 7.431539E-4
v -0.27173907 -0.007854734 0.44677836
v -0.16446835 -0.096692644 7.430581E-4
v -0.23259126 -0.13869336 0.44677842
v -0.0952701 -0.16199844 7.430722E-4
v -0.13326249 -0.23243707 0.44677857
v -0.0026926463 -0.18395928 7.43043E-4
v -3.7797185E-4 -0.26395974 0.44677845
v 0.08846021 -0.15668254 7.43014E-4
v 0.13046059 -0.22481243 0.44677833
v 0.15376559 -0.08748512 7.4297463E-4
v 0.224198 -0.12547813 0.44677857
v 0.17572162 0.0050917333 7.429848E-4
v 0.2557142 0.007406175 0.4467782
v -0.015639065 0.26349995 0.44677845
v 0.1135533 0.22514127 0.44677848
v -0.01541434 0.25573292 0.44677845
v 0.11724403 0.23198298 0.44677833
v -0.1464851 0.22435245 0.4467783
v -0.1424039 0.21774133 0.44677848
v -0.2402216 0.12502961 0.44677842
v -0.23338109 0.1213442 0.4467783
v -0.27173907 -0.007854734 0.44677836
v -0.26396698 -0.007629862 0.44677842
v -0.23259126 -0.13869336 0.44677842
v -0.22597525 -0.13461976 0.4467783
v 0.143329 0.20939085 0.51647246
v 0.18988197 0.15308268 0.51647234
v 0.13964327 0.20254928 0.5164725
v 0.19649291 0.15715842 0.5164723
v 0.2165676 0.13824598 0.44677857
v 0.24794835 0.0071814833 0.44677845
v 0.20995039 0.1341712 0.4467783
v 0.2557142 0.007406175 0.4467782
v 0.2557142 0.007406175 0.4467782
v 0.21735623 -0.12179276 0.4467783
v 0.24794835 0.0071814833 0.44677845
v 0.224198 -0.12547813 0.44677857
v 0.12638044 -0.21819557 0.44677848
v 0.13046059 -0.22481243 0.44677833
v -6.028617E-4 -0.256187 0.44677845
v -3.7797185E-4 -0.26395974 0.44677845
v -0.12957658 -0.22560123 0.44677848
v -0.13326249 -0.23243707 0.44677857
v -0.15467964 -0.21222974 0.5164725
v -0.20751975 -0.15203144 0.5164724
v -0.15098763 -0.20538917 0.5164724
v -0.21413557 -0.1561119 0.5164725
v -0.01541434 0.25573292 0.44677845
v 0.08059894 0.16404717 0.3007264
v -0.013407048 0.18634295 0.3007266
v 0.1135533 0.22514127 0.44677848
v 0.1508648 0.09773479 0.30072635
v 0.20995039 0.1341712 0.4467783
v 0.17855781 0.0051737935 0.30072662
v 0.24794835 0.0071814833 0.44677845
v -0.1424039 0.21774133 0.44677848
v -0.10597292 0.15864903 0.3007265
v -0.23338109 0.1213442 0.4467783
v -0.17228718 0.08838497 0.3007266
v -0.26396698 -0.007629862 0.44677842
v -0.1945822 -0.0056223385 0.30072662
v -0.22597525 -0.13461976 0.4467783
v -0.16688295 -0.09818201 0.30072653
v -0.12957658 -0.22560123 0.44677848
v -0.09661831 -0.16449556 0.3007264
v -6.028617E-4 -0.256187 0.44677845
v -0.0026109149 -0.18679704 0.3007266
v 0.12638044 -0.21819557 0.44677848
v 0.08994856 -0.15909758 0.3007264
v 0.21735623 -0.12179276 0.4467783
v 0.15626277 -0.08883236 0.30072635
v 0.24794835 0.0071814833 0.44677845
v 0.17855781 0.0051737935 0.30072662
v -0.1812062 -0.18203016 0.4759736
v -0.18738775 -0.1761993 0.47917688
v -0.20751975 -0.15203144 0.5164724
v -0.18745035 -0.17613705 0.48909113
v -0.17502764 -0.18786341 0.4791766
v -0.17527023 -0.18763478 0.48909137
v -0.15098763 -0.20538917 0.5164724
v -0.181363 -0.1818883 0.49331668
v 0.2165676 0.13824598 0.44677857
v 0.18988197 0.15308268 0.51647234
v 0.19649291 0.15715842 0.5164723
v 0.2165676 0.13824598 0.44677857
v 0.20995039 0.1341712 0.4467783
v 0.18988197 0.15308268 0.51647234
v 0.1135533 0.22514127 0.44677848
v 0.143329 0.20939085 0.51647246
v 0.13964327 0.20254928 0.5164725
v 0.1135533 0.22514127 0.44677848
v 0.11724403 0.23198298 0.44677833
v 0.143329 0.20939085 0.51647246
v -0.23259126 -0.13869336 0.44677842
v -0.20751975 -0.15203144 0.5164724
v -0.21413557 -0.1561119 0.5164725
v -0.23259126 -0.13869336 0.44677842
v -0.22597525 -0.13461976 0.4467783
v -0.20751975 -0.15203144 0.5164724
v -0.12957658 -0.22560123 0.44677848
v -0.15467964 -0.21222974 0.5164725
v -0.15098763 -0.20538917 0.5164724
v -0.12957658 -0.22560123 0.44677848
v -0.13326249 -0.23243707 0.44677857
v -0.15467964 -0.21222974 0.5164725
v 0.11724403 0.23198298 0.44677833
v 0.1658948 0.1812568 0.47449142
v 0.15725319 0.1890365 0.47956687
v 0.2165676 0.13824598 0.44677857
v 0.143329 0.20939085 0.51647246
v 0.15891632 0.18890162 0.49135774
v 0.19649291 0.15715842 0.5164723
v 0.17407294 0.17305076 0.49155444
v 0.1745357 0.17347936 0.47976646
v 0.16649377 0.18097673 0.49605918
v 0.1658948 0.1812568 0.47449142
v 0.1745357 0.17347936 0.47976646
v 0.18988197 0.15308268 0.51647234
v 0.17407294 0.17305076 0.49155444
v 0.15725319 0.1890365 0.47956687
v 0.15891632 0.18890162 0.49135774
v 0.13964327 0.20254928 0.5164725
v 0.16649377 0.18097673 0.49605918
v -0.13326249 -0.23243707 0.44677857
v -0.1812062 -0.18203016 0.4759736
v -0.17502764 -0.18786341 0.4791766
v -0.23259126 -0.13869336 0.44677842
v -0.15467964 -0.21222974 0.5164725
v -0.17527023 -0.18763478 0.48909137
v -0.181363 -0.1818883 0.49331668
v -0.21413557 -0.1561119 0.5164725
v -0.18745035 -0.17613705 0.48909113
v -0.18738775 -0.1761993 0.47917688
vn 0.040538892 0.0011700841 0.9991773
vn 0.0405389 0.0011700843 0.9991773
vn 0.040538892 0.0011700841 0.9991773
vn 0.040538885 0.0011700841 0.9991773
vn 0.040538892 0.0011700842 0.9991773
vn 0.040538885 0.0011700839 0.9991773
vn -0.021670973 0.99475783 -0.09993516
vn 0.5772624 0.8151134 -0.048560835
vn -0.04341581 0.9940018 -0.10037629
vn 0.5079314 0.85699797 -0.086949594
vn 0.81773734 0.5742188 -0.03973033
vn 0.8672891 0.49201506 -0.07570157
vn 0.9970283 0.028847212 -0.071430854
vn 0.9970283 0.028847212 -0.07143087
vn -0.5459801 0.8307494 -0.108449444
vn -0.55868846 0.82223576 -0.108607054
vn -0.8887524 0.44462898 -0.11146361
vn -0.89183176 0.43841475 -0.111483715
vn -0.9932989 -0.028750058 -0.11194061
vn -0.9932989 -0.028749358 -0.11194061
vn -0.86155075 -0.49528322 -0.111466974
vn -0.8179828 -0.57077307 -0.07157002
vn -0.49705085 -0.8609166 -0.10845738
vn -0.58754146 -0.80602765 -0.07151484
vn 0.035859775 -0.9943461 -0.09994994
vn 0.014106533 -0.994848 -0.10039094
vn 0.5566455 -0.8261863 -0.08695997
vn 0.5398076 -0.83723396 -0.08744777
vn 0.8942922 -0.44103336 -0.07570362
vn 0.8892497 -0.45108324 -0.07588774
vn 0.9970283 0.028847212 -0.07143087
vn 0.9970283 0.028847212 -0.071430854
vn 0.040539294 0.0011940924 0.99917716
vn 0.04054656 0.0011910812 0.9991769
vn 0.040539283 0.0011940922 0.99917716
vn 0.040546563 0.0011910815 0.9991769
vn 0.040532198 0.0011889713 0.9991775
vn 0.04053221 0.0011881968 0.9991775
vn 0.040540636 0.0011759434 0.99917716
vn 0.040541433 0.0011755617 0.99917716
vn 0.04054977 0.0011732341 0.9991768
vn 0.040549777 0.0011732343 0.9991768
vn 0.040549725 0.0011749542 0.9991768
vn 0.04054973 0.0011749545 0.9991768
vn 0.04055105 0.0011761119 0.9991768
vn 0.04055106 0.0011761121 0.9991768
vn 0.04055105 0.001176112 0.9991768
vn 0.040551066 0.0011761122 0.9991768
vn 0.040536825 0.0011706472 0.9991773
vn 0.04053675 0.0011728574 0.9991773
vn 0.04053682 0.0011706471 0.9991773
vn 0.040536746 0.0011728572 0.9991773
vn 0.040536746 0.0011728572 0.9991773
vn 0.040534623 0.0011774055 0.9991774
vn 0.04053675 0.0011728574 0.9991773
vn 0.04053442 0.0011776258 0.9991774
vn 0.0405397 0.0011680356 0.99917716
vn 0.040540393 0.001166913 0.99917716
vn 0.04054548 0.0011670337 0.9991769
vn 0.040545475 0.0011670334 0.9991769
vn 0.040543366 0.0011788524 0.99917704
vn 0.040543366 0.0011788524 0.99917704
vn 0.04056107 0.0011933404 0.9991763
vn 0.040561058 0.0011933402 0.9991763
vn 0.040561058 0.0011933402 0.9991763
vn 0.040561058 0.0011933402 0.9991763
vn 0.04797078 -0.9649967 0.25783765
vn -0.49171257 -0.8361546 0.2430315
vn 0.027389372 -0.96589327 0.2574879
vn -0.5474009 -0.81788737 0.1772355
vn -0.8465824 -0.48150507 0.22682849
vn -0.8170226 -0.5529156 0.16358003
vn -0.975067 -0.028211225 0.22011012
vn -0.9750669 -0.02821125 0.2201101
vn 0.54518825 -0.79672223 0.26077476
vn 0.5362271 -0.8027711 0.26080447
vn 0.86789024 -0.42538008 0.25655085
vn 0.86640984 -0.42837033 0.2565792
vn 0.9668209 0.027985083 0.25391752
vn 0.9668209 0.027986396 0.25391755
vn 0.8175193 0.54356205 0.19026966
vn 0.840189 0.47774708 0.2565935
vn 0.5644909 0.80200833 0.19527534
vn 0.48893845 0.8324132 0.26082096
vn -0.0078877695 0.96615154 0.25785467
vn -0.028485889 0.96585685 0.25750518
vn -0.51991624 0.818691 0.24378718
vn -0.5392524 0.8063087 0.24304968
vn -0.8665509 0.44437793 0.22719568
vn -0.8730128 0.43173444 0.2268346
vn -0.9750669 -0.02821125 0.2201101
vn -0.975067 -0.028211225 0.22011012
vn 0.7128755 0.6975792 0.072055
vn 0.75215846 0.658057 0.0349109
vn 0.7424054 0.66914725 -0.032805316
vn 0.7650004 0.64396197 -0.009347624
vn 0.6737682 0.7386762 0.019844912
vn 0.6738666 0.7384497 -0.02440935
vn 0.68744487 0.725154 -0.039638344
vn 0.72229797 0.68951803 -0.05339151
vn 0.5500696 -0.80711377 0.21445455
vn 0.55006963 -0.80711377 0.21445456
vn 0.55006963 -0.8071137 0.21445452
vn 0.5500696 -0.80711377 0.21445455
vn 0.5500696 -0.80711377 0.21445455
vn 0.55006963 -0.80711377 0.21445456
vn -0.87094223 0.43378463 0.23084746
vn -0.87094223 0.43378457 0.23084743
vn -0.87094223 0.43378463 0.23084746
vn -0.87094223 0.43378463 0.23084746
vn -0.87094223 0.4337846 0.23084746
vn -0.87094223 0.43378457 0.23084743
vn -0.54281414 0.82046115 0.17943318
vn -0.54281414 0.82046115 0.17943317
vn -0.54281414 0.82046115 0.17943318
vn -0.54281414 0.82046115 0.17943318
vn -0.54281414 0.82046115 0.17943318
vn -0.54281414 0.82046115 0.17943317
vn 0.8759099 -0.42687815 0.22484836
vn 0.8759099 -0.42687815 0.22484836
vn 0.8759099 -0.42687812 0.22484839
vn 0.8759099 -0.42687815 0.22484836
vn 0.8759099 -0.42687815 0.22484836
vn 0.8759099 -0.42687815 0.22484836
vn 0.5772624 0.8151134 -0.048560835
vn 0.7098747 0.7012925 0.06531872
vn 0.7583495 0.65158266 0.01859905
vn 0.81773734 0.5742188 -0.03973033
vn 0.75692207 0.65125394 -0.05419623
vn 0.7671514 0.64006966 -0.042302113
vn 0.6998772 0.71300626 -0.04235539
vn 0.67374986 0.7386692 -0.020710712
vn 0.66804886 0.7439783 0.014385583
vn 0.72778493 0.6820004 -0.072141774
vn -0.7168227 -0.69557345 0.04840378
vn -0.76533616 -0.6435544 -0.009909128
vn -0.75745183 -0.6491671 -0.069631934
vn -0.7803891 -0.623729 -0.04421703
vn -0.67704785 -0.7358631 0.010569191
vn -0.6795201 -0.73215955 -0.046849757
vn -0.6987115 -0.7121339 -0.06832059
vn -0.74094313 -0.66616225 -0.085034885
vn -0.58754146 -0.80602765 -0.07151484
vn -0.711799 -0.70114803 0.041635025
vn -0.74984646 -0.6616076 0.0023739566
vn -0.8179828 -0.57077307 -0.07157002
vn -0.7421625 -0.6671153 -0.06443612
vn -0.7630196 -0.6449403 -0.04304585
vn -0.72336686 -0.6853778 -0.08365143
vn -0.688445 -0.7222975 -0.06580172
vn -0.6769739 -0.7341867 -0.05173347
vn -0.6750988 -0.7376931 -0.007115188
vt 0.27531797 0.32912517
vt 0.24466902 0.3278649
vt 0.22818583 0.30156565
vt 0.2423513 0.27652466
vt 0.28948432 0.30408585
vt 0.27300054 0.27778602
vt 0.46635175 0.46918976
vt 0.40599012 0.4816352
vt 0.40599006 0.46918976
vt 0.46635175 0.4816351
vt 0.40599018 0.49408054
vt 0.46635187 0.49408042
vt 0.40599018 0.50652564
vt 0.4663518 0.50652516
vt 0.46635163 0.45674336
vt 0.40599 0.45674336
vt 0.46635163 0.44429803
vt 0.40599 0.44429815
vt 0.46635157 0.43185282
vt 0.40598994 0.43185294
vt 0.46635157 0.4194069
vt 0.40598983 0.4194075
vt 0.46635145 0.40696073
vt 0.40598983 0.40696084
vt 0.46635145 0.39451444
vt 0.40598983 0.39451492
vt 0.46635145 0.3820684
vt 0.40598983 0.38206935
vt 0.46635157 0.36962235
vt 0.4059897 0.3696233
vt 0.4663514 0.35717726
vt 0.4059897 0.35717773
vt 0.40599006 0.46918976
vt 0.40599012 0.4816351
vt 0.40599006 0.46918976
vt 0.40599012 0.4816352
vt 0.40599 0.45674336
vt 0.40599 0.45674384
vt 0.40599 0.44429815
vt 0.40599 0.4442985
vt 0.40598994 0.43185294
vt 0.40598994 0.43185294
vt 0.40598983 0.4194075
vt 0.40598983 0.419407
vt 0.39655852 0.48474073
vt 0.3965584 0.49154675
vt 0.39655852 0.48483717
vt 0.3965584 0.4916228
vt 0.40599018 0.49408054
vt 0.40599 0.5065259
vt 0.40599018 0.49408007
vt 0.40599018 0.50652564
vt 0.4059897 0.35717773
vt 0.40598983 0.36962366
vt 0.40598965 0.35717773
vt 0.4059897 0.3696233
vt 0.40598983 0.3820696
vt 0.40598983 0.38206935
vt 0.40598983 0.39451492
vt 0.40598983 0.39451492
vt 0.40598983 0.40696084
vt 0.40598983 0.40696084
vt 0.39655823 0.40958858
vt 0.39655834 0.41707957
vt 0.39655823 0.40967
vt 0.39655834 0.41714954
vt 0.40599006 0.46918976
vt 0.4257552 0.4816351
vt 0.42575502 0.46918976
vt 0.40599012 0.4816351
vt 0.42575526 0.49408042
vt 0.40599018 0.49408007
vt 0.42575514 0.5065255
vt 0.40599 0.5065259
vt 0.40599 0.45674384
vt 0.42575496 0.4567436
vt 0.40599 0.4442985
vt 0.42575508 0.44429827
vt 0.40598994 0.43185294
vt 0.42575502 0.43185294
vt 0.40598983 0.419407
vt 0.42575496 0.41940737
vt 0.40598983 0.40696084
vt 0.42575496 0.40696084
vt 0.40598983 0.39451492
vt 0.42575485 0.39451456
vt 0.40598983 0.3820696
vt 0.42575485 0.38206863
vt 0.40598983 0.36962366
vt 0.4257548 0.3696226
vt 0.40598965 0.35717773
vt 0.4257548 0.35717738
vt 0.402039 0.41329527
vt 0.40160543 0.41409934
vt 0.39655834 0.41707957
vt 0.40026385 0.41410768
vt 0.40160543 0.41249108
vt 0.40026385 0.41252267
vt 0.39655823 0.40967
vt 0.39969194 0.41331518
vt 0.40599018 0.49408054
vt 0.3965584 0.49154675
vt 0.3965584 0.4916228
vt 0.40599018 0.49408054
vt 0.40599018 0.49408007
vt 0.3965584 0.49154675
vt 0.40599012 0.4816351
vt 0.39655852 0.48474073
vt 0.39655852 0.48483717
vt 0.40599012 0.4816351
vt 0.40599012 0.4816352
vt 0.39655852 0.48474073
vt 0.40598983 0.4194075
vt 0.39655834 0.41707957
vt 0.39655834 0.41714954
vt 0.40598983 0.4194075
vt 0.40598983 0.419407
vt 0.39655834 0.41707957
vt 0.40598983 0.40696084
vt 0.39655823 0.40958858
vt 0.39655823 0.40967
vt 0.40598983 0.40696084
vt 0.40598983 0.40696084
vt 0.39655823 0.40958858
vt 0.40599012 0.4816352
vt 0.40223974 0.4880389
vt 0.40155292 0.48693895
vt 0.40599018 0.49408054
vt 0.39655852 0.48474073
vt 0.3999573 0.48706532
vt 0.3965584 0.4916228
vt 0.39993054 0.48913443
vt 0.4015259 0.48913527
vt 0.3993209 0.4880979
vt 0.40223974 0.4880389
vt 0.4015259 0.48913527
vt 0.3965584 0.49154675
vt 0.39993054 0.48913443
vt 0.40155292 0.48693895
vt 0.3999573 0.48706532
vt 0.39655852 0.48483717
vt 0.3993209 0.4880979
vt 0.40598983 0.40696084
vt 0.402039 0.41329527
vt 0.40160543 0.41249108
vt 0.40598983 0.4194075
vt 0.39655823 0.40958858
vt 0.40026385 0.41252267
vt 0.39969194 0.41331518
vt 0.39655834 0.41714954
vt 0.40026385 0.41410768
vt 0.40160543 0.41409934

g Barrel
s 1
usemtl Barrel
f 3/3/3 2/2/2 1/1/1 
f 1/1/1 4/4/4 3/3/3 
f 1/1/1 5/5/5 4/4/4 
f 5/5/5 6/6/6 4/4/4 
f 9/9/9 8/8/8 7/7/7 
f 8/8/8 10/10/10 7/7/7 
f 8/8/8 11/11/11 10/10/10 
f 11/11/11 12/12/12 10/10/10 
f 11/11/11 13/13/13 12/12/12 
f 13/13/13 14/14/14 12/12/12 
f 9/9/9 7/7/7 15/15/15 
f 16/16/16 9/9/9 15/15/15 
f 16/16/16 15/15/15 17/17/17 
f 18/18/18 16/16/16 17/17/17 
f 18/18/18 17/17/17 19/19/19 
f 20/20/20 18/18/18 19/19/19 
f 20/20/20 19/19/19 21/21/21 
f 22/22/22 20/20/20 21/21/21 
f 22/22/22 21/21/21 23/23/23 
f 24/24/24 22/22/22 23/23/23 
f 24/24/24 23/23/23 25/25/25 
f 26/26/26 24/24/24 25/25/25 
f 26/26/26 25/25/25 27/27/27 
f 28/28/28 26/26/26 27/27/27 
f 28/28/28 27/27/27 29/29/29 
f 30/30/30 28/28/28 29/29/29 
f 30/30/30 29/29/29 31/31/31 
f 32/32/32 30/30/30 31/31/31 
f 35/35/35 34/34/34 33/33/33 
f 34/34/34 36/36/36 33/33/33 
f 35/35/35 33/33/33 37/37/37 
f 38/38/38 35/35/35 37/37/37 
f 38/38/38 37/37/37 39/39/39 
f 40/40/40 38/38/38 39/39/39 
f 40/40/40 39/39/39 41/41/41 
f 42/42/42 40/40/40 41/41/41 
f 42/42/42 41/41/41 43/43/43 
f 44/44/44 42/42/42 43/43/43 
f 47/47/47 46/46/46 45/45/45 
f 46/46/46 48/48/48 45/45/45 
f 51/51/51 50/50/50 49/49/49 
f 50/50/50 52/52/52 49/49/49 
f 55/55/55 54/54/54 53/53/53 
f 54/54/54 56/56/56 53/53/53 
f 54/54/54 57/57/57 56/56/56 
f 57/57/57 58/58/58 56/56/56 
f 57/57/57 59/59/59 58/58/58 
f 59/59/59 60/60/60 58/58/58 
f 59/59/59 61/61/61 60/60/60 
f 61/61/61 62/62/62 60/60/60 
f 65/65/65 64/64/64 63/63/63 
f 64/64/64 66/66/66 63/63/63 
f 69/69/69 68/68/68 67/67/67 
f 68/68/68 70/70/70 67/67/67 
f 68/68/68 71/71/71 70/70/70 
f 71/71/71 72/72/72 70/70/70 
f 71/71/71 73/73/73 72/72/72 
f 73/73/73 74/74/74 72/72/72 
f 69/69/69 67/67/67 75/75/75 
f 76/76/76 69/69/69 75/75/75 
f 76/76/76 75/75/75 77/77/77 
f 78/78/78 76/76/76 77/77/77 
f 78/78/78 77/77/77 79/79/79 
f 80/80/80 78/78/78 79/79/79 
f 80/80/80 79/79/79 81/81/81 
f 82/82/82 80/80/80 81/81/81 
f 82/82/82 81/81/81 83/83/83 
f 84/84/84 82/82/82 83/83/83 
f 84/84/84 83/83/83 85/85/85 
f 86/86/86 84/84/84 85/85/85 
f 86/86/86 85/85/85 87/87/87 
f 88/88/88 86/86/86 87/87/87 
f 88/88/88 87/87/87 89/89/89 
f 90/90/90 88/88/88 89/89/89 
f 90/90/90 89/89/89 91/91/91 
f 92/92/92 90/90/90 91/91/91 
f 93/93/93 83/83/83 81/81/81 
f 94/94/94 93/93/93 81/81/81 
f 94/94/94 81/81/81 95/95/95 
f 96/96/96 94/94/94 95/95/95 
f 93/93/93 97/97/97 83/83/83 
f 97/97/97 98/98/98 83/83/83 
f 98/98/98 99/99/99 83/83/83 
f 95/95/95 99/99/99 100/100/100 
f 99/99/99 98/98/98 100/100/100 
f 100/100/100 96/96/96 95/95/95 
f 103/103/103 102/102/102 101/101/101 
f 106/106/106 105/105/105 104/104/104 
f 109/109/109 108/108/108 107/107/107 
f 112/112/112 111/111/111 110/110/110 
f 115/115/115 114/114/114 113/113/113 
f 118/118/118 117/117/117 116/116/116 
f 121/121/121 120/120/120 119/119/119 
f 124/124/124 123/123/123 122/122/122 
f 127/127/127 126/126/126 125/125/125 
f 126/126/126 128/128/128 125/125/125 
f 127/127/127 125/125/125 129/129/129 
f 130/130/130 127/127/127 129/129/129 
f 130/130/130 129/129/129 131/131/131 
f 132/132/132 131/131/131 128/128/128 
f 133/133/133 132/132/132 128/128/128 
f 126/126/126 133/133/133 128/128/128 
f 132/132/132 134/134/134 131/131/131 
f 134/134/134 130/130/130 131/131/131 
f 136/136/136 135/135/135 72/72/72 
f 136/136/136 72/72/72 137/137/137 
f 138/138/138 136/136/136 137/137/137 
f 72/72/72 135/135/135 70/70/70 
f 135/135/135 139/139/139 70/70/70 
f 139/139/139 140/140/140 70/70/70 
f 140/140/140 141/141/141 70/70/70 
f 140/140/140 142/142/142 141/141/141 
f 142/142/142 137/137/137 141/141/141 
f 142/142/142 138/138/138 137/137/137 
f 145/145/145 144/144/144 143/143/143 
f 144/144/144 146/146/146 143/143/143 
f 145/145/145 143/143/143 147/147/147 
f 148/148/148 145/145/145 147/147/147 
f 149/149/149 148/148/148 147/147/147 
f 147/147/147 150/150/150 149/149/149 
f 151/151/151 150/150/150 146/146/146 
f 150/150/150 151/151/151 149/149/149 
f 152/152/152 151/151/151 146/146/146 
f 144/144/144 152/152/152 146/146/146 

