# Created by DisUnity v0.3.4
v 0.08440193 3.3863864E-4 -0.04761256
v 0.055939328 0.41679844 -0.096022904
v 0.047768567 3.3864018E-4 -0.08295464
v 0.117903925 0.42040226 -1.6128494E-4
v 0.09731986 3.3863654E-4 -9.8438235E-5
v 0.055939328 0.41679844 0.09598409
v 0.087964855 3.3863465E-4 0.043649726
v 0.047768567 3.3863293E-4 0.082989685
v -0.060245562 0.41004848 0.09616673
v 0.003672947 3.3863235E-4 0.09617351
v -0.051442754 3.3863293E-4 0.082989685
v -0.11855038 0.40666014 -1.6128556E-4
v -0.087632656 3.3863442E-4 0.049239617
v 0.005120543 3.3864076E-4 -0.09620472
v -0.060245562 0.41004845 -0.09619282
v -0.051442754 3.3864018E-4 -0.08295464
v -0.10099404 3.3863654E-4 -9.8438235E-5
v -0.09130602 3.3863843E-4 -0.043402296
v -0.060245562 0.41004845 -0.09619282
v -0.051442754 3.3864018E-4 -0.08295464
v -0.1270032 0.95446664 -1.697569E-4
v -0.06448641 0.95809966 -0.10313089
v -0.06448641 0.95809954 0.103109956
v 0.060083326 0.9653365 0.102915406
v 0.12652324 0.9692008 -1.6975625E-4
v 0.060083326 0.96533674 -0.10294993
v -0.06448641 0.95809966 -0.10313089
v 0.07121384 1.2753459 -0.12152741
v 0.1496491 1.2799077 -1.8673325E-4
v -0.0758514 1.2668022 -0.12174233
v -0.14965163 1.2625132 -1.8673402E-4
v -0.0758514 1.2668022 -0.12174233
v -0.0758514 1.266802 0.121741824
v 0.07121384 1.2753459 0.12151076
v 0.057065804 1.5889429 -0.09829024
v 0.120494984 1.5926319 -1.6378232E-4
v 0.030436486 1.6805849 -0.060942437
v 0.06974586 1.6828715 -1.2639911E-4
v -0.043273687 1.6763028 -0.061049473
v -0.061863065 1.5820335 -0.09846356
v 0.057065804 1.5889429 0.09825322
v 0.030436486 1.6805849 0.06086973
v -0.061863065 1.5820332 0.09844012
v -0.043273687 1.6763028 0.060985267
v -0.12154583 1.578565 -1.6378294E-4
v -0.080263846 1.6741532 -1.263995E-4
v -0.061863065 1.5820335 -0.09846356
v -0.043273687 1.6763028 -0.061049473
v -0.007083781 1.7054262 -6.353304E-5
v -0.007083781 1.7054262 -6.353304E-5
v -0.007083781 1.7054262 -6.353304E-5
v -0.007083781 1.7054262 -6.353304E-5
v -0.007083781 1.7054262 -6.353304E-5
v -0.007083781 1.7054262 -6.353304E-5
vn 0.8580775 -0.039943237 -0.5119644
vn 0.47974908 -0.01035605 -0.87734467
vn 0.5088139 -0.036971603 -0.8600822
vn 0.9997383 -0.022422614 0.0045423713
vn 0.9999728 -0.0068699555 0.0026822244
vn 0.48124886 -0.026088394 0.87619567
vn 0.88849443 0.010674295 0.4587632
vn 0.485925 -0.0022200292 0.8739977
vn -0.48987284 -0.025104288 0.8714324
vn 0.053370945 0.008342874 0.9985399
vn -0.49295822 -0.0060055507 0.87003225
vn -0.99982786 -0.017985374 0.004550148
vn -0.8433816 0.001152635 0.53731376
vn 0.035675388 -0.033910964 -0.99878794
vn -0.4897456 -0.009702857 -0.87181145
vn -0.48365936 -0.03864459 -0.8744028
vn -0.9988187 -0.043153528 0.022334745
vn -0.87402546 -0.03822863 -0.48437393
vn -0.4897456 -0.009702857 -0.87181145
vn -0.48365936 -0.03864459 -0.8744028
vn -0.99901974 -0.044261232 -6.843614E-4
vn -0.48759124 -0.042772796 -0.8720236
vn -0.48814926 -0.042808633 0.8717096
vn 0.48011595 -0.042791728 0.87616074
vn 0.99893934 -0.04604152 -6.725798E-4
vn 0.4794691 -0.04276136 -0.8765164
vn -0.48759124 -0.042772796 -0.8720236
vn 0.4792979 0.00875853 -0.8776086
vn 0.9999428 0.01068145 -6.723913E-4
vn -0.49063978 0.0069075865 -0.8713351
vn -0.9999821 0.0059553473 -6.822986E-4
vn -0.49063978 0.0069075865 -0.8713351
vn -0.4911628 0.0069072437 0.8710404
vn 0.47991267 0.00876376 0.87727255
vn 0.45900726 0.25760922 -0.85026455
vn 0.9591571 0.28287292 -6.531064E-4
vn 0.3117761 0.6960818 -0.64673465
vn 0.68859684 0.7251443 -4.7455687E-4
vn -0.39325133 0.65983856 -0.64028627
vn -0.4808725 0.23550147 -0.8445713
vn 0.4595826 0.25776362 0.84990686
vn 0.31225225 0.696226 0.6463496
vn -0.48135084 0.23564287 0.8442593
vn -0.3936551 0.65994763 0.6399257
vn -0.97288585 0.23128502 -6.6593144E-4
vn -0.76215357 0.64739615 -4.863091E-4
vn -0.4808725 0.23550147 -0.8445713
vn -0.39325133 0.65983856 -0.64028627
vn -0.05648288 0.9984036 -1.0809155E-4
vn -0.05648288 0.9984036 -1.0809155E-4
vn -0.05648288 0.9984036 -1.0809155E-4
vn -0.05648288 0.9984036 -1.0809155E-4
vn -0.05648288 0.9984036 -1.0809155E-4
vn -0.05648288 0.9984036 -1.0809155E-4
vt 1.1445298 0.5845656
vt 1.2900109 0.45643502
vt 1.2914343 0.5845656
vt 1.0449841 0.4552837
vt 1.0449235 0.5845656
vt 0.79002494 0.45643502
vt 0.95573664 0.5845656
vt 0.7885178 0.5845656
vt 0.5411887 0.45859146
vt 0.6913135 0.5845656
vt 0.54222906 0.5845656
vt 0.31642625 0.45967394
vt 0.41594654 0.5845656
vt 1.3938682 0.5845656
vt 1.5608438 0.45859146
vt 1.5598742 0.5845656
vt 0.31649268 0.5845656
vt 0.23124129 0.5845656
vt 0.104760475 0.45859146
vt 0.10379085 0.5845656
vt 0.31642956 0.29115003
vt 0.104615435 0.29000962
vt 0.5413394 0.29000968
vt 0.7901752 0.2877378
vt 1.0449803 0.28652477
vt 1.2898543 0.2877378
vt 1.5606989 0.29000962
vt 1.2893089 0.19233531
vt 1.04496 0.19085085
vt 1.5602075 0.19511575
vt 0.31644866 0.19651145
vt 0.10412411 0.19511575
vt 0.5418576 0.1951158
vt 0.79069465 0.19233531
vt 1.2897807 0.097406805
vt 1.0449779 0.09616244
vt 1.2931601 0.066591084
vt 1.044378 0.0658347
vt 1.5433356 0.06779039
vt 1.5606344 0.099737585
vt 0.79024565 0.097406864
vt 0.77137417 0.06653726
vt 0.5414084 0.099737585
vt 0.5490332 0.067833126
vt 0.3164319 0.100907624
vt 0.31244907 0.068644226
vt 0.10455098 0.099737585
vt 0.12255962 0.06795448
vt 1.1487265 -0.0023874044
vt 1.3972691 0.0017143488
vt 0.23019905 -5.573034E-4
vt 0.42104977 0.006358981
vt 0.66304326 0.0077568293
vt 0.9220062 -0.002075553

g DesertPlant01D
s 1
usemtl DesertPlant01D
f 3/3/3 2/2/2 1/1/1 
f 2/2/2 4/4/4 1/1/1 
f 5/5/5 1/1/1 4/4/4 
f 4/4/4 6/6/6 5/5/5 
f 6/6/6 7/7/7 5/5/5 
f 8/8/8 7/7/7 6/6/6 
f 6/6/6 9/9/9 8/8/8 
f 9/9/9 10/10/10 8/8/8 
f 11/11/11 10/10/10 9/9/9 
f 9/9/9 12/12/12 11/11/11 
f 12/12/12 13/13/13 11/11/11 
f 3/3/3 14/14/14 2/2/2 
f 15/15/15 2/2/2 14/14/14 
f 16/16/16 15/15/15 14/14/14 
f 17/17/17 13/13/13 12/12/12 
f 17/17/17 12/12/12 18/18/18 
f 12/12/12 19/19/19 18/18/18 
f 20/20/20 18/18/18 19/19/19 
f 12/12/12 21/21/21 19/19/19 
f 21/21/21 22/22/22 19/19/19 
f 9/9/9 23/23/23 12/12/12 
f 23/23/23 21/21/21 12/12/12 
f 24/24/24 23/23/23 9/9/9 
f 6/6/6 24/24/24 9/9/9 
f 25/25/25 24/24/24 6/6/6 
f 4/4/4 25/25/25 6/6/6 
f 26/26/26 25/25/25 4/4/4 
f 2/2/2 26/26/26 4/4/4 
f 15/15/15 27/27/27 2/2/2 
f 27/27/27 26/26/26 2/2/2 
f 26/26/26 28/28/28 25/25/25 
f 28/28/28 29/29/29 25/25/25 
f 27/27/27 30/30/30 26/26/26 
f 30/30/30 28/28/28 26/26/26 
f 21/21/21 31/31/31 22/22/22 
f 31/31/31 21/21/21 23/23/23 
f 31/31/31 32/32/32 22/22/22 
f 33/33/33 31/31/31 23/23/23 
f 33/33/33 23/23/23 24/24/24 
f 34/34/34 33/33/33 24/24/24 
f 29/29/29 34/34/34 25/25/25 
f 34/34/34 24/24/24 25/25/25 
f 29/29/29 28/28/28 35/35/35 
f 36/36/36 29/29/29 35/35/35 
f 35/35/35 37/37/37 36/36/36 
f 37/37/37 38/38/38 36/36/36 
f 39/39/39 37/37/37 35/35/35 
f 40/40/40 39/39/39 35/35/35 
f 35/35/35 28/28/28 40/40/40 
f 28/28/28 30/30/30 40/40/40 
f 36/36/36 38/38/38 41/41/41 
f 36/36/36 41/41/41 29/29/29 
f 41/41/41 34/34/34 29/29/29 
f 38/38/38 42/42/42 41/41/41 
f 41/41/41 42/42/42 43/43/43 
f 41/41/41 43/43/43 34/34/34 
f 43/43/43 33/33/33 34/34/34 
f 42/42/42 44/44/44 43/43/43 
f 43/43/43 44/44/44 45/45/45 
f 32/32/32 31/31/31 45/45/45 
f 43/43/43 45/45/45 33/33/33 
f 45/45/45 31/31/31 33/33/33 
f 44/44/44 46/46/46 45/45/45 
f 45/45/45 46/46/46 47/47/47 
f 47/47/47 32/32/32 45/45/45 
f 46/46/46 48/48/48 47/47/47 
f 37/37/37 49/49/49 38/38/38 
f 39/39/39 50/50/50 37/37/37 
f 46/46/46 51/51/51 48/48/48 
f 44/44/44 52/52/52 46/46/46 
f 42/42/42 53/53/53 44/44/44 
f 38/38/38 54/54/54 42/42/42 

