# Created by DisUnity v0.3.4
v 0.11928284 -0.027096335 -0.0653618
v 0.07588066 0.5603519 -0.12447031
v 0.06899816 -0.027096331 -0.11387465
v 0.15620738 0.5611507 -2.0484084E-4
v 0.09018465 0.87890834 -0.1485566
v 0.18603237 0.879635 -2.182407E-4
v 0.09018465 0.87890834 0.14854205
v 0.07588066 0.5603519 0.12442889
v 0.13701347 -0.027096337 -1.4145584E-4
v 0.11386367 -0.02709634 0.064875245
v -0.089492016 0.87754595 0.1489152
v -0.07473195 0.55885553 0.12466546
v 0.06899816 -0.027096344 0.11391123
v 0.008467767 -0.027096344 0.1320089
v -0.17985958 0.87686074 -2.1824082E-4
v -0.1503102 0.5581044 -2.0484095E-4
v -0.06718852 -0.027096344 0.11391123
v -0.11686349 -0.02709634 0.06758361
v -0.07473195 0.55885553 -0.12468859
v -0.12190708 -0.027096335 -0.05958289
v -0.13520625 -0.027096337 -1.4145584E-4
v -0.089492016 0.877546 -0.14892732
v 0.07588066 0.5603519 -0.12447031
v 0.010455449 -0.027096331 -0.13206376
v -0.06718852 -0.027096331 -0.11387465
v 0.09018465 0.87890834 -0.1485566
v -0.10333262 1.3143334 -0.1597815
v 0.097240314 1.3172443 -0.15943763
v -0.2002827 1.3132187 -2.3651331E-4
v 0.06899816 -0.027096331 -0.11387465
v -0.09957432 1.727812 -0.15143201
v 0.10251804 1.7308854 -0.15241243
v 0.091643095 1.9154522 -0.14828706
v -0.104705706 1.9179338 -0.14745785
v -0.1786938 1.9188874 -1.5844288E-4
v -0.19460988 1.7268019 9.87819E-4
v -0.10150834 1.727812 0.15268938
v -0.089870036 1.9177512 0.14758606
v -0.10333262 1.3143332 0.1597804
v 0.09724275 1.3172443 0.15943408
v 0.10058888 1.7308854 0.15114924
v 0.20008516 1.3184253 -2.3651308E-4
v 0.20134604 1.7319554 -0.0014803204
v 0.18798591 1.9141998 -1.584431E-4
v 0.10251804 1.7308854 -0.15241243
v 0.091643095 1.9154522 -0.14828706
v 0.091643095 1.9154522 0.14837626
v 0.082633905 1.964028 -0.13573907
v 0.1709577 1.9628893 -1.5478265E-4
v 0.17050163 2.4011352 -3.3402067E-4
v 0.07971457 2.409385 -0.13164905
v 0.084099665 2.4217207 -0.1288724
v 0.16320452 2.41931 -1.3281284E-4
v 0.14164732 3.0970533 -7.9249835E-4
v 0.07192725 3.0926614 -0.110838115
v 0.07619771 2.421796 0.13669042
v 0.06951276 3.0923455 0.110532306
v -0.06497646 3.0834193 0.11069571
v -0.057196457 2.4201782 0.13349427
v -0.14328867 2.4193313 -4.413303E-4
v -0.13199426 3.079147 -7.9249917E-4
v -0.08175834 2.4201026 -0.12938944
v -0.06497646 3.0834186 -0.11197708
v 0.084099665 2.4217207 -0.1288724
v 0.07192725 3.0926614 -0.110838115
v -0.080290146 2.4077337 -0.13186245
v 0.07971457 2.409385 -0.13164905
v 0.084099665 2.4217207 -0.1288724
v -0.14940293 2.402436 -3.3402062E-4
v -0.060620632 2.4011028 0.13910002
v 0.07971457 2.4027357 0.13888784
v 0.082633905 1.964028 -0.13573907
v -0.096108675 1.9663442 -0.1350257
v 0.082633905 1.964028 0.13584532
v -0.16365327 1.967142 -1.5478246E-4
v -0.082316846 1.9661305 0.13513318
v 0.058103718 3.8184602 -0.09488907
v 0.14226191 3.5104969 -4.8762118E-4
v 0.119321875 3.8223557 -1.7055405E-4
v 0.07074196 3.5059705 -0.11231362
v 0.058103718 3.8184602 0.09482234
v 0.0694396 3.5058002 0.11218222
v -0.05672087 3.8111637 0.09499428
v -0.06670806 3.496943 0.11236514
v -0.11436363 3.8074894 -1.705547E-4
v -0.13478677 3.4926038 -4.8762196E-4
v -0.06670806 3.496943 -0.113022104
v -0.05672087 3.8111637 -0.0950598
v 0.07074196 3.5059705 -0.11231362
v 0.058103718 3.8184602 -0.09488907
v 0.039300002 3.8918006 -0.06353491
v 0.08031941 3.8944206 -1.4006498E-4
v 0.039300002 3.8918006 -0.06353491
v -0.037451338 3.8869195 -0.06365686
v -0.07614162 3.88447 -1.4006543E-4
v -0.037451338 3.8869195 0.06356453
v 0.039300002 3.8918006 0.06343892
v 0.0013925966 3.932536 -7.9091486E-5
v 0.0013925966 3.932536 -7.9091486E-5
v 0.0013925966 3.932536 -7.9091486E-5
v 0.0013925966 3.932536 -7.9091486E-5
v 0.0013925966 3.932536 -7.9091486E-5
v 0.0013925966 3.932536 -7.9091486E-5
v 0.097240314 1.3172443 -0.15943763
v 0.07192725 3.0926614 -0.110838115
vn 0.8586345 -0.024431435 -0.5120058
vn 0.47889802 -0.040047873 -0.8769566
vn 0.5090539 -0.021484053 -0.86046654
vn 0.99851435 -0.054290246 0.0046556485
vn 0.47860008 -0.0579763 -0.8761169
vn 0.9980786 -0.061957993 -6.4273685E-4
vn 0.47916567 -0.05803016 0.87580407
vn 0.47972474 -0.05615487 0.8756203
vn 0.99837446 -0.0068297493 0.0565851
vn 0.8645811 0.0049630716 0.50246876
vn -0.48690602 -0.062422995 0.8712209
vn -0.48927736 -0.05475017 0.87040794
vn 0.51176286 0.010951907 0.85905695
vn 0.050976876 0.019751968 0.9985045
vn -0.9976151 -0.069019504 -6.330713E-4
vn -0.9987935 -0.048931316 0.004146892
vn -0.49115944 0.0076597864 0.871036
vn -0.8446925 0.01370438 0.53507626
vn -0.4889309 -0.03973101 -0.8714172
vn -0.8746264 -0.02176326 -0.4843088
vn -0.99941885 -0.025792448 0.022287993
vn -0.4863723 -0.062386006 -0.8715217
vn 0.47889802 -0.040047873 -0.8769566
vn 0.03558449 -0.018674478 -0.9991922
vn -0.48403096 -0.022375401 -0.87476474
vn 0.47860008 -0.0579763 -0.8761169
vn -0.4905793 -0.008638371 -0.87135375
vn 0.47628194 -0.00946617 -0.87924165
vn -0.99986374 -0.016466102 -0.001136304
vn 0.5090539 -0.021484053 -0.86046654
vn -0.4914334 0.025197076 -0.8705506
vn 0.4817099 0.02815714 -0.8758782
vn 0.46742627 0.16874689 -0.8677771
vn -0.5271951 0.14559719 -0.83717793
vn -0.9848221 0.17180693 0.024657177
vn -0.99878865 0.049177635 -0.001658524
vn -0.49207044 0.03700179 0.86976874
vn -0.47998825 0.16439804 0.86173356
vn -0.49109212 -0.010576268 0.8710435
vn 0.47802868 -0.00831351 0.87830484
vn 0.48400697 0.026707394 0.87465644
vn 0.99987674 -0.01569689 1.9625328E-4
vn 0.9993963 0.03474287 1.02969E-4
vn 0.9812827 0.19256766 0.0013857316
vn 0.4817099 0.02815714 -0.8758782
vn 0.46742627 0.16874689 -0.8677771
vn 0.4692076 0.16316621 0.8678831
vn 0.4630645 0.162445 -0.871311
vn 0.98378974 0.17932424 -8.013958E-4
vn 0.9851908 0.17144293 -0.0025443607
vn 0.4121344 0.04513215 -0.9100046
vn 0.52758825 0.019305883 -0.8492808
vn 0.9759778 0.2174018 0.01427454
vn 0.9998516 0.016570132 0.004720995
vn 0.48513037 0.015416341 -0.87430596
vn 0.45097983 0.11084437 0.8856244
vn 0.47897702 0.017578285 0.8776514
vn -0.4954603 0.012470676 0.868541
vn -0.47188225 0.18100546 0.86288124
vn -0.981198 0.18469496 0.056019686
vn -0.99993753 0.010854785 0.0026788497
vn -0.5616034 0.05941329 -0.82527065
vn -0.48715186 0.01581792 -0.873174
vn 0.52758825 0.019305883 -0.8492808
vn 0.48513037 0.015416341 -0.87430596
vn -0.49259788 0.07716043 -0.8668297
vn 0.4121344 0.04513215 -0.9100046
vn 0.52758825 0.019305883 -0.8492808
vn -0.9823048 0.18234465 0.042752348
vn -0.46901777 0.16437455 0.8677577
vn 0.48402932 0.09767088 0.8695838
vn 0.4630645 0.162445 -0.871311
vn -0.5187059 0.16913389 -0.838056
vn 0.46588197 0.15750812 0.8707153
vn -0.9841302 0.17296353 0.039640907
vn -0.4903428 0.15857758 0.8569814
vn 0.45588276 0.24903865 -0.85448855
vn 0.99932814 0.03659834 0.0019811357
vn 0.96365553 0.2671476 -4.6649008E-4
vn 0.48151356 0.03317706 -0.87581044
vn 0.4566283 0.24861501 0.8542138
vn 0.47764793 0.03132479 0.87799275
vn -0.4851607 0.23995999 0.84085566
vn -0.49212193 0.028277425 0.8700669
vn -0.9703621 0.24165466 -5.284718E-4
vn -0.999603 0.028170612 -6.366037E-4
vn -0.4898071 0.029465929 -0.87133276
vn -0.48460728 0.24046847 -0.8410296
vn 0.48151356 0.03317706 -0.87581044
vn 0.45588276 0.24903865 -0.85448855
vn 0.3381471 0.6497401 -0.6808042
vn 0.73656535 0.67636615 -4.967759E-4
vn 0.3381471 0.6497401 -0.6808042
vn -0.4006222 0.62904626 -0.66618514
vn -0.77894974 0.62708586 -7.559107E-4
vn -0.40073702 0.6293344 0.6658439
vn 0.3385882 0.6499252 0.6804083
vn -0.04717562 0.99888664 -1.4871075E-4
vn -0.04717562 0.99888664 -1.4871075E-4
vn -0.04717562 0.99888664 -1.4871075E-4
vn -0.04717562 0.99888664 -1.4871075E-4
vn -0.04717562 0.99888664 -1.4871075E-4
vn -0.04717562 0.99888664 -1.4871075E-4
vn 0.47628194 -0.00946617 -0.87924165
vn 0.48513037 0.015416341 -0.87430596
vt 1.3006523 0.99950045
vt 1.4188697 0.85803914
vt 1.4195232 0.99950045
vt 1.2046425 0.85784304
vt 1.4193081 0.7813339
vt 1.2046186 0.781159
vt 0.9731525 0.7813339
vt 0.97361577 0.85803914
vt 1.2045922 0.99950045
vt 1.1047586 0.99950045
vt 0.68702954 0.781662
vt 0.68727446 0.8584064
vt 0.97289056 0.99950045
vt 0.8564132 0.99950045
vt 0.4707584 0.781827
vt 0.4707324 0.8585908
vt 0.68912053 0.99950045
vt 0.57194245 0.99950045
vt 0.21652575 0.8584064
vt 0.38415033 0.99950045
vt 0.47078946 0.99950045
vt 0.21678078 0.781662
vt -0.047959525 0.85803914
vt 0.081197515 0.99950045
vt 0.21473478 0.99950045
vt -0.04752113 0.7813339
vt 0.2245424 0.6769376
vt -0.042848296 0.6760758
vt 0.47005478 0.67626965
vt -0.047306094 0.99950045
vt 0.23179363 0.5767474
vt -0.043712366 0.5760916
vt -0.04953464 0.5317334
vt 0.23585951 0.5311358
vt 0.47081923 0.5309062
vt 0.4710493 0.57764673
vt 0.6724307 0.57645494
vt 0.68554825 0.5311799
vt 0.6801664 0.6763886
vt 0.9731029 0.67623025
vt 0.9729283 0.5756524
vt 1.20414 0.67530406
vt 1.2045944 0.5770792
vt 1.204557 0.532035
vt 1.4150052 0.5751388
vt 1.4172946 0.5317334
vt 0.9750872 0.5317334
vt 1.3974379 0.52266836
vt 1.2125074 0.5224764
vt 1.204353 0.41424984
vt 1.4180175 0.41267312
vt 1.4188327 0.4107492
vt 1.203745 0.41049343
vt 1.2119445 0.24722064
vt 1.4036359 0.24861884
vt 0.9637265 0.4099843
vt 0.97890484 0.2487675
vt 0.68091005 0.25057644
vt 0.6879483 0.41049343
vt 0.4698739 0.41059297
vt 0.4733797 0.25190365
vt 0.22328883 0.4104581
vt 0.20789129 0.2507931
vt -0.057982657 0.40973437
vt -0.07808873 0.2497037
vt 0.21923868 0.41305184
vt -0.043072544 0.4129017
vt -0.056160077 0.41034585
vt 0.46965605 0.41425103
vt 0.6856371 0.41488844
vt 0.96640927 0.4148044
vt -0.055648774 0.52245927
vt 0.2374607 0.52180016
vt 0.97016025 0.52234006
vt 0.4782866 0.52125025
vt 0.6691597 0.5219532
vt 1.4182154 0.07304013
vt 1.2050726 0.15042228
vt 1.2046736 0.07214588
vt 1.4148088 0.1514327
vt 0.9743227 0.07304013
vt 0.97573113 0.1514706
vt 0.6878789 0.07471502
vt 0.6887519 0.15344745
vt 0.47069865 0.07555854
vt 0.4702721 0.1544159
vt 0.21436276 0.15344745
vt 0.21585448 0.07471502
vt -0.052020617 0.1514327
vt -0.048613742 0.07304013
vt 1.4343901 0.056259274
vt 1.2004687 0.05550921
vt -0.042177048 0.056231916
vt 0.19677259 0.05727017
vt 0.46637654 0.05795163
vt 0.70769984 0.057268977
vt 0.95830417 0.056256533
vt 1.3308035 0.012653112
vt 0.09273632 0.014197767
vt 0.3432646 0.0070788264
vt 0.597155 0.0068062544
vt 0.85627174 0.0140506625
vt 1.0796543 0.012819529
vt 1.4156991 0.6752312
vt -0.06719366 0.24701506

g DesertPlant01B
s 1
usemtl DesertPlant01B
f 3/3/3 2/2/2 1/1/1 
f 2/2/2 4/4/4 1/1/1 
f 2/2/2 5/5/5 4/4/4 
f 5/5/5 6/6/6 4/4/4 
f 6/6/6 7/7/7 4/4/4 
f 7/7/7 8/8/8 4/4/4 
f 4/4/4 8/8/8 9/9/9 
f 9/9/9 1/1/1 4/4/4 
f 8/8/8 10/10/10 9/9/9 
f 7/7/7 11/11/11 8/8/8 
f 11/11/11 12/12/12 8/8/8 
f 8/8/8 12/12/12 13/13/13 
f 13/13/13 10/10/10 8/8/8 
f 12/12/12 14/14/14 13/13/13 
f 11/11/11 15/15/15 12/12/12 
f 15/15/15 16/16/16 12/12/12 
f 12/12/12 16/16/16 17/17/17 
f 17/17/17 14/14/14 12/12/12 
f 16/16/16 18/18/18 17/17/17 
f 16/16/16 15/15/15 19/19/19 
f 16/16/16 19/19/19 20/20/20 
f 21/21/21 16/16/16 20/20/20 
f 21/21/21 18/18/18 16/16/16 
f 15/15/15 22/22/22 19/19/19 
f 19/19/19 22/22/22 23/23/23 
f 19/19/19 23/23/23 24/24/24 
f 25/25/25 19/19/19 24/24/24 
f 25/25/25 20/20/20 19/19/19 
f 22/22/22 26/26/26 23/23/23 
f 22/22/22 27/27/27 26/26/26 
f 27/27/27 28/28/28 26/26/26 
f 15/15/15 29/29/29 22/22/22 
f 29/29/29 27/27/27 22/22/22 
f 30/30/30 24/24/24 23/23/23 
f 28/28/28 27/27/27 31/31/31 
f 32/32/32 28/28/28 31/31/31 
f 33/33/33 32/32/32 31/31/31 
f 34/34/34 33/33/33 31/31/31 
f 34/34/34 31/31/31 35/35/35 
f 31/31/31 36/36/36 35/35/35 
f 31/31/31 27/27/27 36/36/36 
f 27/27/27 29/29/29 36/36/36 
f 35/35/35 36/36/36 37/37/37 
f 38/38/38 35/35/35 37/37/37 
f 29/29/29 39/39/39 36/36/36 
f 39/39/39 37/37/37 36/36/36 
f 39/39/39 40/40/40 37/37/37 
f 40/40/40 41/41/41 37/37/37 
f 38/38/38 37/37/37 41/41/41 
f 40/40/40 42/42/42 41/41/41 
f 42/42/42 43/43/43 41/41/41 
f 41/41/41 43/43/43 44/44/44 
f 44/44/44 43/43/43 45/45/45 
f 43/43/43 42/42/42 45/45/45 
f 46/46/46 44/44/44 45/45/45 
f 47/47/47 41/41/41 44/44/44 
f 47/47/47 38/38/38 41/41/41 
f 44/44/44 46/46/46 48/48/48 
f 49/49/49 44/44/44 48/48/48 
f 47/47/47 44/44/44 49/49/49 
f 50/50/50 49/49/49 48/48/48 
f 51/51/51 50/50/50 48/48/48 
f 50/50/50 51/51/51 52/52/52 
f 53/53/53 50/50/50 52/52/52 
f 53/53/53 52/52/52 54/54/54 
f 52/52/52 55/55/55 54/54/54 
f 53/53/53 54/54/54 56/56/56 
f 54/54/54 57/57/57 56/56/56 
f 57/57/57 58/58/58 56/56/56 
f 58/58/58 59/59/59 56/56/56 
f 59/59/59 58/58/58 60/60/60 
f 58/58/58 61/61/61 60/60/60 
f 60/60/60 61/61/61 62/62/62 
f 61/61/61 63/63/63 62/62/62 
f 64/64/64 62/62/62 63/63/63 
f 65/65/65 64/64/64 63/63/63 
f 62/62/62 66/66/66 60/60/60 
f 67/67/67 66/66/66 62/62/62 
f 68/68/68 67/67/67 62/62/62 
f 66/66/66 69/69/69 60/60/60 
f 60/60/60 69/69/69 59/59/59 
f 69/69/69 70/70/70 59/59/59 
f 56/56/56 59/59/59 71/71/71 
f 59/59/59 70/70/70 71/71/71 
f 56/56/56 71/71/71 53/53/53 
f 71/71/71 50/50/50 53/53/53 
f 67/67/67 72/72/72 66/66/66 
f 72/72/72 73/73/73 66/66/66 
f 66/66/66 73/73/73 69/69/69 
f 71/71/71 74/74/74 50/50/50 
f 71/71/71 70/70/70 74/74/74 
f 74/74/74 49/49/49 50/50/50 
f 73/73/73 75/75/75 69/69/69 
f 70/70/70 69/69/69 76/76/76 
f 69/69/69 75/75/75 76/76/76 
f 70/70/70 76/76/76 74/74/74 
f 72/72/72 33/33/33 73/73/73 
f 33/33/33 34/34/34 73/73/73 
f 73/73/73 34/34/34 75/75/75 
f 74/74/74 47/47/47 49/49/49 
f 34/34/34 35/35/35 75/75/75 
f 75/75/75 35/35/35 76/76/76 
f 35/35/35 38/38/38 76/76/76 
f 76/76/76 38/38/38 74/74/74 
f 38/38/38 47/47/47 74/74/74 
f 79/79/79 78/78/78 77/77/77 
f 78/78/78 80/80/80 77/77/77 
f 78/78/78 79/79/79 81/81/81 
f 82/82/82 78/78/78 81/81/81 
f 82/82/82 81/81/81 83/83/83 
f 84/84/84 82/82/82 83/83/83 
f 84/84/84 83/83/83 85/85/85 
f 86/86/86 84/84/84 85/85/85 
f 87/87/87 86/86/86 85/85/85 
f 88/88/88 87/87/87 85/85/85 
f 89/89/89 87/87/87 88/88/88 
f 90/90/90 89/89/89 88/88/88 
f 77/77/77 91/91/91 79/79/79 
f 91/91/91 92/92/92 79/79/79 
f 93/93/93 90/90/90 88/88/88 
f 94/94/94 93/93/93 88/88/88 
f 94/94/94 88/88/88 85/85/85 
f 95/95/95 94/94/94 85/85/85 
f 95/95/95 85/85/85 83/83/83 
f 96/96/96 95/95/95 83/83/83 
f 81/81/81 97/97/97 83/83/83 
f 97/97/97 96/96/96 83/83/83 
f 92/92/92 97/97/97 79/79/79 
f 97/97/97 81/81/81 79/79/79 
f 98/98/98 92/92/92 91/91/91 
f 99/99/99 93/93/93 94/94/94 
f 100/100/100 94/94/94 95/95/95 
f 101/101/101 95/95/95 96/96/96 
f 102/102/102 96/96/96 97/97/97 
f 103/103/103 97/97/97 92/92/92 
f 5/5/5 104/104/104 6/6/6 
f 104/104/104 42/42/42 6/6/6 
f 42/42/42 104/104/104 45/45/45 
f 6/6/6 42/42/42 40/40/40 
f 7/7/7 6/6/6 40/40/40 
f 7/7/7 40/40/40 39/39/39 
f 11/11/11 7/7/7 39/39/39 
f 11/11/11 39/39/39 29/29/29 
f 15/15/15 11/11/11 29/29/29 
f 55/55/55 80/80/80 54/54/54 
f 80/80/80 78/78/78 54/54/54 
f 54/54/54 78/78/78 82/82/82 
f 57/57/57 54/54/54 82/82/82 
f 57/57/57 82/82/82 84/84/84 
f 58/58/58 57/57/57 84/84/84 
f 58/58/58 84/84/84 86/86/86 
f 61/61/61 58/58/58 86/86/86 
f 61/61/61 86/86/86 63/63/63 
f 86/86/86 87/87/87 63/63/63 
f 63/63/63 87/87/87 105/105/105 
f 87/87/87 89/89/89 105/105/105 

