# Created by DisUnity v0.3.4
v 1.1635171 0.1037253 0.021510428
v 1.3194652 0.12848166 1.0428365
v 1.1631254 0.0113371145 0.03644085
v 1.3177898 0.24571416 1.0242472
v 1.4153054 0.23903458 0.9761182
v 1.2659079 0.101534925 0.005080028
v 1.3882201 0.24420772 1.0129448
v 1.2673802 -0.013252777 0.023309667
v 1.4134547 0.120873116 0.97404516
v 1.3886622 0.14178899 1.029353
v 1.4153054 0.23903458 0.9761182
v 1.2659079 0.101534925 0.005080028
v 1.3177898 0.24571416 1.0242472
v 1.3886622 0.14178899 1.029353
v 1.3194652 0.12848166 1.0428365
v 1.3882201 0.24420772 1.0129448
v 1.4153054 0.23903458 0.9761182
v 1.0537212 0.15665053 0.009936939
v 0.9417945 0.027631678 1.0304188
v 0.98218364 0.08158365 0.0074671097
v 1.0133327 0.102699846 1.0328889
v 1.0169022 -0.04387344 1.0282627
v 1.0572907 0.010079468 0.0053112106
v 1.0884398 0.031193115 1.0307331
v 1.128827 0.08514567 0.007781199
v 1.128827 0.08514567 0.007781199
v 1.0884398 0.031193115 1.0307331
v 1.0133327 0.102699846 1.0328889
v 1.0169022 -0.04387344 1.0282627
v 0.9417945 0.027631678 1.0304188
v 1.0884398 0.031193115 1.0307331
v 0.6581624 0.17535129 0.016326671
v 0.6235 0.024065565 0.94589025
v 0.5980242 0.10088722 0.010314006
v 0.6948741 0.017843753 0.96752375
v 0.6458565 -0.09847925 0.9237014
v 0.67626 0.06843868 -0.0015829788
v 0.73243046 0.120656945 0.0025872397
v 0.75250137 -0.04310273 0.9587831
v 0.69574416 -0.10000727 0.9420936
v 0.75250137 -0.04310273 0.9587831
v 0.73243046 0.120656945 0.0025872397
v 0.6948741 0.017843753 0.96752375
v 0.75250137 -0.04310273 0.9587831
v 0.5329021 0.18601352 0.025216047
v 0.42779097 -0.08668555 0.9889812
v 0.46165106 0.1115488 0.013514851
v 0.499042 -0.012220193 1.0006828
v 0.44894105 -0.14101198 0.9694732
v 0.55261064 0.057547186 0.004372449
v 0.52791715 -0.15730682 0.96947527
v 0.5743716 -0.08083074 0.9786175
v 0.6082794 0.11572862 0.013514532
v 0.499042 -0.012220193 1.0006828
v 0.5329021 0.18601352 0.025216047
v 0.499042 -0.012220193 1.0006828
v 0.5743716 -0.08083074 0.9786175
v 0.52791715 -0.15730682 0.96947527
v 0.44894105 -0.14101198 0.9694732
v 0.42779097 -0.08668555 0.9889812
v 0.3220967 0.25437808 0.025216047
v 0.26826265 0.08291028 0.6165646
v 0.23756684 0.17953481 0.013514851
v 0.32533026 0.14094432 0.7273923
v 0.33903617 0.026230691 0.51989347
v 0.32622296 0.10962779 0.0018134948
v 0.39747396 0.18409348 0.013514532
v 0.41051808 0.09259551 0.5817432
v 0.32622296 0.10962779 0.0018134948
v 0.33903617 0.026230691 0.51989347
v 0.3241136 0.090966314 1.0362978
v 0.25286263 0.016500637 1.0245961
v 0.32779247 -0.038087755 0.91572636
v 0.32779247 -0.038087755 0.91572636
v 0.39949155 0.020680472 1.0245961
v 0.3241136 0.090966314 1.0362978
v 0.25286263 0.016500637 1.0245961
v 0.1005756 0.1150148 0.0068751224
v -0.008787588 -0.00849836 0.99833846
v 0.029350728 0.0396104 0.0068751224
v 0.062435377 0.06690566 0.99833846
v 0.06616472 -0.06369604 0.9878401
v 0.120331824 -0.015124302 0.006874963
v 0.13784072 -0.0043185437 0.98784024
v 0.17597967 0.043790232 0.0068751224
v 0.17597967 0.043790232 0.0068751224
v 0.13784072 -0.0043185437 0.98784024
v 0.062435377 0.06690566 0.99833846
v 0.06616472 -0.06369604 0.9878401
v -0.008787588 -0.00849836 0.99833846
v 0.13784072 -0.0043185437 0.98784024
v -0.014920775 0.073620155 0.032529876
v -0.22574094 -0.18104035 0.9616731
v -0.0855491 9.908596E-4 0.010270321
v -0.15511131 -0.10841134 0.9839328
v 0.05908503 9.770077E-4 0.0347395
v -0.07937335 -0.17959896 0.9758907
v 0.0039023133 -0.05576718 0.017348021
v -0.15036307 -0.23635001 0.95582384
v -0.0855491 9.908596E-4 0.010270321
v -0.22574094 -0.18104035 0.9616731
v -0.15511131 -0.10841134 0.9839328
v -0.22574094 -0.18104035 0.9616731
v -0.33761775 0.09300103 -0.14472194
v -0.408842 0.01759697 0.78386134
v -0.408842 0.01759697 -0.14472163
v -0.33761775 0.09300103 0.8794787
v -0.3334373 -0.053627577 0.8165791
v -0.33343792 -0.05362759 -0.14472194
v -0.2739815 0.032893833 0.8794789
v -0.26221305 0.021776805 -0.14472194
v -0.26221305 0.021776805 -0.14472194
v -0.2739815 0.032893833 0.8794789
v -0.34520638 -0.04251024 0.86069214
v -0.4088414 0.01759858 0.8461959
v -0.34520638 -0.04251024 0.86069214
v -0.2739815 0.032893833 0.8794789
v -0.34520638 -0.04251024 0.86069214
v -0.49348867 0.14329183 0.007349605
v -0.6264953 0.019541096 0.9968761
v -0.56470525 0.06788736 0.006249015
v -0.54694295 0.09518224 0.9981056
v -0.5788756 -0.036445625 0.98711276
v -0.47373506 0.013154583 0.007654926
v -0.51045436 -0.026809793 0.98817027
v -0.4903006 0.042174127 0.98848134
v -0.41809288 0.07206608 0.008514926
v -0.54694295 0.09518224 0.9981056
v -0.49348867 0.14329183 0.007349605
v -0.54694295 0.09518224 0.9981056
v -0.6264953 0.019541096 0.9968761
v -0.5788756 -0.036445625 0.98711276
v -0.4903006 0.042174127 0.98848134
v -0.9485363 0.2023678 0.03781551
v -1.103677 -0.10003508 0.9738362
v -1.0194128 0.12863757 0.02051953
v -1.0332435 -0.02804551 1.0003657
v -1.0285596 -0.15447105 0.966081
v -0.92833966 0.07437251 0.0146750705
v -0.9666385 -0.09465133 0.96891487
v -0.87296265 0.13197684 0.028187783
v -1.0332435 -0.02804551 1.0003657
v -0.9485363 0.2023678 0.03781551
v -1.0332435 -0.02804551 1.0003657
v -1.103677 -0.10003508 0.9738362
v -1.0285596 -0.15447105 0.966081
v -0.9666385 -0.09465133 0.96891487
v -1.2678176 0.14010775 0.03467621
v -1.5447894 -0.08030287 0.93884605
v -1.3114067 0.04816613 0.014543375
v -1.5026847 -0.019121256 0.95524967
v -1.5067948 -0.13413222 0.9308035
v -1.2106256 0.021554586 0.034743648
v -1.1765673 0.09338799 0.05047301
v -1.444224 -0.04317241 0.95696634
v -1.4342194 -0.12072251 0.94893855
v -1.444224 -0.04317241 0.95696634
v -1.1765673 0.09338799 0.05047301
v -1.444224 -0.04317241 0.95696634
v -1.4342194 -0.12072251 0.94893855
v -1.5067948 -0.13413222 0.9308035
v -1.5026847 -0.019121256 0.95524967
v -1.5447894 -0.08030287 0.93884605
vn -0.6942557 0.7197068 0.0055794646
vn -0.4496773 -0.49018663 0.7466641
vn -0.7767073 -0.60054225 0.18993388
vn -0.48527604 0.66707915 0.56525433
vn 0.75620997 0.647465 0.09452735
vn 0.69308037 0.69127786 -0.20438811
vn 0.40378654 0.72318697 0.56031865
vn 0.63583565 -0.7718001 -0.0061375713
vn 0.7454625 -0.6377578 0.19378
vn 0.5338199 -0.3357899 0.7760679
vn 0.75620997 0.647465 0.09452735
vn 0.69308037 0.69127786 -0.20438811
vn -0.48527604 0.66707915 0.56525433
vn 0.5338199 -0.3357899 0.7760679
vn -0.4496773 -0.49018663 0.7466641
vn 0.40378654 0.72318697 0.56031865
vn 0.75620997 0.647465 0.09452735
vn -0.007245844 0.9986009 0.05238063
vn -0.8267964 -0.04515529 0.56068593
vn -0.99909806 -0.0137556745 -0.04017307
vn -0.03479938 0.7917837 0.6098094
vn 0.005155806 -0.8394863 0.5433565
vn 0.041925207 -0.99781966 -0.05097225
vn 0.8053512 -0.0066112215 0.59276104
vn 0.9986462 0.031871557 0.041108653
vn 0.9986462 0.031871557 0.041108653
vn 0.8053512 -0.0066112215 0.59276104
vn -0.03479938 0.7917837 0.6098094
vn 0.005155806 -0.8394863 0.5433565
vn -0.8267964 -0.04515529 0.56068593
vn 0.8053512 -0.0066112215 0.59276104
vn 0.1285692 0.98185503 0.13939364
vn -0.8511163 0.19536398 0.487272
vn -0.9758185 0.2159872 0.033582292
vn 0.004290865 0.5733276 0.81931496
vn -0.49122247 -0.8199735 0.29384342
vn -0.051178787 -0.9843629 -0.16855343
vn 0.9991529 0.034349736 -0.02266291
vn 0.7488966 -0.100630105 0.6550019
vn 0.1688328 -0.8360763 0.5219884
vn 0.7488966 -0.100630105 0.6550019
vn 0.9991529 0.034349736 -0.02266291
vn 0.004290865 0.5733276 0.81931496
vn 0.7488966 -0.100630105 0.6550019
vn -0.009080773 0.9799479 0.19904675
vn -0.7238409 -0.14248493 0.6750944
vn -0.99865985 0.010196864 -0.05074061
vn -0.033227276 0.67418075 0.7378186
vn -0.38460138 -0.8414239 0.3795885
vn 0.10789816 -0.96958745 -0.2196775
vn 0.2987959 -0.8557881 0.42231226
vn 0.8108492 -0.06289476 0.5818658
vn 0.9946478 0.091885485 0.0472528
vn -0.033227276 0.67418075 0.7378186
vn -0.009080773 0.9799479 0.19904675
vn -0.033227276 0.67418075 0.7378186
vn 0.8108492 -0.06289476 0.5818658
vn 0.2987959 -0.8557881 0.42231226
vn -0.38460138 -0.8414239 0.3795885
vn -0.7238409 -0.14248493 0.6750944
vn -0.052935604 0.9846858 0.1661075
vn -0.999561 -0.02921821 -0.0049065026
vn -0.998055 -0.058002617 0.0228451
vn -0.057680856 0.98571706 0.15822409
vn 0.047131862 -0.98697156 -0.15383677
vn 0.040516764 -0.987427 -0.15279497
vn 0.99864787 0.050978772 -0.010184671
vn 0.99915564 0.04037438 0.0076098708
vn 0.040516764 -0.987427 -0.15279497
vn 0.047131862 -0.98697156 -0.15383677
vn -0.061540093 0.59260845 0.8031364
vn -0.787378 -0.28243423 0.54796606
vn -0.0023429499 -0.99793756 0.064150155
vn -0.0023429499 -0.99793756 0.064150155
vn 0.77804756 -0.22183491 0.5877339
vn -0.061540093 0.59260845 0.8031364
vn -0.787378 -0.28243423 0.54796606
vn -0.009520229 0.9987859 0.048334397
vn -0.7928028 -0.1257779 0.5963586
vn -0.99473554 -0.09130512 -0.04652301
vn -0.021426577 0.7790324 0.6266173
vn 0.06720585 -0.8418153 0.53556544
vn 0.10420734 -0.9935889 -0.043839145
vn 0.83761436 -0.03654814 0.54503804
vn 0.9989261 0.016611615 0.043251973
vn 0.9989261 0.016611615 0.043251973
vn 0.83761436 -0.03654814 0.54503804
vn -0.021426577 0.7790324 0.6266173
vn 0.06720585 -0.8418153 0.53556544
vn -0.7928028 -0.1257779 0.5963586
vn 0.83761436 -0.03654814 0.54503804
vn -0.039498627 0.9824625 0.18222836
vn -0.86770296 -0.18909715 0.45971063
vn -0.9849547 -0.062821835 -0.16098939
vn -0.09797203 0.6838765 0.72298986
vn 0.9889535 -0.007120173 0.14805515
vn 0.7537224 -0.131388 0.6439252
vn 0.08272214 -0.9809986 -0.17549598
vn -0.0077606332 -0.90889746 0.41694745
vn -0.9849547 -0.062821835 -0.16098939
vn -0.86770296 -0.18909715 0.45971063
vn -0.09797203 0.6838765 0.72298986
vn -0.86770296 -0.18909715 0.45971063
vn -0.028497742 0.9995939 0.0
vn -0.9995939 -0.028497394 3.1702316E-6
vn -0.9995939 -0.028494574 0.0
vn -0.08029873 0.7647363 0.63932043
vn 0.09071872 -0.9918465 0.08950161
vn 0.06614342 -0.99779224 0.0059785326
vn 0.73166054 0.019428646 0.68139225
vn 0.9980915 0.06150064 0.0055713733
vn 0.9980915 0.06150064 0.0055713733
vn 0.73166054 0.019428646 0.68139225
vn -0.13229947 -0.7727767 0.6207359
vn -0.8909639 -0.04731035 0.45160264
vn -0.13229947 -0.7727767 0.6207359
vn 0.73166054 0.019428646 0.68139225
vn -0.13229947 -0.7727767 0.6207359
vn 0.0026031672 0.9988997 0.046825446
vn -0.7754863 -0.09270875 0.6245207
vn -0.99681693 -0.033381857 -0.07239883
vn -0.02670757 0.7697373 0.6378018
vn -0.20632678 -0.8238272 0.5279565
vn 0.21211208 -0.9762487 -0.044125114
vn 0.4545718 -0.6979954 0.5533235
vn 0.7682884 0.083115004 0.6346849
vn 0.9868847 0.14750226 0.06558638
vn -0.02670757 0.7697373 0.6378018
vn 0.0026031672 0.9988997 0.046825446
vn -0.02670757 0.7697373 0.6378018
vn -0.7754863 -0.09270875 0.6245207
vn -0.20632678 -0.8238272 0.5279565
vn 0.7682884 0.083115004 0.6346849
vn 0.004537768 0.9716538 0.23636495
vn -0.8572956 -0.21875004 0.46603948
vn -0.9909382 -0.07727289 -0.10986575
vn -0.036412362 0.63785774 0.76929295
vn 0.06393607 -0.9155432 0.39710557
vn 0.13177685 -0.9672047 -0.21714044
vn 0.84780985 -0.12909366 0.5143475
vn 0.9952369 9.1695436E-4 0.097481824
vn -0.036412362 0.63785774 0.76929295
vn 0.004537768 0.9716538 0.23636495
vn -0.036412362 0.63785774 0.76929295
vn -0.8572956 -0.21875004 0.46603948
vn 0.06393607 -0.9155432 0.39710557
vn 0.84780985 -0.12909366 0.5143475
vn -0.29673827 0.9513958 0.082415864
vn -0.8294975 -0.28355736 0.48117474
vn -0.9305335 -0.23074047 -0.2843698
vn -0.3853276 0.6359354 0.66866195
vn -0.21782267 -0.9064913 0.3617
vn 0.46387163 -0.8856604 -0.020706208
vn 0.84395474 0.44343805 0.30183294
vn 0.5394682 0.25002962 0.8040269
vn 0.49141783 -0.66670287 0.56037116
vn 0.5394682 0.25002962 0.8040269
vn 0.84395474 0.44343805 0.30183294
vn 0.5394682 0.25002962 0.8040269
vn 0.49141783 -0.66670287 0.56037116
vn -0.21782267 -0.9064913 0.3617
vn -0.3853276 0.6359354 0.66866195
vn -0.8294975 -0.28355736 0.48117474
vt 1.9758356 1.5085084
vt 1.1016967 1.4452307
vt 1.9708908 1.4295616
vt 1.1076176 1.5456455
vt 1.1397653 1.6320095
vt 1.9804986 1.5961092
vt 1.1108587 1.6058378
vt 1.970084 1.3418429
vt 1.1463664 1.35694
vt 1.1013174 1.3647397
vt 1.12866 1.2584822
vt 1.9701078 1.2434752
vt 1.1076176 1.5456455
vt 1.0428607 1.4607744
vt 1.1016967 1.4452307
vt 1.0471671 1.548667
vt 1.0195 1.5505347
vt 1.9822574 1.7353461
vt 0.9953656 1.640125
vt 1.9777219 1.6360569
vt 0.9999013 1.739414
vt 0.9962454 1.5407352
vt 1.9785998 1.5366662
vt 0.99609303 1.4414117
vt 1.9784498 1.437341
vt 1.9839599 1.8347251
vt 1.0016038 1.8387935
vt 0.9999013 1.739414
vt 0.89607453 1.6446612
vt 0.9953656 1.640125
vt 0.9006114 1.7439494
vt 1.043166 -0.45798504
vt 1.8910569 -0.438025
vt 1.0471524 -0.4025061
vt 1.9100794 -0.50211644
vt 1.8867878 -0.32497132
vt 1.0473284 -0.32026315
vt 1.036435 -0.5236901
vt 1.9087442 -0.55281436
vt 1.9149221 -0.29749417
vt 1.9037627 -0.22638965
vt 1.0382932 -0.25292814
vt 1.951835 -0.42178106
vt 1.990436 -0.35645807
vt 0.9921162 1.5382509
vt 0.10339312 1.6350919
vt 0.9877012 1.6283071
vt 0.107808895 1.5450368
vt 0.111937016 1.7064525
vt 0.9868907 1.7206737
vt 0.112003095 1.7746812
vt 0.12028924 1.839934
vt 0.9939186 1.7981838
vt 0.11658323 1.9042522
vt 0.9998474 1.8616799
vt 0.107808895 1.5450368
vt 0.015782677 1.5407165
vt -0.0048972294 1.61619
vt 0.05400632 1.6559865
vt 0.10339312 1.6350919
vt 0.9810182 1.5378654
vt 0.4338928 1.4621058
vt 0.98173505 1.4672413
vt 0.34345737 1.531889
vt 0.51015985 1.3923616
vt 0.97900826 1.3838804
vt 0.9804236 1.6084898
vt 0.46443987 1.6136961
vt 0.9810206 1.6791153
vt 0.5075339 1.7000654
vt 0.06298733 1.5279875
vt 0.06355077 1.4586339
vt 0.15235068 1.3888369
vt 0.13938954 1.6953776
vt 0.06810324 1.6045692
vt 0.002698481 1.6761873
vt 0.06263839 1.7525442
vt -0.008336452 1.4255161
vt -0.8623696 1.3397686
vt -0.014078129 1.3377079
vt -0.85676676 1.4275806
vt -0.85082734 1.2779231
vt -0.01146273 1.2619369
vt -0.84848344 1.2157544
vt -0.009635445 1.2133608
vt -0.011318008 1.4876707
vt -0.85044944 1.4901338
vt -0.85676676 1.4275806
vt -0.94054115 1.3543258
vt -0.8623696 1.3397686
vt -0.9452142 1.4331449
vt 1.0076245 1.6311475
vt 1.8837415 1.7088717
vt 1.0109118 1.7236003
vt 1.8803374 1.6164201
vt 1.0096668 1.565899
vt 1.8730365 1.5505749
vt 1.009972 1.4937512
vt 1.8722373 1.4639243
vt 1.0070995 1.4140854
vt 1.878903 1.3981726
vt 1.965552 1.5503982
vt 1.9654061 1.4578868
vt 1.9726489 0.79203105
vt 1.1813359 0.72952896
vt 1.9726489 0.72952896
vt 1.0998507 0.79203105
vt 1.1555865 0.6699028
vt 1.9726489 0.66702724
vt 1.0977201 0.591895
vt 1.9726489 0.60452515
vt 1.9726489 0.85453266
vt 1.0998507 0.84477764
vt 1.1162558 0.6739328
vt 1.1287982 0.73201305
vt 1.1162558 0.6739328
vt 1.0247083 0.73856384
vt 1.1162558 0.6739328
vt -0.03199895 1.804455
vt -0.88612485 1.7657411
vt -0.036764927 1.7423036
vt -0.880817 1.834961
vt -0.87634045 1.7270591
vt -0.035088237 1.6663558
vt -0.8752482 1.6685245
vt -0.87317735 1.6105423
vt -0.033142865 1.6176884
vt -0.8804111 1.5638416
vt -0.030798981 1.5554011
vt -0.9774256 1.6448392
vt -0.9593092 1.7340829
vt -0.87634045 1.7270591
vt -0.87317735 1.6105423
vt 1.9845512 0.52985775
vt 1.1160908 0.4797281
vt 1.9807212 0.46547222
vt 1.1117799 0.53938746
vt 1.1146052 0.406685
vt 1.9830577 0.3869068
vt 1.1312995 0.34599763
vt 1.9850128 0.33654952
vt 1.1146433 0.28083336
vt 1.9874218 0.27209908
vt 1.024734 0.48036063
vt 1.1160908 0.4797281
vt 1.1146052 0.406685
vt 1.0352132 0.39579272
vt 1.9820722 0.65356994
vt 0.99889344 0.66274226
vt 1.9735537 0.57928723
vt 1.005947 0.72472185
vt 0.9996699 0.59672767
vt 1.9671605 0.5212343
vt 1.9905336 0.727857
vt 1.0202045 0.7710539
vt 1.0000994 0.5205029
vt 1.0008696 0.44220388
vt 1.9697332 0.46285725
vt 0.8917366 0.5783775
vt 1.0000994 0.5205029
vt 0.9996699 0.59672767
vt 0.9265728 0.631828
vt 0.99889344 0.66274226

g FenceB
s 1
usemtl FenceB
f 3/3/3 2/2/2 1/1/1 
f 2/2/2 4/4/4 1/1/1 
f 1/1/1 4/4/4 5/5/5 
f 5/5/5 6/6/6 1/1/1 
f 4/4/4 7/7/7 5/5/5 
f 3/3/3 8/8/8 2/2/2 
f 9/9/9 2/2/2 8/8/8 
f 10/10/10 2/2/2 9/9/9 
f 9/9/9 11/11/11 10/10/10 
f 11/11/11 9/9/9 12/12/12 
f 8/8/8 12/12/12 9/9/9 
f 15/15/15 14/14/14 13/13/13 
f 14/14/14 16/16/16 13/13/13 
f 16/16/16 14/14/14 17/17/17 
f 20/20/20 19/19/19 18/18/18 
f 19/19/19 21/21/21 18/18/18 
f 22/22/22 19/19/19 20/20/20 
f 23/23/23 22/22/22 20/20/20 
f 24/24/24 22/22/22 23/23/23 
f 25/25/25 24/24/24 23/23/23 
f 18/18/18 21/21/21 26/26/26 
f 21/21/21 27/27/27 26/26/26 
f 30/30/30 29/29/29 28/28/28 
f 29/29/29 31/31/31 28/28/28 
f 34/34/34 33/33/33 32/32/32 
f 33/33/33 35/35/35 32/32/32 
f 36/36/36 33/33/33 34/34/34 
f 37/37/37 36/36/36 34/34/34 
f 32/32/32 35/35/35 38/38/38 
f 35/35/35 39/39/39 38/38/38 
f 40/40/40 36/36/36 37/37/37 
f 40/40/40 33/33/33 36/36/36 
f 41/41/41 40/40/40 37/37/37 
f 42/42/42 41/41/41 37/37/37 
f 33/33/33 40/40/40 43/43/43 
f 40/40/40 44/44/44 43/43/43 
f 47/47/47 46/46/46 45/45/45 
f 46/46/46 48/48/48 45/45/45 
f 49/49/49 46/46/46 47/47/47 
f 50/50/50 49/49/49 47/47/47 
f 51/51/51 49/49/49 50/50/50 
f 52/52/52 51/51/51 50/50/50 
f 53/53/53 52/52/52 50/50/50 
f 54/54/54 52/52/52 53/53/53 
f 55/55/55 54/54/54 53/53/53 
f 58/58/58 57/57/57 56/56/56 
f 56/56/56 59/59/59 58/58/58 
f 56/56/56 60/60/60 59/59/59 
f 63/63/63 62/62/62 61/61/61 
f 62/62/62 64/64/64 61/61/61 
f 65/65/65 62/62/62 63/63/63 
f 66/66/66 65/65/65 63/63/63 
f 61/61/61 64/64/64 67/67/67 
f 64/64/64 68/68/68 67/67/67 
f 67/67/67 68/68/68 69/69/69 
f 68/68/68 70/70/70 69/69/69 
f 71/71/71 64/64/64 62/62/62 
f 72/72/72 71/71/71 62/62/62 
f 72/72/72 62/62/62 65/65/65 
f 73/73/73 72/72/72 65/65/65 
f 74/74/74 70/70/70 68/68/68 
f 75/75/75 74/74/74 68/68/68 
f 71/71/71 75/75/75 64/64/64 
f 75/75/75 68/68/68 64/64/64 
f 74/74/74 75/75/75 76/76/76 
f 77/77/77 74/74/74 76/76/76 
f 80/80/80 79/79/79 78/78/78 
f 79/79/79 81/81/81 78/78/78 
f 82/82/82 79/79/79 80/80/80 
f 83/83/83 82/82/82 80/80/80 
f 84/84/84 82/82/82 83/83/83 
f 85/85/85 84/84/84 83/83/83 
f 78/78/78 81/81/81 86/86/86 
f 81/81/81 87/87/87 86/86/86 
f 90/90/90 89/89/89 88/88/88 
f 89/89/89 91/91/91 88/88/88 
f 94/94/94 93/93/93 92/92/92 
f 93/93/93 95/95/95 92/92/92 
f 92/92/92 95/95/95 96/96/96 
f 95/95/95 97/97/97 96/96/96 
f 96/96/96 97/97/97 98/98/98 
f 97/97/97 99/99/99 98/98/98 
f 98/98/98 99/99/99 100/100/100 
f 99/99/99 101/101/101 100/100/100 
f 97/97/97 102/102/102 99/99/99 
f 103/103/103 99/99/99 102/102/102 
f 106/106/106 105/105/105 104/104/104 
f 105/105/105 107/107/107 104/104/104 
f 108/108/108 105/105/105 106/106/106 
f 109/109/109 108/108/108 106/106/106 
f 110/110/110 108/108/108 109/109/109 
f 111/111/111 110/110/110 109/109/109 
f 104/104/104 107/107/107 112/112/112 
f 107/107/107 113/113/113 112/112/112 
f 114/114/114 108/108/108 110/110/110 
f 114/114/114 115/115/115 108/108/108 
f 115/115/115 105/105/105 108/108/108 
f 115/115/115 107/107/107 105/105/105 
f 115/115/115 116/116/116 107/107/107 
f 118/118/118 117/117/117 107/107/107 
f 121/121/121 120/120/120 119/119/119 
f 120/120/120 122/122/122 119/119/119 
f 123/123/123 120/120/120 121/121/121 
f 124/124/124 123/123/123 121/121/121 
f 125/125/125 123/123/123 124/124/124 
f 126/126/126 125/125/125 124/124/124 
f 127/127/127 126/126/126 124/124/124 
f 128/128/128 126/126/126 127/127/127 
f 129/129/129 128/128/128 127/127/127 
f 126/126/126 130/130/130 123/123/123 
f 131/131/131 123/123/123 130/130/130 
f 125/125/125 133/133/133 132/132/132 
f 136/136/136 135/135/135 134/134/134 
f 135/135/135 137/137/137 134/134/134 
f 138/138/138 135/135/135 136/136/136 
f 139/139/139 138/138/138 136/136/136 
f 140/140/140 138/138/138 139/139/139 
f 141/141/141 140/140/140 139/139/139 
f 142/142/142 140/140/140 141/141/141 
f 143/143/143 142/142/142 141/141/141 
f 145/145/145 138/138/138 144/144/144 
f 147/147/147 144/144/144 146/146/146 
f 150/150/150 149/149/149 148/148/148 
f 149/149/149 151/151/151 148/148/148 
f 152/152/152 149/149/149 150/150/150 
f 153/153/153 152/152/152 150/150/150 
f 148/148/148 151/151/151 154/154/154 
f 151/151/151 155/155/155 154/154/154 
f 156/156/156 152/152/152 153/153/153 
f 157/157/157 156/156/156 153/153/153 
f 158/158/158 157/157/157 153/153/153 
f 161/161/161 160/160/160 159/159/159 
f 159/159/159 162/162/162 161/161/161 
f 162/162/162 163/163/163 161/161/161 

