# Created by DisUnity v0.3.4
v 1.0464394 0.08979088 0.0011021714
v 1.1513093 -0.18451278 0.9600932
v 1.1155922 0.014347444 -0.015776724
v 1.0818288 -0.114800975 0.99282515
v 1.1302762 0.15862077 0.0036180776
v 1.1590647 -0.048777636 1.0161623
v 1.177765 0.09792292 0.004793443
v 1.2133512 -0.10324607 0.990589
v 1.2117267 -0.13189669 0.97627735
v 1.1155922 0.014347444 -0.015776724
v 1.1513093 -0.18451278 0.9600932
v 1.2117267 -0.13189669 0.97627735
v 1.1513093 -0.18451278 0.9600932
v 1.0818288 -0.114800975 0.99282515
v 1.1590647 -0.048777636 1.0161623
v 1.2133512 -0.10324607 0.990589
v 1.2117267 -0.13189669 0.97627735
v 0.83320576 0.21517037 0.0020248299
v 0.7957711 0.11843738 0.0020249893
v 0.7957711 0.11843738 1.0262253
v 0.8281647 0.18948857 1.0262253
v 0.83320737 0.21517093 0.3392089
v 0.69903713 0.15587243 0.0020248299
v 0.6990394 0.15587294 0.9322841
v 0.7502487 0.23523986 1.0262253
v 0.76503664 0.25240868 0.9841342
v 0.76006156 0.26250023 0.5483778
v 0.83320737 0.21517093 0.3392089
v 0.7248604 0.26128882 0.0020248299
v 0.83320576 0.21517037 0.0020248299
v 0.8281647 0.18948857 1.0262253
v 0.7502487 0.23523986 1.0262253
v 0.7957711 0.11843738 1.0262253
v 0.7502487 0.23523986 1.0262253
v 0.8281647 0.18948857 1.0262253
v 0.63414013 -0.055667367 0.3392089
v 0.6341389 -0.05566666 0.0020248299
v 0.532819 -0.07787363 0.0020248299
v 0.532819 -0.077873 1.0262253
v 0.5930241 -0.064677656 1.0262253
v 0.51061255 0.02344499 0.0020246704
v 0.5106132 0.02344559 0.93228394
v 0.60556495 0.035711527 0.54837763
v 0.61193186 0.045652635 0.9841341
v 0.63414013 -0.055667367 0.3392089
v 0.58814186 0.02554552 1.0262253
v 0.532819 -0.077873 1.0262253
v 0.61193186 0.045652 0.0020248299
v 0.6341389 -0.05566666 0.0020248299
v 0.5930241 -0.064677656 1.0262253
v 0.58814186 0.02554552 1.0262253
v 0.532819 -0.077873 1.0262253
v 0.58814186 0.02554552 1.0262253
v 0.5930241 -0.064677656 1.0262253
v 0.37615293 -0.123286106 -0.004685051
v 0.3591039 -0.26123318 1.0104934
v 0.4430702 -0.09861203 0.34080803
v 0.29690132 -0.05721859 0.0059471247
v 0.27985132 -0.18023975 0.92837757
v 0.34011498 -0.14696306 1.0288818
v 0.34676886 -0.11023234 0.99215996
v 0.36481187 -0.07739356 0.55608225
v 0.4430702 -0.09861203 0.34080803
v 0.36381942 0.021027846 0.018538455
v 0.44307032 -0.045040913 0.007906917
v 0.44307032 -0.045040913 0.007906917
v 0.39886564 -0.2147376 1.0179752
v 0.39886564 -0.2147376 1.0179752
v 0.34676886 -0.11023234 0.99215996
v 0.34011498 -0.14696306 1.0288818
v 0.3591039 -0.26123318 1.0104934
v 0.23266721 -0.038073875 0.0020248299
v 0.21921171 0.06477417 0.3392089
v 0.21921171 0.06477417 0.0020246704
v 0.21342233 -0.0026868205 0.9837981
v 0.12982011 -0.05152974 0.0020248299
v 0.106919885 -0.04156958 0.90176636
v 0.094980344 0.07182316 0.92289996
v 0.114822544 0.059244312 0.96969634
v 0.21342233 -0.0026868205 0.9837981
v 0.11636362 0.051317725 0.0020248299
v 0.21921171 0.06477417 0.0020246704
v 0.21921171 0.06477417 0.3392089
v 0.20507398 0.055973336 0.96683204
v 0.114822544 0.059244312 0.96969634
v 0.23266721 -0.038073875 0.0020248299
v 0.20507398 0.055973336 0.96683204
v 0.21342233 -0.0026868205 0.9837981
v 0.20507398 0.055973336 0.96683204
v 0.033846498 -0.04124756 0.005845245
v 0.04169309 -0.09035986 0.8020902
v -0.043782957 0.025942883 0.020598374
v 0.08647874 -0.13189237 0.81034136
v -0.062106334 -0.16120604 0.8065312
v -0.112574756 -0.049879618 0.0039498652
v -0.034946296 -0.11707064 -0.010803264
v 0.021296253 -0.23260953 0.7692159
v -0.112574756 -0.049879618 0.0039498652
v -0.062106334 -0.16120604 0.8065312
v -0.03887733 -0.16779879 0.85299444
v -0.03887733 -0.16779879 0.85299444
v 0.08647874 -0.13189237 0.81034136
v 0.04169309 -0.09035986 0.8020902
v -0.23826826 -0.03861478 -0.0056644687
v -0.20546271 -0.103563525 1.0243483
v -0.17801522 -0.049768865 1.012042
v -0.17943478 0.017782712 0.3375699
v -0.18840125 0.051990975 0.0022453303
v -0.32917702 0.010767453 0.0018043293
v -0.31651273 -0.06417091 0.9488492
v -0.25863433 0.03188587 0.97835207
v -0.24881034 0.0054026325 1.0224437
v -0.17801522 -0.049768865 1.012042
v -0.17943478 0.017782712 0.3375699
v -0.18840125 0.051990975 0.0022453303
v -0.2793097 0.10137319 0.009713809
v -0.20546271 -0.103563525 1.0243483
v -0.24881034 0.0054026325 1.0224437
v -0.20546271 -0.103563525 1.0243483
v -0.24881034 0.0054026325 1.0224437
v -0.17801522 -0.049768865 1.012042
v -0.32237586 0.05371536 0.004496891
v -0.29479894 0.13929626 0.9917731
v -0.30464625 0.15538205 -0.0059034643
v -0.30382228 0.08275613 1.0145879
v -0.395703 0.18521503 0.9694479
v -0.4068074 0.17329544 -0.0049490775
v -0.42453805 0.0716269 0.0054515963
v -0.41745093 0.07606716 1.0021911
v -0.4068074 0.17329544 -0.0049490775
v -0.37989035 0.16960989 0.99394375
v -0.395703 0.18521503 0.9694479
v -0.37989035 0.16960989 0.99394375
v -0.30382228 0.08275613 1.0145879
v -0.41745093 0.07606716 1.0021911
v -0.37989035 0.16960989 0.99394375
v -0.29479894 0.13929626 0.9917731
v -0.62561774 0.109943025 -0.006088251
v -0.6635438 -0.017660603 0.9906604
v -0.69666374 0.034522086 -0.0047051404
v -0.59249836 0.05775973 0.9858579
v -0.6055264 -0.07326333 0.9757312
v -0.6059207 -0.020189015 -0.0066504236
v -0.5735546 -0.072329916 0.97343427
v -0.52991354 -0.013583027 0.9441497
v -0.55041265 0.038736437 -0.0077310833
v -0.62561774 0.109943025 -0.006088251
v -0.59249836 0.05775973 0.9858579
v -0.6055264 -0.07326333 0.9757312
v -0.59249836 0.05775973 0.9858579
v -0.59249836 0.05775973 0.9858579
v -0.6635438 -0.017660603 0.9906604
v -0.7001289 -0.066542804 -0.005477769
v -0.73832417 -0.15804604 1.009239
v -0.71368253 0.034611683 0.013032478
v -0.73191524 -0.25062668 1.0004199
v -0.8479731 -0.13438757 0.9677711
v -0.8165115 0.02147673 0.009526791
v -0.80295885 -0.079678975 -0.008982819
v -0.83570635 -0.24208122 0.9265513
v -0.82860345 -0.1552647 1.0117137
v -0.82860345 -0.1552647 1.0117137
v -0.73191524 -0.25062668 1.0004199
v -0.73832417 -0.15804604 1.009239
v -0.82860345 -0.1552647 1.0117137
v -0.83570635 -0.24208122 0.9265513
v -0.80295885 -0.079678975 -0.008982819
v -0.8479731 -0.13438757 0.9677711
v -0.8165115 0.02147673 0.009526791
v -0.977914 0.028218335 0.0013929834
v -1.0792304 0.006062263 9.016004E-4
v -1.1081357 -0.053681154 1.0205641
v -0.9964419 0.009065778 0.3364521
v -1.0479326 -0.04051445 1.0215582
v -1.1014475 0.107202634 0.0026569953
v -1.1300316 0.053073037 1.0001613
v -1.0528243 0.049548298 1.026932
v -1.0001304 0.1293593 0.003148378
v -1.0528243 0.049548298 1.026932
v -0.9964419 0.009065778 0.3364521
v -0.977914 0.028218335 0.0013929834
v -1.0528243 0.049548298 1.026932
v -1.1081357 -0.053681154 1.0205641
v -1.0479326 -0.04051445 1.0215582
vn -0.9953217 0.08200476 0.051088218
vn 0.026031494 -0.9444027 0.32775882
vn -0.00977371 -0.97827345 -0.20708789
vn -0.7865306 -0.11801454 0.60617006
vn 0.038584445 0.9791475 0.19945303
vn 0.09351067 0.5960869 0.797456
vn 0.99836797 0.048515473 -0.030128285
vn 0.76673645 0.041176453 0.64064014
vn 0.7559533 -0.47515413 0.4502923
vn -0.00977371 -0.97827345 -0.20708789
vn 0.026031494 -0.9444027 0.32775882
vn 0.7559533 -0.47515413 0.4502923
vn 0.026031494 -0.9444027 0.32775882
vn -0.7865306 -0.11801454 0.60617006
vn 0.09351067 0.5960869 0.797456
vn 0.76673645 0.041176453 0.64064014
vn 0.7559533 -0.47515413 0.4502923
vn 0.9341967 0.3564637 -0.014495945
vn 0.39686042 -0.9178774 -0.0017057566
vn 0.17715421 -0.7404452 0.6483497
vn 0.77526796 0.17979307 0.605503
vn 0.9364896 0.35052043 -0.01108328
vn -0.92532337 -0.3788598 0.015555217
vn -0.93603146 -0.30763632 0.17089494
vn -0.42508316 0.5312361 0.7328659
vn -0.074148804 0.983658 0.1640699
vn -0.25496107 0.9667021 0.021951888
vn 0.9364896 0.35052043 -0.01108328
vn -0.36179134 0.93225557 0.0025727195
vn 0.9341967 0.3564637 -0.014495945
vn 0.77526796 0.17979307 0.605503
vn -0.42508316 0.5312361 0.7328659
vn 0.17715421 -0.7404452 0.6483497
vn -0.42508316 0.5312361 0.7328659
vn 0.77526796 0.17979307 0.605503
vn 0.85237974 -0.5228769 0.006968349
vn 0.8505013 -0.5259264 0.006999625
vn -0.539329 -0.84209514 0.0
vn -0.51435816 -0.5864208 0.6257366
vn 0.57703805 -0.53558284 0.61658597
vn -0.8274096 0.56158227 0.0043213866
vn -0.8285622 0.5430613 0.1362689
vn 0.5085051 0.86103064 -0.0069823144
vn 0.6596579 0.7315024 0.17249839
vn 0.85237974 -0.5228769 0.006968349
vn 0.16977844 0.60723966 0.7761671
vn -0.51435816 -0.5864208 0.6257366
vn 0.54837245 0.8361663 0.010648661
vn 0.8505013 -0.5259264 0.006999625
vn 0.57703805 -0.53558284 0.61658597
vn 0.16977844 0.60723966 0.7761671
vn -0.51435816 -0.5864208 0.6257366
vn 0.16977844 0.60723966 0.7761671
vn 0.57703805 -0.53558284 0.61658597
vn 0.07997307 -0.98561585 -0.14888111
vn -0.06046837 -0.8600613 0.50659454
vn 0.9980989 0.051131766 0.03441251
vn -0.99668485 -0.081358775 2.1774574E-4
vn -0.99287295 -0.063672826 0.10074284
vn -0.22959931 0.47548464 0.8492341
vn 0.08853512 0.9554997 0.28139287
vn -0.050653856 0.9922964 0.11305779
vn 0.9980989 0.051131766 0.03441251
vn -0.09980684 0.97945 0.17526093
vn 0.99498016 0.09744624 0.022774527
vn 0.99498016 0.09744624 0.022774527
vn 0.7762916 -0.16211532 0.6091715
vn 0.7762916 -0.16211532 0.6091715
vn 0.08853512 0.9554997 0.28139287
vn -0.22959931 0.47548464 0.8492341
vn -0.06046837 -0.8600613 0.50659454
vn 0.82341695 -0.5671095 0.019268088
vn 0.656204 0.75458354 5.7656787E-5
vn 0.631723 0.77510077 -0.01203395
vn 0.5243496 -0.43336803 0.7329732
vn -0.56253 -0.8267601 0.005275456
vn -0.56598043 -0.787105 0.24521789
vn -0.7170776 0.6666744 0.20333445
vn -0.50275594 0.39470366 0.7690549
vn 0.5243496 -0.43336803 0.7329732
vn -0.7710172 0.63616717 -0.02870063
vn 0.631723 0.77510077 -0.01203395
vn 0.656204 0.75458354 5.7656787E-5
vn 0.57234865 0.6499676 0.4999592
vn -0.50275594 0.39470366 0.7690549
vn 0.85819453 -0.5129573 0.019415654
vn 0.57234865 0.6499676 0.4999592
vn 0.5243496 -0.43336803 0.7329732
vn 0.57234865 0.6499676 0.4999592
vn 0.99474525 0.078421324 -0.06581835
vn 0.07642402 0.8783012 0.47196022
vn -0.029842278 0.98997283 0.13806985
vn 0.84856945 0.044421624 0.52721584
vn -0.98616415 0.023866143 0.1640446
vn -0.996185 -0.04110411 0.07697937
vn 0.07273044 -0.9881394 -0.13524337
vn 0.14978611 -0.97801787 0.14506912
vn -0.996185 -0.04110411 0.07697937
vn -0.98616415 0.023866143 0.1640446
vn -0.54075027 -0.11334216 0.83351225
vn -0.54075027 -0.11334216 0.83351225
vn 0.84856945 0.044421624 0.52721584
vn 0.07642402 0.8783012 0.47196022
vn 0.31258237 -0.94674975 -0.077181995
vn 0.17484769 -0.7428905 0.6461749
vn 0.8610491 0.12010062 0.49413592
vn 0.9713968 0.2374503 -0.0023527425
vn 0.97000766 0.24305569 -0.0030045854
vn -0.9418923 -0.33589077 -0.004030757
vn -0.9146175 -0.32728192 0.23740554
vn -0.17878671 0.9354925 0.3047771
vn -0.15207537 0.53375894 0.83185005
vn 0.8610491 0.12010062 0.49413592
vn 0.9713968 0.2374503 -0.0023527425
vn 0.97000766 0.24305569 -0.0030045854
vn -0.24807605 0.9656263 0.07761542
vn 0.17484769 -0.7428905 0.6461749
vn -0.15207537 0.53375894 0.83185005
vn 0.17484769 -0.7428905 0.6461749
vn -0.15207537 0.53375894 0.83185005
vn 0.8610491 0.12010062 0.49413592
vn 0.63799125 -0.77003926 0.002592305
vn 0.7401743 0.49132845 0.4590625
vn 0.83533376 0.54966944 -0.009001678
vn 0.48246944 -0.5126648 0.7102099
vn -0.4999659 0.8614517 0.08907947
vn -0.48501348 0.8744302 0.011569106
vn -0.80677634 -0.59027725 0.026166273
vn -0.700899 -0.5184091 0.4898905
vn -0.48501348 0.8744302 0.011569106
vn -0.3193474 0.7012972 0.63733774
vn -0.4999659 0.8614517 0.08907947
vn -0.3193474 0.7012972 0.63733774
vn 0.48246944 -0.5126648 0.7102099
vn -0.700899 -0.5184091 0.4898905
vn -0.3193474 0.7012972 0.63733774
vn 0.7401743 0.49132845 0.4590625
vn -0.00816324 0.9983798 0.0563136
vn -0.72659373 -0.11500218 0.67737436
vn -0.99774593 -0.06328974 0.022300433
vn 0.077967584 0.7750541 0.62706643
vn -0.06957102 -0.82000285 0.5681154
vn 0.11282023 -0.99177694 -0.060415547
vn 0.5098935 -0.6816476 0.5247526
vn 0.931178 -5.078379E-4 0.36456466
vn 0.99847215 0.049323075 -0.024912603
vn -0.00816324 0.9983798 0.0563136
vn 0.077967584 0.7750541 0.62706643
vn -0.06957102 -0.82000285 0.5681154
vn 0.5667847 0.2993199 0.7675694
vn 0.077967584 0.7750541 0.62706643
vn -0.72659373 -0.11500218 0.67737436
vn 0.773792 -0.6271365 -0.08913913
vn 0.54623497 0.4982342 0.67334235
vn 0.6755793 0.72218543 0.14846139
vn 0.5017557 -0.65982485 0.55935
vn -0.7351684 0.65933 0.15751658
vn -0.7444176 0.65999854 0.10121504
vn -0.6227726 -0.7678526 -0.15018855
vn -0.6418068 -0.7637609 0.06894364
vn -0.5749127 0.3310182 0.7482662
vn -0.5749127 0.3310182 0.7482662
vn 0.5017557 -0.65982485 0.55935
vn 0.54623497 0.4982342 0.67334235
vn -0.5749127 0.3310182 0.7482662
vn -0.6418068 -0.7637609 0.06894364
vn -0.6227726 -0.7678526 -0.15018855
vn -0.7351684 0.65933 0.15751658
vn -0.7444176 0.65999854 0.10121504
vn 0.86042494 -0.5093811 0.0141329
vn -0.5335289 -0.8433648 -0.06389547
vn -0.46616524 -0.6876653 0.5566026
vn 0.846921 -0.53156954 0.012595121
vn 0.6250003 -0.5278414 0.5751158
vn -0.7992491 0.60074407 0.017534804
vn -0.7582045 0.5178224 0.39621446
vn 0.4161685 0.57400084 0.705214
vn 0.58237594 0.8083617 0.085963175
vn 0.4161685 0.57400084 0.705214
vn 0.846921 -0.53156954 0.012595121
vn 0.86042494 -0.5093811 0.0141329
vn 0.4161685 0.57400084 0.705214
vn -0.46616524 -0.6876653 0.5566026
vn 0.6250003 -0.5278414 0.5751158
vt 1.0453467 0.5466288
vt 1.8722115 0.61728376
vt 1.0375161 0.60984254
vt 1.9010744 0.5594357
vt 1.0478218 0.4840123
vt 1.9105892 0.48498607
vt 1.0394003 0.43451136
vt 1.8905754 0.440727
vt 1.8876314 0.4142542
vt 1.0334198 0.35814017
vt 1.8838925 0.36460942
vt 1.9246545 0.29842663
vt 1.9166031 0.36640155
vt 1.9010744 0.5594357
vt 1.9105892 0.48498607
vt 1.9092431 0.2793584
vt 1.9246545 0.29842663
vt -0.001370651 0.36110556
vt -0.0048579145 0.43140686
vt -0.95868474 0.39145684
vt -0.9165762 0.32320213
vt -0.3024383 0.34389544
vt -0.008345142 0.50170755
vt -0.8417055 0.45644522
vt -0.9568127 0.5323266
vt -0.89011973 0.5594797
vt -0.5006977 0.56863284
vt -0.3146511 0.64206076
vt -0.0116776135 0.5651938
vt -0.013204653 0.6477119
vt -0.9291885 0.65113306
vt -0.9568127 0.5323266
vt -0.95868474 0.39145684
vt -0.9568127 0.5323266
vt -1.0079063 0.45474625
vt -0.32166076 1.6482198
vt 0.0029112697 1.6571485
vt 9.6803904E-4 1.7277483
vt -0.98492604 1.7064993
vt -0.9837615 1.6586779
vt -0.0014772415 1.7855071
vt -0.8966543 1.7735361
vt -0.52805716 1.8432924
vt -0.9469976 1.8414559
vt -0.32667768 1.9139194
vt -0.98987466 1.8307296
vt -0.98492604 1.7064993
vt -0.0019826293 1.8432924
vt -0.0019826293 1.9139194
vt -0.98899025 1.9444163
vt -0.98987466 1.8307296
vt -0.98492604 1.7064993
vt -0.98987466 1.8307296
vt -1.0317755 1.7489107
vt 0.029779647 1.7877005
vt 0.8967397 1.7251068
vt 0.31991646 1.858523
vt 0.026364539 1.7019216
vt 0.8136718 1.6422354
vt 0.8894565 1.5739728
vt 0.85124564 1.5523525
vt 0.48183748 1.5710775
vt 0.29893705 1.502807
vt 0.02024052 1.6163248
vt 0.014061663 1.530733
vt 0.027962897 1.8556775
vt 0.8992212 1.7733074
vt 0.8992212 1.7733074
vt 0.8736632 1.9032725
vt 0.91177535 1.8769528
vt 0.94869924 1.7515155
vt 1.9827741 1.5518979
vt 1.6406579 1.496046
vt 1.4516187 1.5543078
vt 0.9819719 1.6297965
vt 1.9900411 1.6905851
vt 1.085599 1.747499
vt 1.0725391 1.8402537
vt 1.0284765 1.8413402
vt 0.9819719 1.6297965
vt 1.9950069 1.7640972
vt 2.0035856 1.8566815
vt 1.6665962 1.8909345
vt 1.0387423 1.9488513
vt 1.0284765 1.8413402
vt 1.9827741 1.5518979
vt 1.0118511 1.5446873
vt 0.9819719 1.6297965
vt 0.9512214 1.7939336
vt -0.052942872 1.3933613
vt -0.9759181 1.3309276
vt -0.05937624 1.3095772
vt -0.96658707 1.3770618
vt -0.97923243 1.2087736
vt -0.051221967 1.2257714
vt -0.044891 1.477104
vt -0.9481032 1.5043161
vt -0.0405401 1.5959466
vt -0.9706236 1.6299357
vt -1.0960282 1.5389504
vt -1.0874374 1.2804229
vt -0.96658707 1.3770618
vt -0.9759181 1.3309276
vt 1.9581935 1.3337983
vt 1.072478 1.350574
vt 1.09975 1.2849475
vt 1.6729684 1.2717564
vt 1.9581935 1.2717564
vt 1.9581935 1.395841
vt 1.1538138 1.4022129
vt 1.1377094 1.4710839
vt 1.0991068 1.4824115
vt 1.1042981 1.5547297
vt 1.6771321 1.5330805
vt 1.9620464 1.5198501
vt 1.9590752 1.4578761
vt 1.072478 1.350574
vt 1.0991068 1.4824115
vt 1.072478 1.350574
vt 1.0991068 1.4824115
vt 1.03806 1.426436
vt 1.9830781 0.5588536
vt 1.003972 0.49591964
vt 1.9881268 0.48776037
vt 1.0166103 0.5429058
vt 1.0479703 0.40829182
vt 1.9931104 0.416668
vt 1.9784212 0.6299724
vt 1.0123154 0.6385654
vt 1.9836911 0.70104504
vt 1.0161873 0.71687865
vt 1.0385857 0.7131535
vt 1.0051947 0.4306425
vt 1.0166103 0.5429058
vt 1.0123154 0.6385654
vt 0.91965026 0.6109786
vt 1.003972 0.49591964
vt -0.014257371 1.7957401
vt -1.0012157 1.7332029
vt -0.015133262 1.7230523
vt -0.9971243 1.8056778
vt -0.98907304 1.6768043
vt -0.017262697 1.6348219
vt -1.0030804 1.6412185
vt -0.9586233 1.5927156
vt -0.017696261 1.5780299
vt -0.010978699 1.5056614
vt -0.9938474 1.5154703
vt -1.0484169 1.6284623
vt -0.9953707 1.5121294
vt -0.99689555 1.5087879
vt -1.0869436 1.5580916
vt 1.9904627 1.5854872
vt 1.0119804 1.5298027
vt 1.9903241 1.5096282
vt 1.0047573 1.5975276
vt 1.0514005 1.4350301
vt 1.9879693 1.4338044
vt 1.9900101 1.6562058
vt 1.0736722 1.6736723
vt 1.002097 1.7433234
vt 0.9350399 1.4750108
vt 1.0047573 1.5975276
vt 0.9403144 1.6597384
vt 0.99 0.87148005
vt 0.9258544 0.96970177
vt 0.011285551 0.99
vt 0.94478816 0.8610642
vt 0.01 0.891852
vt 1.0132325 0.6928613
vt 1.0180516 0.6224637
vt 1.9998925 0.66814816
vt 1.3354654 0.7014667
vt 1.9958012 0.70366955
vt 1.0159547 0.5519736
vt 1.9726288 0.58174753
vt 2.022887 0.54739213
vt 1.0156851 0.48151743
vt 1.9921162 0.77398384
vt 1.3426816 0.43003917
vt 1.0206571 0.41128516
vt 2.022887 0.54739213
vt 1.9998925 0.66814816
vt 2.0580494 0.6558348

g FenceC
s 1
usemtl FenceC
f 3/3/3 2/2/2 1/1/1 
f 2/2/2 4/4/4 1/1/1 
f 1/1/1 4/4/4 5/5/5 
f 4/4/4 6/6/6 5/5/5 
f 5/5/5 6/6/6 7/7/7 
f 6/6/6 8/8/8 7/7/7 
f 8/8/8 9/9/9 7/7/7 
f 7/7/7 9/9/9 10/10/10 
f 9/9/9 11/11/11 10/10/10 
f 6/6/6 13/13/13 12/12/12 
f 6/6/6 14/14/14 13/13/13 
f 17/17/17 16/16/16 15/15/15 
f 20/20/20 19/19/19 18/18/18 
f 18/18/18 21/21/21 20/20/20 
f 18/18/18 22/22/22 21/21/21 
f 19/19/19 20/20/20 23/23/23 
f 20/20/20 24/24/24 23/23/23 
f 25/25/25 24/24/24 20/20/20 
f 25/25/25 26/26/26 24/24/24 
f 26/26/26 27/27/27 24/24/24 
f 23/23/23 24/24/24 27/27/27 
f 26/26/26 28/28/28 27/27/27 
f 29/29/29 27/27/27 28/28/28 
f 29/29/29 23/23/23 27/27/27 
f 30/30/30 29/29/29 28/28/28 
f 28/28/28 26/26/26 31/31/31 
f 32/32/32 31/31/31 26/26/26 
f 35/35/35 34/34/34 33/33/33 
f 38/38/38 37/37/37 36/36/36 
f 36/36/36 39/39/39 38/38/38 
f 36/36/36 40/40/40 39/39/39 
f 38/38/38 39/39/39 41/41/41 
f 39/39/39 42/42/42 41/41/41 
f 41/41/41 42/42/42 43/43/43 
f 44/44/44 43/43/43 42/42/42 
f 44/44/44 45/45/45 43/43/43 
f 46/46/46 44/44/44 42/42/42 
f 46/46/46 42/42/42 47/47/47 
f 48/48/48 43/43/43 45/45/45 
f 48/48/48 41/41/41 43/43/43 
f 49/49/49 48/48/48 45/45/45 
f 45/45/45 44/44/44 50/50/50 
f 51/51/51 50/50/50 44/44/44 
f 54/54/54 53/53/53 52/52/52 
f 57/57/57 56/56/56 55/55/55 
f 55/55/55 56/56/56 58/58/58 
f 56/56/56 59/59/59 58/58/58 
f 60/60/60 59/59/59 56/56/56 
f 60/60/60 61/61/61 59/59/59 
f 61/61/61 62/62/62 59/59/59 
f 58/58/58 59/59/59 62/62/62 
f 61/61/61 63/63/63 62/62/62 
f 64/64/64 62/62/62 63/63/63 
f 64/64/64 58/58/58 62/62/62 
f 65/65/65 64/64/64 63/63/63 
f 66/66/66 57/57/57 55/55/55 
f 67/67/67 56/56/56 57/57/57 
f 57/57/57 69/69/69 68/68/68 
f 70/70/70 68/68/68 69/69/69 
f 68/68/68 70/70/70 71/71/71 
f 74/74/74 73/73/73 72/72/72 
f 76/76/76 72/72/72 75/75/75 
f 75/75/75 77/77/77 76/76/76 
f 76/76/76 77/77/77 78/78/78 
f 79/79/79 78/78/78 77/77/77 
f 79/79/79 77/77/77 80/80/80 
f 81/81/81 76/76/76 78/78/78 
f 82/82/82 81/81/81 78/78/78 
f 83/83/83 82/82/82 78/78/78 
f 83/83/83 78/78/78 84/84/84 
f 85/85/85 84/84/84 78/78/78 
f 75/75/75 86/86/86 73/73/73 
f 87/87/87 75/75/75 73/73/73 
f 89/89/89 79/79/79 88/88/88 
f 92/92/92 91/91/91 90/90/90 
f 91/91/91 93/93/93 90/90/90 
f 91/91/91 92/92/92 94/94/94 
f 92/92/92 95/95/95 94/94/94 
f 90/90/90 93/93/93 96/96/96 
f 93/93/93 97/97/97 96/96/96 
f 98/98/98 96/96/96 97/97/97 
f 97/97/97 99/99/99 98/98/98 
f 97/97/97 100/100/100 99/99/99 
f 100/100/100 97/97/97 93/93/93 
f 101/101/101 91/91/91 94/94/94 
f 103/103/103 100/100/100 102/102/102 
f 106/106/106 105/105/105 104/104/104 
f 104/104/104 107/107/107 106/106/106 
f 104/104/104 108/108/108 107/107/107 
f 104/104/104 105/105/105 109/109/109 
f 105/105/105 110/110/110 109/109/109 
f 109/109/109 110/110/110 111/111/111 
f 112/112/112 111/111/111 110/110/110 
f 112/112/112 113/113/113 111/111/111 
f 114/114/114 111/111/111 113/113/113 
f 114/114/114 115/115/115 111/111/111 
f 115/115/115 116/116/116 111/111/111 
f 116/116/116 109/109/109 111/111/111 
f 118/118/118 110/110/110 117/117/117 
f 121/121/121 120/120/120 119/119/119 
f 124/124/124 123/123/123 122/122/122 
f 123/123/123 125/125/125 122/122/122 
f 123/123/123 124/124/124 126/126/126 
f 124/124/124 127/127/127 126/126/126 
f 122/122/122 125/125/125 128/128/128 
f 125/125/125 129/129/129 128/128/128 
f 130/130/130 128/128/128 129/129/129 
f 129/129/129 131/131/131 130/130/130 
f 131/131/131 132/132/132 130/130/130 
f 133/133/133 123/123/123 126/126/126 
f 136/136/136 135/135/135 134/134/134 
f 137/137/137 136/136/136 134/134/134 
f 140/140/140 139/139/139 138/138/138 
f 139/139/139 141/141/141 138/138/138 
f 142/142/142 139/139/139 140/140/140 
f 143/143/143 142/142/142 140/140/140 
f 144/144/144 142/142/142 143/143/143 
f 145/145/145 144/144/144 143/143/143 
f 146/146/146 145/145/145 143/143/143 
f 145/145/145 146/146/146 147/147/147 
f 147/147/147 148/148/148 145/145/145 
f 144/144/144 145/145/145 149/149/149 
f 145/145/145 150/150/150 149/149/149 
f 152/152/152 149/149/149 151/151/151 
f 155/155/155 154/154/154 153/153/153 
f 154/154/154 156/156/156 153/153/153 
f 154/154/154 155/155/155 157/157/157 
f 155/155/155 158/158/158 157/157/157 
f 153/153/153 156/156/156 159/159/159 
f 156/156/156 160/160/160 159/159/159 
f 161/161/161 160/160/160 156/156/156 
f 162/162/162 154/154/154 157/157/157 
f 164/164/164 161/161/161 163/163/163 
f 167/167/167 166/166/166 165/165/165 
f 165/165/165 168/168/168 167/167/167 
f 168/168/168 169/169/169 167/167/167 
f 172/172/172 171/171/171 170/170/170 
f 170/170/170 173/173/173 172/172/172 
f 173/173/173 174/174/174 172/172/172 
f 171/171/171 172/172/172 175/175/175 
f 172/172/172 176/176/176 175/175/175 
f 177/177/177 176/176/176 172/172/172 
f 175/175/175 176/176/176 177/177/177 
f 178/178/178 175/175/175 177/177/177 
f 173/173/173 179/179/179 174/174/174 
f 181/181/181 178/178/178 180/180/180 
f 178/178/178 182/182/182 180/180/180 
f 184/184/184 177/177/177 183/183/183 

