# Created by DisUnity v0.3.4
v 1.3933403 0.043356992 1.0565053
v -1.4454846 -0.03357635 1.0594412
v -1.4457495 0.03238827 0.98493373
v 1.4063919 -0.042934746 1.097963
v 1.3933393 0.043357525 1.0565052
v -1.445485 -0.033576384 1.0594412
v 1.4063907 -0.04293485 1.097963
v -1.4457499 0.032388225 0.98493356
v 1.3933338 0.0449793 1.1020362
v -1.445415 -0.05092125 0.9878825
v -1.4457649 0.036307734 1.0357767
v 1.4062763 -0.01446098 1.0269717
v 1.3933325 0.044979192 1.1020361
v -1.4454155 -0.050921276 0.9878824
v 1.4062763 -0.01446098 1.0269719
v -1.4457654 0.03630769 1.0357765
v 1.4419466 0.047846198 0.7860144
v -1.444324 -0.06509696 0.8653075
v -1.4445888 8.670247E-4 0.7907998
v 1.4549968 -0.03844628 0.8274718
v 1.4419456 0.047846097 0.78601414
v -1.4443244 -0.065097004 0.8653076
v 1.4549968 -0.03844628 0.8274718
v -1.4445891 8.669807E-4 0.7907998
v 1.4419401 0.049467873 0.8315452
v -1.4442544 -0.08244122 0.7937488
v -1.4446044 0.004787744 0.8416428
v 1.4548827 -0.009972408 0.7564807
v 1.4419389 0.049467765 0.8315452
v -1.4442549 -0.08244126 0.7937489
v 1.4548827 -0.009972408 0.7564807
v -1.4446049 0.0047877003 0.841643
v 1.4408402 0.047743384 0.35827118
v -1.3694322 -0.008219469 0.5397736
v -1.3696973 0.057745773 0.46526608
v 1.45389 -0.03854915 0.3997288
v 1.440839 0.047743283 0.35827103
v -1.3694328 -0.008218878 0.53977376
v 1.45389 -0.03854915 0.3997288
v -1.3696976 0.057745744 0.46526593
v 1.440833 0.049365 0.40380207
v -1.3693627 -0.025563728 0.46821487
v -1.3697132 0.061665196 0.51610893
v 1.4537756 -0.010075274 0.32873753
v 1.4408324 0.04936495 0.40380195
v -1.3693633 -0.025563773 0.46821502
v 1.453775 -0.010075325 0.32873753
v -1.3697139 0.061665133 0.51610893
v 1.433713 1.9527682E-4 1.4811391
v 1.4414877 -0.08399565 1.4811391
v 1.319953 -0.09521884 1.4940345
v 1.3610907 0.043480612 1.488359
v 1.3076009 0.038541064 1.4940345
v 1.5035671 -0.08674577 -0.034621872
v 1.4664006 0.06609604 0.9533687
v 1.4896615 0.0638358 -0.034621872
v 1.4943198 -0.092007995 0.8572295
v 1.4414877 -0.08399565 1.4811391
v 1.433713 1.9527682E-4 1.4811391
v 1.4350086 0.052338142 1.3979561
v 1.4896615 0.0638358 -0.034621872
v 1.3420386 0.05461176 0.99181277
v 1.3528414 0.051201064 -0.02010423
v 1.4664006 0.06609604 0.9533687
v 1.4350086 0.052338142 1.3979561
v 1.3076009 0.038541064 1.4940345
v 1.3610907 0.043480612 1.488359
v 1.3528414 0.051201064 -0.02010423
v 1.353168 -0.10504337 0.981361
v 1.3667469 -0.09938051 -0.02010423
v 1.3420386 0.05461176 0.99181277
v 1.3076009 0.038541064 1.4940345
v 1.319953 -0.09521884 1.4940345
v 1.3667469 -0.09938051 -0.02010423
v 1.4943198 -0.092007995 0.8572295
v 1.5035671 -0.08674577 -0.034621872
v 1.353168 -0.10504337 0.981361
v 1.319953 -0.09521884 1.4940345
v 1.4414877 -0.08399565 1.4811391
v 1.433713 1.9527682E-4 1.4811391
v 1.3610907 0.043480612 1.488359
v 1.4350086 0.052338142 1.3979561
v -1.3479531 -0.104105175 1.4803282
v -1.499377 0.04140697 1.4948461
v -1.334297 9.4425376E-4 1.4803287
v -1.4847732 -0.11674053 1.4948461
v -1.2942915 -0.09915041 -0.03462155
v -1.334297 9.4425376E-4 1.4803287
v -1.3336749 0.07440344 -0.03462155
v -1.3479531 -0.104105175 1.4803282
v -1.3336749 0.07440344 -0.03462155
v -1.499377 0.04140697 1.4948461
v -1.4503076 0.0960773 -0.020103911
v -1.334297 9.4425376E-4 1.4803287
v -1.4503076 0.0960773 -0.020103911
v -1.4847732 -0.11674053 1.4948461
v -1.431113 -0.111785255 -0.020103753
v -1.499377 0.04140697 1.4948461
v -1.431113 -0.111785255 -0.020103753
v -1.3479531 -0.104105175 1.4803282
v -1.2942915 -0.09915041 -0.03462155
v -1.4847732 -0.11674053 1.4948461
vn -0.015571805 0.6049762 0.79609126
vn -0.015571806 0.6049762 0.79609126
vn -0.015571805 0.6049762 0.79609126
vn -0.015571805 0.6049762 0.79609126
vn 0.015571872 -0.6049757 -0.7960917
vn 0.015571874 -0.60497576 -0.7960917
vn 0.015571867 -0.60497564 -0.7960917
vn 0.015571872 -0.6049757 -0.7960917
vn -0.009079681 -0.64290285 0.76589394
vn -0.009079686 -0.64290285 0.76589394
vn -0.009079686 -0.6429028 0.76589394
vn -0.009079687 -0.64290285 0.76589394
vn 0.009079751 0.64290226 -0.7658944
vn 0.009079744 0.6429024 -0.76589435
vn 0.009079742 0.64290226 -0.76589435
vn 0.009079744 0.64290226 -0.76589435
vn -0.0018486138 0.60580844 0.7956084
vn -0.0018486122 0.6058084 0.7956085
vn -0.0018486066 0.6058083 0.7956084
vn -0.0018486121 0.60580844 0.7956084
vn 0.0018485864 -0.60580957 -0.7956075
vn 0.0018485915 -0.6058096 -0.7956075
vn 0.0018485932 -0.6058097 -0.79560745
vn 0.0018485847 -0.60580957 -0.7956075
vn 0.0192647 -0.6413006 0.76704776
vn 0.0192647 -0.6413006 0.76704776
vn 0.019264698 -0.6413006 0.76704776
vn 0.019264698 -0.6413007 0.76704776
vn -0.019264748 0.6413008 -0.76704764
vn -0.01926475 0.6413009 -0.76704764
vn -0.01926475 0.6413009 -0.76704764
vn -0.01926475 0.6413009 -0.76704764
vn 0.039134067 0.6076078 0.79327244
vn 0.039134063 0.6076078 0.79327244
vn 0.039134063 0.6076078 0.79327244
vn 0.03913407 0.6076078 0.79327244
vn -0.039134078 -0.6076113 -0.7932698
vn -0.039134067 -0.6076113 -0.79326975
vn -0.03913407 -0.6076113 -0.7932698
vn -0.03913406 -0.6076113 -0.79326975
vn 0.034660105 -0.64021325 0.7674149
vn 0.03466011 -0.64021325 0.7674149
vn 0.034660116 -0.64021325 0.7674149
vn 0.034660116 -0.64021325 0.7674149
vn -0.034660194 0.6402123 -0.7674157
vn -0.03466019 0.6402123 -0.7674157
vn -0.034660187 0.6402122 -0.76741576
vn -0.03466019 0.6402123 -0.7674157
vn 0.104624934 0.00966143 0.9944648
vn 0.10462494 0.00966143 0.9944648
vn 0.10462494 0.00966143 0.9944648
vn 0.10462494 0.0096614305 0.9944648
vn 0.10462494 0.00966143 0.9944648
vn 0.991501 0.1289372 0.017351981
vn 0.9913898 0.117214695 0.05836853
vn 0.991501 0.1289372 0.01735198
vn 0.9916727 0.12331958 0.037114184
vn 0.9906763 0.11138883 0.078441486
vn 0.9906763 0.11138883 0.078441486
vn 0.9906763 0.11138884 0.078441486
vn -0.09283898 0.9956714 -0.0044046133
vn -0.08904447 0.9959345 0.013616399
vn -0.09283898 0.9956714 -0.004404613
vn -0.0904137 0.9958787 0.007130692
vn -0.08656066 0.9959245 0.025333242
vn -0.08656066 0.9959245 0.025333242
vn -0.08656066 0.9959245 0.025333242
vn -0.99671894 -0.08002211 -0.012159498
vn -0.99616516 -0.07872301 -0.038178876
vn -0.99671894 -0.08002211 -0.012159498
vn -0.9960854 -0.07860803 -0.040430512
vn -0.9947738 -0.07723141 -0.066786915
vn -0.9947738 -0.0772314 -0.066786915
vn 0.08964755 -0.9959627 -0.004666243
vn 0.09326868 -0.9956382 0.002384181
vn 0.08964755 -0.9959627 -0.0046662437
vn 0.10029319 -0.9948277 0.016093379
vn 0.10407037 -0.99429274 0.023482708
vn 0.10407037 -0.99429274 0.023482708
vn 0.48600572 0.73707163 0.4695996
vn 0.4860057 0.7370717 0.46959957
vn 0.48600572 0.7370717 0.4695996
vn 0.09576448 3.4336804E-4 0.9954039
vn 0.09576448 3.433674E-4 0.9954039
vn 0.09576447 3.4336737E-4 0.9954039
vn 0.09576447 3.4336667E-4 0.9954039
vn 0.99555993 0.09193321 0.020215645
vn 0.99555993 0.09193321 0.020215645
vn 0.99555993 0.09193321 0.020215645
vn 0.99555993 0.09193321 0.020215645
vn 0.21957575 0.9745657 0.044813894
vn 0.21957576 0.9745657 0.044813894
vn 0.21957576 0.9745657 0.044813897
vn 0.2195758 0.9745657 0.0448139
vn -0.99513394 -0.09189447 -0.035548653
vn -0.99513394 -0.09189448 -0.035548653
vn -0.99513394 -0.09189447 -0.035548657
vn -0.99513394 -0.09189448 -0.035548653
vn 0.09195663 -0.99576294 0.0
vn 0.09195663 -0.99576294 0.0
vn 0.09195663 -0.99576294 0.0
vn 0.09195663 -0.99576294 0.0
vt -0.82337195 0.6088234
vt 1.7792463 0.3015871
vt 1.7792463 0.6088234
vt -0.76005745 0.3015871
vt -0.82337195 0.6088234
vt 1.7792463 0.3015871
vt -0.76005745 0.3015871
vt 1.7792463 0.6088234
vt -0.82337195 0.6088234
vt 1.7792463 0.3015871
vt 1.7792463 0.6088234
vt -0.76005745 0.3015871
vt -0.82337195 0.6088234
vt 1.7792463 0.3015871
vt -0.76005745 0.3015871
vt 1.7792463 0.6088234
vt -0.82337195 0.6088234
vt 1.7792463 0.3015871
vt 1.7792463 0.6088234
vt -0.76005745 0.3015871
vt -0.82337195 0.6088234
vt 1.7792463 0.3015871
vt -0.76005745 0.3015871
vt 1.7792463 0.6088234
vt -0.82337195 0.6088234
vt 1.7792463 0.3015871
vt 1.7792463 0.6088234
vt -0.76005745 0.3015871
vt -0.82337195 0.6088234
vt 1.7792463 0.3015871
vt -0.76005745 0.3015871
vt 1.7792463 0.6088234
vt -0.82337195 0.6088234
vt 1.7792463 0.3015871
vt 1.7792463 0.6088234
vt -0.76005745 0.3015871
vt -0.82337195 0.6088234
vt 1.7792463 0.3015871
vt -0.76005745 0.3015871
vt 1.7792463 0.6088234
vt -0.82337195 0.6088234
vt 1.7792463 0.3015871
vt 1.7792463 0.6088234
vt -0.76005745 0.3015871
vt -0.82337195 0.6088234
vt 1.7792463 0.3015871
vt -0.76005745 0.3015871
vt 1.7792463 0.6088234
vt 1.0817033 -0.58451915
vt 1.085628 -0.5175593
vt 0.9901772 -0.5148095
vt 1.0018536 -0.63648
vt 0.9839816 -0.6206037
vt 0.0154652465 -0.41351533
vt 0.640234 -0.2909224
vt 0.017153274 -0.2936535
vt 0.58148074 -0.41769433
vt 0.97675407 -0.42722023
vt 0.971195 -0.34095657
vt 0.9191058 -0.2998302
vt -0.0018432244 -0.67913985
vt 0.6651039 -0.62559164
vt 0.02340501 -0.6066495
vt 0.62857705 -0.6956521
vt 0.9140933 -0.69043493
vt 0.9839816 -0.6206037
vt 1.0018536 -0.63648
vt 0.02340501 -0.6066495
vt 0.6653844 -0.4986658
vt 0.029866451 -0.49217796
vt 0.6651039 -0.62559164
vt 0.9839816 -0.6206037
vt 0.9901772 -0.5148095
vt 0.029866451 -0.49217796
vt 0.58148074 -0.41769433
vt 0.0154652465 -0.41351533
vt 0.6653844 -0.4986658
vt 0.9901772 -0.5148095
vt 0.97675407 -0.42722023
vt 1.0817033 -0.58451915
vt 1.0018536 -0.63648
vt 1.1063927 -0.6384524
vt 0.9785419 1.5843713
vt 0.97604585 1.7269845
vt 0.9624742 1.6398227
vt 1.0873904 1.6926734
vt 0.015581176 1.5456398
vt 0.9624742 1.6398227
vt 0.0072768563 1.6388533
vt 0.9785419 1.5843713
vt 0.0072768563 1.6388533
vt 0.97604585 1.7269845
vt 0.022018222 1.699125
vt 0.9624742 1.6398227
vt 0.022018222 1.699125
vt 0.97250205 1.8096203
vt 0.025358083 1.8096203
vt 0.97604585 1.7269845
vt 0.036865756 1.4744142
vt 0.9785419 1.5843713
vt 0.015581176 1.5456398
vt 0.9962778 1.5157022

g FenceE
s 1
usemtl FenceE_0
f 3/3/3 2/2/2 1/1/1 
f 2/2/2 4/4/4 1/1/1 
f 7/7/7 6/6/6 5/5/5 
f 6/6/6 8/8/8 5/5/5 
f 11/11/11 10/10/10 9/9/9 
f 10/10/10 12/12/12 9/9/9 
f 15/15/15 14/14/14 13/13/13 
f 14/14/14 16/16/16 13/13/13 
f 19/19/19 18/18/18 17/17/17 
f 18/18/18 20/20/20 17/17/17 
f 23/23/23 22/22/22 21/21/21 
f 22/22/22 24/24/24 21/21/21 
f 27/27/27 26/26/26 25/25/25 
f 26/26/26 28/28/28 25/25/25 
f 31/31/31 30/30/30 29/29/29 
f 30/30/30 32/32/32 29/29/29 
f 35/35/35 34/34/34 33/33/33 
f 34/34/34 36/36/36 33/33/33 
f 39/39/39 38/38/38 37/37/37 
f 38/38/38 40/40/40 37/37/37 
f 43/43/43 42/42/42 41/41/41 
f 42/42/42 44/44/44 41/41/41 
f 47/47/47 46/46/46 45/45/45 
f 46/46/46 48/48/48 45/45/45 

usemtl FenceE_1
f 51/51/51 50/50/50 49/49/49 
f 49/49/49 52/52/52 51/51/51 
f 52/52/52 53/53/53 51/51/51 
f 56/56/56 55/55/55 54/54/54 
f 55/55/55 57/57/57 54/54/54 
f 58/58/58 57/57/57 55/55/55 
f 55/55/55 59/59/59 58/58/58 
f 55/55/55 60/60/60 59/59/59 
f 63/63/63 62/62/62 61/61/61 
f 62/62/62 64/64/64 61/61/61 
f 65/65/65 64/64/64 62/62/62 
f 62/62/62 66/66/66 65/65/65 
f 66/66/66 67/67/67 65/65/65 
f 70/70/70 69/69/69 68/68/68 
f 69/69/69 71/71/71 68/68/68 
f 72/72/72 71/71/71 69/69/69 
f 73/73/73 72/72/72 69/69/69 
f 76/76/76 75/75/75 74/74/74 
f 75/75/75 77/77/77 74/74/74 
f 78/78/78 77/77/77 75/75/75 
f 79/79/79 78/78/78 75/75/75 
f 82/82/82 81/81/81 80/80/80 
f 85/85/85 84/84/84 83/83/83 
f 84/84/84 86/86/86 83/83/83 
f 89/89/89 88/88/88 87/87/87 
f 88/88/88 90/90/90 87/87/87 
f 93/93/93 92/92/92 91/91/91 
f 92/92/92 94/94/94 91/91/91 
f 97/97/97 96/96/96 95/95/95 
f 96/96/96 98/98/98 95/95/95 
f 101/101/101 100/100/100 99/99/99 
f 100/100/100 102/102/102 99/99/99 

