# Created by DisUnity v0.3.4
v 0.75063866 -0.048925053 1.95447
v -0.7331529 -0.049098063 1.7395365
v -0.7761449 -0.049103078 1.7699007
v -0.7761449 -0.049103096 1.9725498
v 0.73444235 -0.048926946 2.0398726
v -0.7221395 -0.0490968 2.0398726
v 0.71114355 -0.048929643 1.8222841
v -0.74748737 -0.049099736 1.7091721
v -0.7188186 -0.04909639 1.681144
v 0.7308532 -0.048927322 1.6237494
v -0.7761449 -0.049103078 1.6017303
v -0.7761449 -0.04910306 0.71346444
v 0.7761557 -0.048922043 0.71346444
v 0.74877113 -0.048925232 1.7335274
v 0.7443667 1.9150431E-4 1.8222843
v -0.74731624 1.7556447E-5 1.6616154
v 0.75858736 1.9316262E-4 1.6237497
v 0.7487654 1.9201727E-4 1.7335278
v -0.7733806 1.4536402E-5 1.6973928
v 0.7006038 1.8638167E-4 2.0217066
v 0.75063294 1.9223503E-4 1.95447
v -0.7761506 1.4203705E-5 1.6017303
v 0.77615005 1.9524938E-4 0.71346444
v -0.7761506 1.4232757E-5 0.71346444
v -0.7761506 1.4203705E-5 1.734207
v -0.7761506 1.4194021E-5 1.97255
v -0.76424134 1.5592463E-5 2.039873
v 0.7761557 -0.048922043 0.71346444
v -0.7761506 1.4232757E-5 0.71346444
v -0.7761449 -0.04910306 0.71346444
v 0.77615005 1.9524938E-4 0.71346444
v 0.75063866 -0.048925053 1.95447
v 0.7443667 1.9150431E-4 1.8222843
v 0.71114355 -0.048929643 1.8222841
v 0.75063294 1.9223503E-4 1.95447
v 0.71114355 -0.048929643 1.8222841
v 0.7487654 1.9201727E-4 1.7335278
v 0.74877113 -0.048925232 1.7335274
v 0.7443667 1.9150431E-4 1.8222843
v 0.7308532 -0.048927322 1.6237494
v 0.77615005 1.9524938E-4 0.71346444
v 0.7761557 -0.048922043 0.71346444
v 0.75858736 1.9316262E-4 1.6237497
v 0.74877113 -0.048925232 1.7335274
v 0.75858736 1.9316262E-4 1.6237497
v 0.7308532 -0.048927322 1.6237494
v 0.7487654 1.9201727E-4 1.7335278
v -0.7221395 -0.0490968 2.0398726
v 0.7006038 1.8638167E-4 2.0217066
v 0.73444235 -0.048926946 2.0398726
v -0.76424134 1.5592463E-5 2.039873
v 0.73444235 -0.048926946 2.0398726
v 0.75063294 1.9223503E-4 1.95447
v 0.75063866 -0.048925053 1.95447
v 0.7006038 1.8638167E-4 2.0217066
v 0.75063294 1.9223503E-4 1.95447
v -0.7331529 -0.049098063 1.7395365
v -0.7761506 1.4203705E-5 1.734207
v -0.7761449 -0.049103078 1.7699007
v -0.74748737 -0.049099736 1.7091721
v -0.7761506 1.4203705E-5 1.734207
v -0.7331529 -0.049098063 1.7395365
v -0.7733806 1.4536402E-5 1.6973928
v -0.7188186 -0.04909639 1.681144
v -0.7733806 1.4536402E-5 1.6973928
v -0.74748737 -0.049099736 1.7091721
v -0.74731624 1.7556447E-5 1.6616154
v -0.7761449 -0.04910306 0.71346444
v -0.7761506 1.4203705E-5 1.6017303
v -0.7761449 -0.049103078 1.6017303
v -0.7761506 1.4232757E-5 0.71346444
v -0.7761449 -0.049103078 1.6017303
v -0.74731624 1.7556447E-5 1.6616154
v -0.7188186 -0.04909639 1.681144
v -0.7761506 1.4203705E-5 1.6017303
v -0.7761449 -0.049103078 1.7699007
v -0.7761506 1.4194021E-5 1.97255
v -0.7761449 -0.049103096 1.9725498
v -0.7761506 1.4203705E-5 1.734207
v -0.7761449 -0.049103096 1.9725498
v -0.76424134 1.5592463E-5 2.039873
v -0.7221395 -0.0490968 2.0398726
v -0.7761506 1.4194021E-5 1.97255
v -0.42052293 -5.9185794E-4 2.2455325
v -0.4250786 -0.034284953 2.249727
v -0.4599721 0.026005093 2.3192575
v -0.48874807 -0.03594929 2.3112843
v -0.49745274 -0.0032857624 2.3121529
v -0.46326542 0.048958242 -0.0056492575
v -0.42052293 -5.9185794E-4 2.2455325
v -0.4599721 0.026005093 2.3192575
v -0.51007694 0.012376539 -0.005649233
v -0.49745274 -0.0032857624 2.3121529
v -0.41400704 0.015743362 -0.005649233
v -0.42052293 -5.9185794E-4 2.2455325
v -0.50042105 -0.041155156 -0.005649233
v -0.49745274 -0.0032857624 2.3121529
v -0.49745274 -0.0032857624 2.3121529
v -0.48874807 -0.03594929 2.3112843
v -0.4250786 -0.034284953 2.249727
v -0.42052293 -5.9185794E-4 2.2455325
v -0.42090732 -0.039072208 -0.005649233
v -0.42090732 -0.039072208 -0.005649233
v -0.48874807 -0.03594929 2.3112843
v -0.4250786 -0.034284953 2.249727
v -0.50042105 -0.041155156 -0.005649233
v 0.4303649 -4.890223E-4 2.2617424
v 0.42580935 -0.034182146 2.265936
v 0.3909153 0.026108716 2.273952
v 0.3621401 -0.035847276 2.2020123
v 0.35343525 -0.00318374 2.2028813
v 0.38762015 0.049057476 -0.0056492575
v 0.4303649 -4.890223E-4 2.2617424
v 0.3909153 0.026108716 2.273952
v 0.43687835 0.015842585 -0.005649233
v 0.34080866 0.012475773 -0.005649233
v 0.35343525 -0.00318374 2.2028813
v 0.3504642 -0.04105592 -0.005649233
v 0.3621401 -0.035847276 2.2020123
v 0.42580935 -0.034182146 2.265936
v 0.4299781 -0.038972974 -0.005649233
v 0.4299781 -0.038972974 -0.005649233
v 0.3621401 -0.035847276 2.2020123
v 0.42580935 -0.034182146 2.265936
v 0.3504642 -0.04105592 -0.005649233
v -0.45195428 0.037458118 1.6529963
v -0.44812384 0.0361479 2.439819
v -0.46095964 0.046719782 1.6530571
v -0.4391192 0.026885012 2.4397583
v -0.46095964 0.046719782 1.6530571
v -0.4391192 0.026885012 2.4397583
v -0.45195428 0.037458118 1.6529963
v -0.44812384 0.0361479 2.439819
v -0.45037052 0.04617971 2.7602243
v -0.3081018 -0.09429829 2.2357998
v -0.40662193 -0.004036643 2.4126775
v -0.18266205 -0.046076257 2.5222728
v -0.45541868 0.04066966 2.4421241
v -0.44820005 0.048550773 2.7602243
v -0.40445048 -0.0016664922 2.4126775
v -0.30593035 -0.091928154 2.2357998
v -0.18049058 -0.043706115 2.5222728
v -0.45324817 0.043040723 2.442124
vn 1.1661344E-4 -1.0 0.0
vn 1.16613715E-4 -1.0 0.0
vn 1.1661024E-4 -1.0 0.0
vn 1.1661024E-4 -1.0 0.0
vn 1.1661024E-4 -1.0 0.0
vn 1.1661024E-4 -1.0 0.0
vn 1.16653406E-4 -1.0 0.0
vn 1.1661767E-4 -1.0 0.0
vn 1.1661814E-4 -1.0 0.0
vn 1.16655836E-4 -1.0 0.0
vn 1.166185E-4 -1.0 0.0
vn 1.166185E-4 -1.0 0.0
vn 1.166185E-4 -1.0 0.0
vn 1.16983465E-4 -1.0 0.0
vn -1.16609015E-4 1.0 0.0
vn -1.16607756E-4 1.0 0.0
vn -1.16610296E-4 1.0 0.0
vn 1.16611816E-4 -1.0 0.0
vn -1.16604686E-4 1.0 0.0
vn -1.1660626E-4 1.0 0.0
vn -1.1660646E-4 1.0 0.0
vn -1.1660892E-4 1.0 0.0
vn -1.1660892E-4 1.0 0.0
vn -1.1660892E-4 1.0 0.0
vn -1.1660352E-4 1.0 0.0
vn -1.1660352E-4 1.0 0.0
vn -1.1660352E-4 1.0 0.0
vn -0.0 0.0 -1.0
vn -0.0 0.0 -1.0
vn -0.0 0.0 -1.0
vn -0.0 0.0 -1.0
vn 0.92638636 -0.3132393 -0.20902033
vn 0.92638636 -0.3132393 -0.20902033
vn 0.92638636 -0.3132393 -0.20902035
vn 0.92638636 -0.31323928 -0.20902038
vn 0.9092526 -0.30744717 0.2805995
vn 0.9092526 -0.30744717 0.2805995
vn 0.9092526 -0.30744717 0.2805995
vn 0.90925246 -0.30744714 0.2805995
vn 0.96149564 -0.27139127 0.043277785
vn 0.96149564 -0.27139127 0.043277785
vn 0.96149564 -0.27139127 0.043277778
vn 0.96149564 -0.27139127 0.043277778
vn 0.9613696 -0.27135462 -0.046209607
vn 0.9613696 -0.2713546 -0.046209604
vn 0.9613696 -0.2713546 -0.046209604
vn 0.9613696 -0.2713546 -0.046209607
vn 0.0047036204 0.1440278 0.98956245
vn 0.0047036204 0.1440278 0.98956245
vn 0.0047036195 0.1440278 0.98956245
vn 0.0047036204 0.1440278 0.98956245
vn 0.81640357 0.34679127 0.4617587
vn 0.81640357 0.34679124 0.4617587
vn 0.81640357 0.34679124 0.4617587
vn 0.81640357 0.34679124 0.4617587
vn 0.81640357 0.34679124 0.4617587
vn -0.4277055 -0.44017875 -0.7895003
vn -0.4277055 -0.44017878 -0.7895003
vn -0.42770544 -0.4401787 -0.7895003
vn -0.8162003 -0.5479649 0.18317075
vn -0.8162002 -0.54796493 0.1831707
vn -0.8162003 -0.54796493 0.18317074
vn -0.8162003 -0.54796493 0.18317074
vn -0.58372873 -0.48283193 -0.6527894
vn -0.58372873 -0.48283193 -0.6527894
vn -0.58372873 -0.48283193 -0.6527894
vn -0.58372873 -0.48283193 -0.6527894
vn -1.0 -1.15034556E-4 0.0
vn -1.0 -1.15034556E-4 0.0
vn -1.0 -1.15034556E-4 0.0
vn -1.0 -1.15034556E-4 0.0
vn -0.7719566 -0.1290689 0.622434
vn -0.7719566 -0.1290689 0.622434
vn -0.7719566 -0.1290689 0.622434
vn -0.7719566 -0.12906887 0.622434
vn -1.0 -1.15034556E-4 0.0
vn -1.0 -1.15034556E-4 0.0
vn -1.0 -1.15034556E-4 0.0
vn -1.0 -1.15034556E-4 0.0
vn -0.7927959 -0.3398446 0.50594497
vn -0.79279596 -0.3398446 0.50594497
vn -0.79279596 -0.33984458 0.50594497
vn -0.7927959 -0.33984458 0.50594497
vn 0.80717236 -0.05299092 0.5879327
vn 0.7100364 -0.18914603 0.67828614
vn 0.48714545 -0.22487248 0.8438731
vn 0.3519384 -0.25245017 0.90133685
vn -0.106421456 -0.048618067 0.9931318
vn -0.03327198 0.9993612 0.013040679
vn 0.8599939 0.5102416 0.008000676
vn -0.27790248 0.9605218 0.01295734
vn -0.9391826 0.34326535 0.010245914
vn -0.93146306 0.36368868 0.010350622
vn 0.9113333 0.4116048 0.0072913994
vn 0.8599939 0.5102416 0.008000676
vn -0.61956185 -0.78492665 0.0057667797
vn -0.93146306 0.36368868 0.010350622
vn -0.93146306 0.36368868 0.010350622
vn -0.76950663 -0.638609 0.0061730095
vn 0.536684 -0.843776 0.0035401268
vn 0.8599939 0.5102416 0.008000676
vn 0.67028683 -0.74209356 0.0035708193
vn 0.67028683 -0.74209356 0.0035708193
vn -0.76950663 -0.638609 0.0061730095
vn 0.536684 -0.843776 0.0035401268
vn -0.61956185 -0.78492665 0.0057667797
vn 0.26616874 0.05589855 0.96230435
vn -0.29625523 -0.2650511 0.91759515
vn -0.4377618 -0.27677375 0.85543025
vn -0.66136783 -0.30372208 0.6858174
vn -0.74831814 -0.21225224 0.62846565
vn -0.03811813 0.9991843 0.013327278
vn 0.90480363 0.42576435 0.007430362
vn 0.18676752 0.98232275 0.012645575
vn 0.91044956 0.41355497 0.007338622
vn -0.9400714 0.3408121 0.010625172
vn -0.88725686 0.46113995 0.011188009
vn -0.620351 -0.7843013 0.006000766
vn -0.50494015 -0.8631364 0.0055593126
vn 0.80281264 -0.59622115 0.0034962646
vn 0.6695841 -0.7427275 0.003602728
vn 0.6695841 -0.7427275 0.003602728
vn -0.50494015 -0.8631364 0.0055593126
vn 0.80281264 -0.59622115 0.0034962646
vn -0.620351 -0.7843013 0.006000766
vn -0.71698296 -0.6970841 0.0030367877
vn 1.16611816E-4 -1.0 0.0
vn 0.70718926 -0.7070244 0.0
vn 0.70718926 -0.7070244 0.0
vn 0.70718926 -0.7070244 0.0
vn 0.70718926 -0.7070244 0.0
vn -0.71698296 -0.6970841 0.0030367877
vn 1.16611816E-4 -1.0 0.0
vn -0.37792358 -0.90721047 0.18477766
vn -0.28445932 -0.9319523 0.22482808
vn -0.65239507 -0.75704545 0.035537075
vn -0.13326149 -0.94940174 0.28438997
vn -0.6674705 -0.74400693 0.030607585
vn 0.37792587 0.9072095 -0.18477774
vn 0.6523952 0.7570453 -0.03553717
vn 0.2844596 0.931952 -0.22482932
vn 0.13326338 0.9494012 -0.28439102
vn 0.667471 0.7440065 -0.030607458
vt 0.55827266 0.5158632
vt 0.017293584 0.5984175
vt 0.0016190219 0.5867549
vt 0.0016190219 0.508919
vt 0.5523676 0.48306096
vt 0.021308988 0.48306096
vt 0.5438731 0.5666348
vt 0.012067367 0.6100801
vt 0.022519747 0.6208456
vt 0.5510591 0.6428903
vt 0.0016190219 0.6513477
vt 0.0016190219 0.9925232
vt 0.56757593 0.9925232
vt 0.55759174 0.60072553
vt 0.036612067 0.08625722
vt 0.5371016 0.14150965
vt 0.031840198 0.15455616
vt 0.035136137 0.116779804
vt 0.54584676 0.12920618
vt 0.051295407 0.017677665
vt 0.034509584 0.040799737
vt 0.5467761 0.16210347
vt 0.025948573 0.46754485
vt 0.5467761 0.4675696
vt 0.5467761 0.116545975
vt 0.5467761 0.034582257
vt 0.5427803 0.011430502
vt 0.8177478 0.009080887
vt 0.8487529 0.7962694
vt 0.8177442 0.7962694
vt 0.8487565 0.009080887
vt 0.017505307 0.04033172
vt 0.033124495 0.08632821
vt 0.016649896 0.08577484
vt 0.033979904 0.04088527
vt 0.016649896 0.08577484
vt 0.03255013 0.1168412
vt 0.016075531 0.11628765
vt 0.033124495 0.08632821
vt 0.015365131 0.15402734
vt 0.025948573 0.46754485
vt 0.009474442 0.46696663
vt 0.031840198 0.15455616
vt 0.016075531 0.11628765
vt 0.031840198 0.15455616
vt 0.015365131 0.15402734
vt 0.03255013 0.1168412
vt 0.87440294 0.03042829
vt 0.90540856 0.75191987
vt 0.8743996 0.7690768
vt 0.9054119 0.009081125
vt 0.018057968 0.010971665
vt 0.033979904 0.04088527
vt 0.017505307 0.04033172
vt 0.03441501 0.017770529
vt 0.033979904 0.04088527
vt 0.7004001 0.6843134
vt 0.66939133 0.65717185
vt 0.7004001 0.6571716
vt 0.73478484 0.700119
vt 0.7690859 0.71622205
vt 0.72807324 0.7153201
vt 0.7699673 0.6989553
vt 0.7100578 0.7335397
vt 0.66939133 0.7099601
vt 0.704826 0.7115952
vt 0.6730222 0.7335166
vt 0.5632561 0.4675696
vt 0.5467761 0.16210347
vt 0.5632561 0.16210347
vt 0.5467761 0.4675696
vt 0.5632561 0.16210347
vt 0.5467761 0.14150965
vt 0.5632561 0.13479394
vt 0.5467761 0.16210347
vt 0.56325597 0.10427123
vt 0.5467761 0.034582257
vt 0.56325597 0.034582257
vt 0.5467761 0.116545975
vt 0.56325597 0.034582257
vt 0.5467761 0.0114302635
vt 0.56325597 0.011430502
vt 0.5467761 0.034582257
vt 0.74741983 0.6906816
vt 0.6799412 0.6713594
vt 0.7451277 0.738407
vt 0.64157915 0.7267262
vt 0.68239117 0.78033125
vt 0.6380093 0.034410655
vt 0.6021017 0.7930319
vt 0.6385468 0.7972108
vt 0.6691576 0.03444034
vt 0.67249346 0.7723499
vt 0.6052486 0.0345127
vt 0.6021017 0.7930319
vt 0.69768345 0.034547567
vt 0.67249346 0.7723499
vt 0.67249346 0.7723499
vt 0.69544005 0.7943411
vt 0.57885206 0.76581484
vt 0.6021017 0.7930319
vt 0.5763943 0.0346092
vt 0.64789975 0.04520607
vt 0.6225904 0.7587059
vt 0.6493441 0.73191464
vt 0.623909 0.045149207
vt 0.74741983 0.6906816
vt 0.6799412 0.6713594
vt 0.7451277 0.738407
vt 0.64157915 0.7267262
vt 0.68239117 0.78033125
vt 0.7361704 0.79721075
vt 0.7151722 0.0128314495
vt 0.73648477 0.008510709
vt 0.7170124 0.79710525
vt 0.75438535 0.79718006
vt 0.7563362 0.03421569
vt 0.77106684 0.7970692
vt 0.76975495 0.011477828
vt 0.7015761 0.04097259
vt 0.7001389 0.79700553
vt 0.7419542 0.78604877
vt 0.72715366 0.048322916
vt 0.7427988 0.076023936
vt 0.7279247 0.7861076
vt 0.68432105 0.79755956
vt 0.7001936 0.048045397
vt 0.69980776 0.7987883
vt 0.6847112 0.048076153
vt 0.65174663 0.79516345
vt 0.66843617 0.049173117
vt 0.6682029 0.7961805
vt 0.6505953 0.0493598
vt 0.88205266 0.81286955
vt 0.58951324 0.94268674
vt 0.6403554 0.83389664
vt 0.8888308 0.98792315
vt 0.6403554 0.81671876
vt 0.88205266 0.81286955
vt 0.6403554 0.83389664
vt 0.58951324 0.94268674
vt 0.8888308 0.98792315
vt 0.6403554 0.81671876

g Guidepost
s 1
usemtl Guidepost
f 3/3/3 2/2/2 1/1/1 
f 1/1/1 4/4/4 3/3/3 
f 1/1/1 5/5/5 4/4/4 
f 5/5/5 6/6/6 4/4/4 
f 7/7/7 1/1/1 2/2/2 
f 7/7/7 2/2/2 8/8/8 
f 8/8/8 9/9/9 7/7/7 
f 10/10/10 7/7/7 9/9/9 
f 10/10/10 9/9/9 11/11/11 
f 10/10/10 11/11/11 12/12/12 
f 12/12/12 13/13/13 10/10/10 
f 14/14/14 7/7/7 10/10/10 
f 17/17/17 16/16/16 15/15/15 
f 18/18/18 17/17/17 15/15/15 
f 15/15/15 16/16/16 19/19/19 
f 19/19/19 20/20/20 15/15/15 
f 20/20/20 21/21/21 15/15/15 
f 22/22/22 16/16/16 17/17/17 
f 22/22/22 17/17/17 23/23/23 
f 23/23/23 24/24/24 22/22/22 
f 20/20/20 19/19/19 25/25/25 
f 25/25/25 26/26/26 20/20/20 
f 26/26/26 27/27/27 20/20/20 
f 30/30/30 29/29/29 28/28/28 
f 29/29/29 31/31/31 28/28/28 
f 34/34/34 33/33/33 32/32/32 
f 33/33/33 35/35/35 32/32/32 
f 38/38/38 37/37/37 36/36/36 
f 37/37/37 39/39/39 36/36/36 
f 42/42/42 41/41/41 40/40/40 
f 41/41/41 43/43/43 40/40/40 
f 46/46/46 45/45/45 44/44/44 
f 45/45/45 47/47/47 44/44/44 
f 50/50/50 49/49/49 48/48/48 
f 49/49/49 51/51/51 48/48/48 
f 54/54/54 53/53/53 52/52/52 
f 56/56/56 55/55/55 52/52/52 
f 59/59/59 58/58/58 57/57/57 
f 62/62/62 61/61/61 60/60/60 
f 61/61/61 63/63/63 60/60/60 
f 66/66/66 65/65/65 64/64/64 
f 65/65/65 67/67/67 64/64/64 
f 70/70/70 69/69/69 68/68/68 
f 69/69/69 71/71/71 68/68/68 
f 74/74/74 73/73/73 72/72/72 
f 73/73/73 75/75/75 72/72/72 
f 78/78/78 77/77/77 76/76/76 
f 77/77/77 79/79/79 76/76/76 
f 82/82/82 81/81/81 80/80/80 
f 81/81/81 83/83/83 80/80/80 
f 86/86/86 85/85/85 84/84/84 
f 87/87/87 85/85/85 86/86/86 
f 88/88/88 87/87/87 86/86/86 
f 91/91/91 90/90/90 89/89/89 
f 91/91/91 89/89/89 92/92/92 
f 93/93/93 91/91/91 92/92/92 
f 95/95/95 94/94/94 89/89/89 
f 97/97/97 92/92/92 96/96/96 
f 99/99/99 98/98/98 96/96/96 
f 101/101/101 100/100/100 94/94/94 
f 100/100/100 102/102/102 94/94/94 
f 105/105/105 104/104/104 103/103/103 
f 104/104/104 106/106/106 103/103/103 
f 109/109/109 108/108/108 107/107/107 
f 110/110/110 108/108/108 109/109/109 
f 111/111/111 110/110/110 109/109/109 
f 114/114/114 113/113/113 112/112/112 
f 113/113/113 115/115/115 112/112/112 
f 114/114/114 112/112/112 116/116/116 
f 117/117/117 114/114/114 116/116/116 
f 117/117/117 116/116/116 118/118/118 
f 119/119/119 117/117/117 118/118/118 
f 113/113/113 120/120/120 115/115/115 
f 120/120/120 121/121/121 115/115/115 
f 124/124/124 123/123/123 122/122/122 
f 123/123/123 125/125/125 122/122/122 
f 128/128/128 127/127/127 126/126/126 
f 127/127/127 129/129/129 126/126/126 
f 132/132/132 131/131/131 130/130/130 
f 131/131/131 133/133/133 130/130/130 
f 136/136/136 135/135/135 134/134/134 
f 137/137/137 134/134/134 135/135/135 
f 138/138/138 136/136/136 134/134/134 
f 141/141/141 140/140/140 139/139/139 
f 139/139/139 142/142/142 141/141/141 
f 140/140/140 143/143/143 139/139/139 

