# Created by DisUnity v0.3.4
v 0.0061727287 0.89848644 0.23638217
v -0.0634134 0.9323053 8.029938E-5
v 0.19508786 0.8534154 0.55743134
v -0.27252245 0.8575407 0.92586726
v -0.2519419 0.9160156 8.029938E-5
v 0.5707707 0.53639406 8.029938E-5
v 0.44006047 0.5418466 0.72106886
v 0.72706306 0.18365724 0.31080198
v 0.6378232 -0.0123242205 0.3739606
v 0.7025676 -0.018768195 8.029938E-5
v 0.48160005 -0.33611557 0.4360462
v 0.1975402 -0.6242251 8.029938E-5
v -0.007225013 -0.3975412 0.5108028
v 0.39142773 0.024965072 0.595415
v -0.1895883 0.37052807 0.78238314
v -0.2606666 -0.005920565 0.69043434
v -0.2145224 -0.7255668 0.49150714
v -0.27252245 0.8575407 0.92586726
v -0.4995779 0.6505761 0.8835603
v -0.49184415 0.68827057 0.4780379
v -0.21493593 0.90479916 0.46297523
v -0.51392764 0.55092126 0.80349
v -0.5617603 0.14991613 0.8431118
v -0.65342754 0.36367342 0.4625741
v -0.6299309 0.10257647 0.43617892
v -0.2606666 -0.005920565 0.69043434
v 0.0061727287 0.89848644 0.23638217
v -0.27252245 0.8575407 0.92586726
v -0.44377246 -0.279272 0.6531952
v -0.2145224 -0.7255668 0.49150714
v -0.19139296 -0.62605137 8.029938E-5
v -0.5496252 -0.5634628 8.029938E-5
v -0.4102067 -0.41059968 0.29690683
v -0.5671091 -0.38879943 0.3206906
v -0.44377246 -0.279272 0.6531952
v -0.73063433 0.004400623 0.8657881
v -0.79856217 -0.384624 0.34710634
v -0.44377246 -0.279272 0.6531952
v -0.5617603 0.14991613 0.8431118
v -0.2606666 -0.005920565 0.69043434
v -0.19139296 -0.62605137 8.029938E-5
v -0.4102067 -0.41059968 0.29690683
v -0.29812023 -0.7191519 0.20512822
v -0.35528126 -0.8097699 0.3915809
v -0.44377246 -0.279272 0.6531952
v -0.2145224 -0.7255668 0.49150714
v -0.5745266 0.025371963 8.029938E-5
v -0.65342754 0.36367342 0.4625741
v -0.6299309 0.10257647 0.43617892
v -0.6669296 0.26040283 8.029938E-5
v -0.2519419 0.9160156 8.029938E-5
v -0.768058 0.77495116 0.46771017
v -0.77283114 0.76898307 8.029938E-5
v -0.55537754 0.9729759 0.51019824
v -0.21493593 0.90479916 0.46297523
v -0.80201876 0.43933663 0.35461578
v -0.6669296 0.26040283 8.029938E-5
v -0.65342754 0.36367342 0.4625741
v -0.70922947 -0.5000269 0.3047108
v -0.5671091 -0.38879943 0.3206906
v -0.5496252 -0.5634628 8.029938E-5
v -0.6741263 -0.54393685 8.029938E-5
v -0.79856217 -0.384624 0.34710634
v -0.6697348 -0.11955714 8.029938E-5
v -0.76340526 -0.03951904 0.42374516
v -0.007225013 -0.3975412 0.5108028
v 0.1975402 -0.6242251 8.029938E-5
v -0.0026089014 -0.6301864 0.41560507
v -0.007225013 -0.3975412 0.5108028
v -0.0026089014 -0.6301864 0.41560507
v -0.22019453 -0.8326311 0.38105386
v -0.08062201 -0.8160656 0.25455043
v -0.76340526 -0.03951904 0.42374516
v -0.73063433 0.004400623 0.8657881
v -0.79856217 -0.384624 0.34710634
v -0.6299309 0.10257647 0.43617892
v -0.5617603 0.14991613 0.8431118
v -0.21493593 0.90479916 0.46297523
v -0.49184415 0.68827057 0.4780379
v -0.55537754 0.9729759 0.51019824
v -0.768058 0.77495116 0.46771017
v -0.65342754 0.36367342 0.4625741
v -0.80201876 0.43933663 0.35461578
v -0.71428865 0.032049537 8.02996E-5
v -0.5896717 0.14074416 0.6462242
v -0.7838108 0.059132297 0.60977346
v -0.22019453 -0.8326311 0.38105386
v -0.35528126 -0.8097699 0.3915809
v -0.2145224 -0.7255668 0.49150714
v -0.007225013 -0.3975412 0.5108028
v -0.40792307 -0.742962 8.02996E-5
v -0.26185623 -0.5006243 0.19205792
v -0.1707964 -0.60403395 8.02996E-5
v -0.0026089014 -0.6301864 0.41560507
v -0.19139296 -0.62605137 8.029938E-5
v -0.29812023 -0.7191519 0.20512822
v 0.1975402 -0.6242251 8.029938E-5
v -0.29812023 -0.7191519 0.20512822
v -0.08062201 -0.8160656 0.25455043
v -0.44377246 -0.279272 0.6531952
v -0.73063433 0.004400623 0.8657881
v -0.5617603 0.14991613 0.8431118
v 0.23354438 0.70674986 0.09389293
v 0.34679893 0.88018084 8.02996E-5
v 0.3580209 0.6423437 8.02996E-5
v 0.14232174 0.7527731 8.02996E-5
v -0.5798019 0.75563043 0.118688665
v -0.6182123 0.8862953 8.02996E-5
v -0.37882414 0.8146159 8.02996E-5
v -0.63767827 0.694971 8.02996E-5
v 0.55339444 0.74921423 8.02996E-5
v 0.37705064 0.66263646 0.20786388
v 0.30708012 0.6629516 8.02996E-5
v -0.27252245 0.8575407 0.92586726
v -0.71428865 0.032049537 8.02996E-5
v -0.7383963 -0.036879193 0.6280248
v -0.66211224 -0.1374211 4.3509333E-4
v -0.7838108 0.059132297 0.60977346
v -0.7838108 0.059132297 0.60977346
v -0.5896717 0.14074416 0.6462242
v -0.7383963 -0.036879193 0.6280248
v -0.35528126 -0.8097699 0.3915809
v -0.22019453 -0.8326311 0.38105386
v -0.08062201 -0.8160656 0.25455043
v 0.5687981 0.53121084 8.02996E-5
v 0.5335833 0.59854376 0.22606328
v 0.55339444 0.74921423 8.02996E-5
v -0.31654155 -0.7231532 8.02996E-5
v -0.22989428 -0.5655232 0.08770834
v -0.03705843 -0.6698658 8.02996E-5
v -0.08062201 -0.8160656 0.25455043
v -0.29812023 -0.7191519 0.20512822
v -0.35528126 -0.8097699 0.3915809
v -0.55577564 0.494567 0.44141516
v -0.38341475 0.7660266 0.4487563
v -0.49866924 0.64310735 0.56556255
v -0.66300505 -0.12056766 0.13973098
v -0.70421475 -0.33491167 8.02996E-5
v -0.72202414 -0.012584778 8.02996E-5
v -0.6309653 0.2506788 8.02996E-5
v -0.5668336 0.06076289 0.09290771
v -0.6878563 -0.02307562 8.02996E-5
v 0.52490467 -0.24810706 0.08942012
v 0.6154862 -0.40235838 8.02996E-5
v 0.4253237 -0.39350656 8.02996E-5
v 0.6275625 -0.11662312 8.02996E-5
v -0.48204085 -0.5548677 8.02996E-5
v -0.26185623 -0.5006243 0.19205792
v -0.40792307 -0.742962 8.02996E-5
v 0.55339444 0.74921423 8.02996E-5
v 0.5335833 0.59854376 0.22606328
v 0.37705064 0.66263646 0.20786388
v -0.21493593 0.90479916 0.46297523
v -0.5671091 -0.38879943 0.3206906
v -0.70922947 -0.5000269 0.3047108
v -0.79856217 -0.384624 0.34710634
v -0.5501454 0.038961187 8.02996E-5
v -0.5896717 0.14074416 0.6462242
v -0.71428865 0.032049537 8.02996E-5
v 0.5455634 0.55351406 0.08942012
v 0.5914442 0.693343 8.02996E-5
v 0.6159286 0.3835082 8.02996E-5
vn 0.021685451 0.9940308 0.10692303
vn 0.14890207 0.98686755 0.062614195
vn 0.45295236 0.8633364 0.22245112
vn -0.15785486 0.62205607 0.7668951
vn -0.11279853 0.993465 -0.017430063
vn 0.83481985 0.54846686 0.047538098
vn 0.6439983 0.25226912 0.7222371
vn 0.9811979 0.13105103 0.1416914
vn 0.881441 -0.21282 0.42162713
vn 0.9608346 -0.27549776 -0.029961372
vn 0.5909056 -0.6016176 0.537482
vn 0.4179925 -0.89077425 0.1783353
vn 0.3445208 -0.4125222 0.8432857
vn 0.38492694 -0.267268 0.883402
vn 0.14905657 -0.23340417 0.96088743
vn 0.23504111 -0.29693314 0.9255195
vn 0.26502916 -0.54709595 0.79400605
vn -0.15785486 0.62205607 0.7668951
vn -0.662167 0.1995191 0.7223067
vn -0.52372175 0.32921502 0.7857054
vn -0.0072312052 0.9791282 0.20311493
vn -0.7748561 0.029759651 0.6314369
vn -0.34795278 0.08182428 0.9339345
vn -0.9452422 -0.094593845 0.31236076
vn -0.98397267 0.16938227 0.05574479
vn 0.23504111 -0.29693314 0.9255195
vn 0.021685451 0.9940308 0.10692303
vn -0.15785486 0.62205607 0.7668951
vn -0.1764565 -0.5705931 0.8020514
vn 0.26502916 -0.54709595 0.79400605
vn -0.17558712 -0.9822911 -0.06537095
vn -0.16650963 -0.9111867 0.37684646
vn -0.61998683 -0.7583676 0.20123373
vn 0.051323008 -0.8357439 0.5467158
vn -0.1764565 -0.5705931 0.8020514
vn -0.6008486 0.04533568 0.7980762
vn -0.7932761 -0.508342 0.33511394
vn -0.1764565 -0.5705931 0.8020514
vn -0.34795278 0.08182428 0.9339345
vn 0.23504111 -0.29693314 0.9255195
vn -0.17558712 -0.9822911 -0.06537095
vn -0.61998683 -0.7583676 0.20123373
vn -0.47298962 -0.60546374 -0.6400737
vn -0.6484367 -0.745446 0.15440173
vn -0.1764565 -0.5705931 0.8020514
vn 0.26502916 -0.54709595 0.79400605
vn -0.9737786 -0.22749779 2.828464E-4
vn -0.9452422 -0.094593845 0.31236076
vn -0.98397267 0.16938227 0.05574479
vn -0.948302 -0.31201833 -0.058033917
vn -0.11279853 0.993465 -0.017430063
vn -0.6843842 0.40928537 0.6034101
vn -0.8793474 0.44900241 -0.15857224
vn -0.16617662 0.75795406 0.63078606
vn -0.0072312052 0.9791282 0.20311493
vn -0.94267875 -0.25289288 0.2177196
vn -0.948302 -0.31201833 -0.058033917
vn -0.9452422 -0.094593845 0.31236076
vn -0.072749965 -0.83401877 0.54691875
vn 0.051323008 -0.8357439 0.5467158
vn -0.16650963 -0.9111867 0.37684646
vn -0.7856799 -0.61000186 -0.10298035
vn -0.7932761 -0.508342 0.33511394
vn -0.9522381 0.07541656 -0.29589677
vn -0.94657004 0.32025838 -0.03794281
vn 0.3445208 -0.4125222 0.8432857
vn 0.4179925 -0.89077425 0.1783353
vn 0.63687783 -0.5511048 0.53913844
vn 0.3445208 -0.4125222 0.8432857
vn 0.63687783 -0.5511048 0.53913844
vn 0.12093083 -0.9484437 0.29296803
vn 0.9297158 -0.078425266 -0.35983053
vn -0.94657004 0.32025838 -0.03794281
vn -0.6008486 0.04533568 0.7980762
vn -0.7932761 -0.508342 0.33511394
vn -0.98397267 0.16938227 0.05574479
vn -0.34795278 0.08182428 0.9339345
vn -0.0072312052 0.9791282 0.20311493
vn -0.52372175 0.32921502 0.7857054
vn -0.16617662 0.75795406 0.63078606
vn -0.6843842 0.40928537 0.6034101
vn -0.9452422 -0.094593845 0.31236076
vn -0.94267875 -0.25289288 0.2177196
vn -0.37280002 0.9241417 -0.08356033
vn -0.37280002 0.9241417 -0.08356034
vn -0.37280005 0.9241417 -0.08356034
vn 0.12093083 -0.9484437 0.29296803
vn -0.6484367 -0.745446 0.15440173
vn 0.26502916 -0.54709595 0.79400605
vn 0.3445208 -0.4125222 0.8432857
vn 0.41324705 -0.7053429 0.5759498
vn 0.41324705 -0.7053429 0.5759499
vn 0.41324705 -0.7053429 0.5759498
vn 0.63687783 -0.5511048 0.53913844
vn -0.17558712 -0.9822911 -0.06537095
vn -0.47298962 -0.60546374 -0.6400737
vn 0.4179925 -0.89077425 0.1783353
vn -0.47298962 -0.60546374 -0.6400737
vn 0.9297158 -0.078425266 -0.35983053
vn -0.1764565 -0.5705931 0.8020514
vn -0.6008486 0.04533568 0.7980762
vn -0.34795278 0.08182428 0.9339345
vn 0.11324549 0.41448995 0.9029803
vn 0.20213212 0.36055237 0.9105738
vn 0.61108917 0.028833305 0.7910365
vn -0.38713223 0.6213101 0.6812507
vn -0.27724144 0.5998172 0.7505708
vn -0.27724144 0.5998172 0.7505708
vn -0.27724144 0.5998172 0.7505708
vn -0.27724144 0.5998172 0.7505708
vn -0.32844955 0.9378544 0.1120266
vn -0.32844958 0.9378544 0.11202661
vn -0.32844955 0.9378544 0.11202662
vn -0.15785486 0.62205607 0.7668951
vn -0.93431604 -0.34864983 -0.07414048
vn -0.93431604 -0.34864977 -0.07414048
vn -0.93431604 -0.34864977 -0.07414048
vn -0.93431604 -0.34864977 -0.07414047
vn -0.21716946 0.082176484 0.9726687
vn -0.2171695 0.082176484 0.9726687
vn -0.21716946 0.08217649 0.9726687
vn -0.6484367 -0.745446 0.15440173
vn 0.12093083 -0.9484437 0.29296803
vn -0.24055265 -0.8639214 -0.44246382
vn 0.9886186 0.069853894 0.13324276
vn 0.9886186 0.069853894 0.13324276
vn 0.9886186 0.069853894 0.13324276
vn 0.10007961 -0.52490044 0.8452595
vn 0.10007961 -0.5249005 0.8452595
vn 0.10007961 -0.5249005 0.8452595
vn -0.24055265 -0.8639214 -0.44246382
vn -0.47298962 -0.60546374 -0.6400737
vn -0.6484367 -0.745446 0.15440173
vn -0.8138451 0.5235607 -0.25207242
vn -0.8138451 0.52356064 -0.2520724
vn -0.8138451 0.5235607 -0.25207242
vn -0.93357134 -0.051582225 0.35466018
vn -0.93357134 -0.051582225 0.35466018
vn -0.93357134 -0.051582225 0.35466018
vn -0.6609998 0.13736744 0.73770565
vn -0.6609998 0.13736744 0.7377055
vn -0.6609998 0.13736746 0.7377056
vn 0.45394933 -0.2317352 0.86036557
vn 0.2863019 -0.34874672 0.8924164
vn -0.02380877 -0.51147985 0.85896534
vn 0.67680836 -0.028604662 0.73560333
vn -0.60428685 -0.23811659 0.76035374
vn -0.60428685 -0.23811662 0.76035374
vn -0.60428685 -0.23811659 0.76035374
vn 0.26044238 0.7926171 0.55129665
vn 0.26044238 0.7926171 0.55129665
vn 0.26044238 0.7926171 0.55129665
vn -0.0072312052 0.9791282 0.20311493
vn 0.051323008 -0.8357439 0.5467158
vn -0.072749965 -0.83401877 0.54691875
vn -0.7932761 -0.508342 0.33511394
vn -0.04154203 0.98657286 -0.15794982
vn -0.041542035 0.98657286 -0.15794982
vn -0.041542035 0.98657286 -0.15794982
vn 0.84146124 0.066495806 0.53621006
vn 0.84146124 0.0664958 0.5362101
vn 0.84146124 0.0664958 0.53621006
vt 0.92119616 1.7257117
vt 1.0368888 1.8283226
vt 0.7110551 1.6642855
vt 0.7427073 1.2867825
vt 1.1349381 1.7428651
vt 0.57916963 2.1174116
vt 0.5017733 1.6946034
vt 0.29862773 1.9657917
vt 0.19524565 1.9269998
vt 0.16135606 2.150932
vt 0.0147581035 1.8208402
vt -0.31547797 1.8933542
vt -0.087200925 1.5394895
vt 0.21087316 1.7282536
vt 0.42528066 1.3747905
vt 0.17499952 1.3472177
vt -0.28818634 1.4005208
vt 0.7427073 1.2867825
vt 0.5754871 1.1946278
vt 0.6259026 0.96688557
vt 0.85132736 1.0097598
vt 0.5066639 1.168738
vt 0.2463771 1.1894754
vt 0.3866426 0.94393015
vt 0.22221358 0.9327066
vt 0.1949059 1.4280087
vt 1.0211685 0.91420573
vt 0.7427073 1.2867825
vt 0.12881224 1.2397416
vt -0.19312501 1.1796378
vt 1.3436986 -0.0054473877
vt 1.119559 -0.02164042
vt 1.2032266 -0.23178995
vt 1.105786 -0.24408364
vt 1.1549603 -0.46771848
vt 0.9198141 -0.6301646
vt 0.9655974 -0.22639382
vt 0.0096831005 1.3175659
vt 0.30213732 1.2478187
vt 0.17465146 1.44046
vt -0.19714831 1.530366
vt -0.33997774 1.3067615
vt -0.14324681 1.3851106
vt -0.08639655 1.2639425
vt -0.40953505 1.0804375
vt -0.088379346 1.1445246
vt 1.5894154 -0.32978678
vt 1.4322703 -0.65296817
vt 1.5894006 -0.60708284
vt 1.4427924 -0.36216283
vt -0.06786825 -0.20638621
vt 0.22503336 -0.5404371
vt 0.26645732 -0.25287604
vt 0.061806828 -0.5484555
vt -0.14471196 -0.48235595
vt 0.44298297 -0.49714506
vt 0.5882127 -0.28018236
vt 0.50440884 -0.5459026
vt 0.9996728 -0.44013155
vt 1.1084778 -0.4677881
vt 1.0838559 -0.2435106
vt 1.025957 -0.24795175
vt 0.9110354 -0.46945846
vt 0.76271147 -0.22867858
vt 0.6915975 -0.4934497
vt 1.350645 1.2181633
vt 1.3839644 1.586384
vt 1.2467557 1.3348005
vt 0.2690024 1.4527868
vt 0.14937225 1.3523563
vt 0.14606884 1.1664994
vt 0.046730142 1.2292211
vt 0.7515846 -0.2732805
vt 0.7227673 -0.54835117
vt 0.9655974 -0.22639382
vt 0.6315642 -0.2826221
vt 0.5844554 -0.53630733
vt 0.13851444 0.14832383
vt 0.30268332 0.2926522
vt 0.13578072 0.36604512
vt 0.2846672 0.47172564
vt 0.52063113 0.35046643
vt 0.5057472 0.4729771
vt 0.82417625 0.4563126
vt 0.5853743 0.11769575
vt 0.71540505 0.09059441
vt -0.17423744 1.365235
vt -0.16459556 1.2804173
vt -0.07862576 1.363178
vt 0.08038441 1.5447873
vt 0.4225951 0.8602571
vt 0.30270022 0.68488944
vt 0.4493577 0.6916229
vt -0.22782981 1.4476469
vt 0.030878363 1.5637497
vt -0.101205096 1.6423233
vt 0.03051882 1.3227298
vt -0.101205096 1.6423233
vt -0.24790126 1.6070044
vt -0.08291313 0.620771
vt -0.013567439 0.34607357
vt 0.11647889 0.39574426
vt 1.4088211 0.8664377
vt 1.318814 0.757551
vt 1.4652958 0.77817845
vt 1.3325706 0.9065969
vt 0.36927313 -0.074691534
vt 0.28519404 -0.14899051
vt 0.42674673 -0.21275175
vt 0.33913672 -0.08404446
vt 1.4404135 0.8322727
vt 1.3425735 0.68399
vt 1.4784838 0.6746636
vt 0.7427073 1.2867825
vt 0.82417625 0.4563126
vt 0.7770026 0.06635839
vt 0.9317892 0.4327131
vt 0.71540505 0.09059441
vt 0.70626175 0.15029937
vt 0.60540813 0.06392777
vt 0.74606645 0.096463025
vt -0.11249142 1.1522892
vt -0.16721815 1.2178106
vt -0.2829873 1.2377988
vt 1.3301064 0.9114423
vt 1.2826663 0.77110916
vt 1.4404135 0.8322727
vt 0.33984864 0.7998891
vt 0.4611855 0.82690245
vt 0.407221 0.9633102
vt -0.03552571 1.5060008
vt -0.101205096 1.6423233
vt -0.21458669 1.5717111
vt 0.27920246 -0.059941053
vt 0.3844795 -0.22978806
vt 0.396966 -0.10302198
vt 0.41084585 0.76163876
vt 0.37868652 0.91937965
vt 0.29815182 0.7357
vt 0.30241418 0.68720067
vt 0.4345344 0.7243417
vt 0.4040386 0.8280834
vt 0.42026728 -0.15890265
vt 0.3081136 -0.21231818
vt 0.40464145 -0.28065956
vt 0.37829202 -0.04908526
vt 0.2973238 0.86940384
vt 0.30270022 0.68488944
vt 0.4225951 0.8602571
vt 1.4404135 0.8322727
vt 1.2826663 0.77110916
vt 1.3425735 0.68399
vt 0.9342113 1.530508
vt 1.2481805 0.19056147
vt 1.15484 0.25347167
vt 1.1044185 0.1736455
vt 0.7309627 0.4978962
vt 0.5853743 0.11769575
vt 0.82417625 0.4563126
vt 1.3981605 0.7666749
vt 1.3855041 0.8728817
vt 1.2856456 0.7076145

g Rocks_a
s 1
usemtl Rocks_a
f 3/3/3 2/2/2 1/1/1 
f 1/1/1 4/4/4 3/3/3 
f 2/2/2 5/5/5 1/1/1 
f 6/6/6 2/2/2 3/3/3 
f 6/6/6 3/3/3 7/7/7 
f 6/6/6 7/7/7 8/8/8 
f 7/7/7 9/9/9 8/8/8 
f 8/8/8 10/10/10 6/6/6 
f 9/9/9 10/10/10 8/8/8 
f 9/9/9 11/11/11 10/10/10 
f 10/10/10 11/11/11 12/12/12 
f 13/13/13 12/12/12 11/11/11 
f 13/13/13 11/11/11 14/14/14 
f 9/9/9 7/7/7 14/14/14 
f 9/9/9 14/14/14 11/11/11 
f 14/14/14 15/15/15 13/13/13 
f 14/14/14 7/7/7 15/15/15 
f 15/15/15 16/16/16 13/13/13 
f 16/16/16 17/17/17 13/13/13 
f 7/7/7 18/18/18 15/15/15 
f 15/15/15 18/18/18 19/19/19 
f 20/20/20 19/19/19 18/18/18 
f 21/21/21 20/20/20 18/18/18 
f 22/22/22 19/19/19 20/20/20 
f 19/19/19 22/22/22 15/15/15 
f 23/23/23 15/15/15 22/22/22 
f 22/22/22 24/24/24 23/23/23 
f 24/24/24 22/22/22 20/20/20 
f 24/24/24 25/25/25 23/23/23 
f 23/23/23 26/26/26 15/15/15 
f 21/21/21 28/28/28 27/27/27 
f 30/30/30 26/26/26 29/29/29 
f 33/33/33 32/32/32 31/31/31 
f 33/33/33 34/34/34 32/32/32 
f 35/35/35 34/34/34 33/33/33 
f 35/35/35 36/36/36 34/34/34 
f 36/36/36 37/37/37 34/34/34 
f 40/40/40 39/39/39 38/38/38 
f 43/43/43 42/42/42 41/41/41 
f 42/42/42 43/43/43 44/44/44 
f 44/44/44 45/45/45 42/42/42 
f 44/44/44 46/46/46 45/45/45 
f 49/49/49 48/48/48 47/47/47 
f 48/48/48 50/50/50 47/47/47 
f 53/53/53 52/52/52 51/51/51 
f 52/52/52 54/54/54 51/51/51 
f 55/55/55 51/51/51 54/54/54 
f 52/52/52 53/53/53 56/56/56 
f 53/53/53 57/57/57 56/56/56 
f 57/57/57 58/58/58 56/56/56 
f 61/61/61 60/60/60 59/59/59 
f 62/62/62 61/61/61 59/59/59 
f 63/63/63 62/62/62 59/59/59 
f 62/62/62 63/63/63 64/64/64 
f 65/65/65 64/64/64 63/63/63 
f 68/68/68 67/67/67 66/66/66 
f 71/71/71 70/70/70 69/69/69 
f 72/72/72 70/70/70 71/71/71 
f 75/75/75 74/74/74 73/73/73 
f 76/76/76 73/73/73 74/74/74 
f 77/77/77 76/76/76 74/74/74 
f 80/80/80 79/79/79 78/78/78 
f 81/81/81 79/79/79 80/80/80 
f 81/81/81 82/82/82 79/79/79 
f 83/83/83 82/82/82 81/81/81 
f 86/86/86 85/85/85 84/84/84 
f 89/89/89 88/88/88 87/87/87 
f 90/90/90 89/89/89 87/87/87 
f 93/93/93 92/92/92 91/91/91 
f 96/96/96 95/95/95 94/94/94 
f 94/94/94 95/95/95 97/97/97 
f 94/94/94 99/99/99 98/98/98 
f 102/102/102 101/101/101 100/100/100 
f 105/105/105 104/104/104 103/103/103 
f 104/104/104 106/106/106 103/103/103 
f 109/109/109 108/108/108 107/107/107 
f 108/108/108 110/110/110 107/107/107 
f 113/113/113 112/112/112 111/111/111 
f 7/7/7 3/3/3 114/114/114 
f 117/117/117 116/116/116 115/115/115 
f 116/116/116 118/118/118 115/115/115 
f 121/121/121 120/120/120 119/119/119 
f 124/124/124 123/123/123 122/122/122 
f 127/127/127 126/126/126 125/125/125 
f 130/130/130 129/129/129 128/128/128 
f 133/133/133 132/132/132 131/131/131 
f 136/136/136 135/135/135 134/134/134 
f 139/139/139 138/138/138 137/137/137 
f 142/142/142 141/141/141 140/140/140 
f 145/145/145 144/144/144 143/143/143 
f 144/144/144 146/146/146 143/143/143 
f 149/149/149 148/148/148 147/147/147 
f 152/152/152 151/151/151 150/150/150 
f 153/153/153 1/1/1 5/5/5 
f 156/156/156 155/155/155 154/154/154 
f 159/159/159 158/158/158 157/157/157 
f 162/162/162 161/161/161 160/160/160 

