# Created by DisUnity v0.3.4
v -0.3873814 -0.01598389 -0.030763442
v -0.20312387 -0.027641824 2.579908
v -0.40841448 0.018172575 2.5684972
v -0.21001011 -0.055567577 -0.02090488
v -0.030489706 0.025725776 0.047923908
v -0.031294618 -0.006535002 2.651595
v 0.15422967 -0.07495145 -0.003945787
v 0.10979981 -0.097476535 2.5973003
v 0.37118652 -0.057247706 0.004603054
v 0.33685917 -0.08202733 2.6064107
v -0.3873814 -0.01598389 -0.030763442
v -0.20312387 -0.027641824 2.579908
v -0.21001011 -0.055567577 -0.02090488
v -0.40841448 0.018172575 2.5684972
v -0.030489706 0.025725776 0.047923908
v -0.031294618 -0.006535002 2.651595
v 0.15422967 -0.07495145 -0.003945787
v 0.10979981 -0.097476535 2.5973003
v 0.37118652 -0.057247706 0.004603054
v 0.33685917 -0.08202733 2.6064107
vn 0.21838246 0.9758007 -0.011055693
vn -0.06521813 0.9978617 -0.0043098307
vn 0.21838246 0.9758007 -0.011055695
vn 0.00391484 0.99997437 -0.0059984797
vn 0.114356294 0.9934093 0.007793508
vn 0.14020605 0.9900884 0.008197398
vn 0.20346908 0.9790197 0.010990584
vn 0.25453666 0.9669951 0.011474838
vn -0.07477029 0.9971692 0.00793422
vn -0.074770264 0.9971692 0.007934217
vn -0.21838246 -0.9758007 0.011055693
vn 0.06521813 -0.9978617 0.0043098307
vn -0.00391484 -0.99997437 0.0059984797
vn -0.21838246 -0.9758007 0.011055693
vn -0.11435633 -0.9934093 -0.0077935127
vn -0.14020607 -0.9900884 -0.008197398
vn -0.20346911 -0.9790197 -0.01099059
vn -0.25453666 -0.9669951 -0.011474838
vn 0.07477031 -0.9971692 -0.007934224
vn 0.0747703 -0.9971692 -0.007934224
vt -0.8523369 3.9511
vt -0.3742867 -1.9718857
vt -0.8523369 -1.9511001
vt -0.439301 3.9331412
vt -0.07713854 3.8433416
vt 9.2322077E-4 -2.0622528
vt 0.3779287 3.8976078
vt 0.35440353 -2.0035694
vt 0.8500781 3.8770788
vt 0.8500781 -2.0251215
vt -0.8523369 3.9511
vt -0.3742867 -1.9718857
vt -0.439301 3.9331412
vt -0.8523369 -1.9511001
vt -0.07713854 3.8433416
vt 9.2322077E-4 -2.0622528
vt 0.3779287 3.8976078
vt 0.35440353 -2.0035694
vt 0.8500781 3.8770788
vt 0.8500781 -2.0251215

g RoofBoard
s 1
usemtl RoofBoard
f 3/3/3 2/2/2 1/1/1 
f 2/2/2 4/4/4 1/1/1 
f 5/5/5 4/4/4 2/2/2 
f 6/6/6 5/5/5 2/2/2 
f 7/7/7 5/5/5 6/6/6 
f 8/8/8 7/7/7 6/6/6 
f 9/9/9 7/7/7 8/8/8 
f 10/10/10 9/9/9 8/8/8 
f 13/13/13 12/12/12 11/11/11 
f 12/12/12 14/14/14 11/11/11 
f 13/13/13 15/15/15 12/12/12 
f 15/15/15 16/16/16 12/12/12 
f 15/15/15 17/17/17 16/16/16 
f 17/17/17 18/18/18 16/16/16 
f 17/17/17 19/19/19 18/18/18 
f 19/19/19 20/20/20 18/18/18 

