# Created by DisUnity v0.3.4
v 0.0125572365 0.0 7.0745427E-6
v 0.010874885 0.0062786182 0.0062926244
v 0.010874885 0.0062786182 7.0745427E-6
v 0.0125572365 4.415574E-11 0.0062926244
v 0.006278618 0.010874886 0.0062926244
v 0.006278618 0.010874886 7.0745427E-6
v -5.4889426E-10 0.0125572365 0.0062926244
v -5.4889426E-10 0.0125572365 7.0745427E-6
v -5.4889426E-10 0.0125572365 7.0745427E-6
v -0.006278619 0.010874885 0.0062926244
v -0.006278619 0.010874885 7.0745427E-6
v -5.4889426E-10 0.0125572365 0.0062926244
v -0.006278619 0.010874885 7.0745427E-6
v -0.010874886 0.006278618 0.0062926244
v -0.010874886 0.006278618 7.0745427E-6
v -0.006278619 0.010874885 0.0062926244
v -0.0125572365 -1.0536328E-9 0.0062926244
v -0.0125572365 -1.0977885E-9 7.0745427E-6
v -0.010874885 -0.0062786196 0.0062926244
v -0.010874885 -0.0062786196 7.0745427E-6
v -0.0062786173 -0.010874886 0.0062926244
v -0.0062786173 -0.010874886 7.0745427E-6
v -0.0062786173 -0.010874886 7.0745427E-6
v 1.6466829E-9 -0.0125572365 0.0062926244
v 1.6466829E-9 -0.0125572365 7.0745427E-6
v -0.0062786173 -0.010874886 0.0062926244
v 0.00627862 -0.010874885 0.0062926244
v 0.00627862 -0.010874885 7.0745427E-6
v 0.010874886 -0.006278617 0.0062926244
v 0.010874886 -0.006278617 7.0745427E-6
v 0.0125572365 4.415574E-11 0.0062926244
v 0.0125572365 0.0 7.0745427E-6
v 0.010874886 -0.006278617 7.0745427E-6
v 0.002219119 -0.006836758 -1.2530455E-4
v 0.00627862 -0.010874885 7.0745427E-6
v 0.0058000893 -0.00423503 -1.275039E-4
v -0.0022072045 -0.0068367594 -1.2538696E-4
v 1.6466829E-9 -0.0125572365 7.0745427E-6
v 0.0125572365 0.0 7.0745427E-6
v 0.0071637803 -1.2673942E-5 -1.3212772E-4
v 0.010874885 0.0062786182 7.0745427E-6
v 0.0058000884 0.004184336 -1.2846224E-4
v 0.006278618 0.010874886 7.0745427E-6
v 0.002219118 0.006786064 -1.2661389E-4
v -5.4889426E-10 0.0125572365 7.0745427E-6
v -0.0022072056 0.006786064 -1.2669628E-4
v -0.006278619 0.010874885 7.0745427E-6
v -0.010874886 0.006278618 7.0745427E-6
v -0.0057881763 0.0041843355 -1.2868752E-4
v -0.0071518677 -1.2674506E-5 -1.3243529E-4
v -0.0125572365 -1.0977885E-9 7.0745427E-6
v -0.010874885 -0.0062786196 7.0745427E-6
v -0.0057881754 -0.004235032 -1.2772909E-4
v -0.0062786173 -0.010874886 7.0745427E-6
v 0.0125572365 4.415574E-11 0.0062926244
v 0.0058000884 0.0041843364 0.006428161
v 0.010874885 0.0062786182 0.0062926244
v 0.0071637803 -1.2673896E-5 0.006431827
v 0.010874886 -0.006278617 0.0062926244
v 0.0058000893 -0.00423503 0.006427203
v 0.00627862 -0.010874885 0.0062926244
v 0.002219119 -0.006836759 0.006425003
v 0.0022191177 0.006786064 0.006426313
v 0.006278618 0.010874886 0.0062926244
v -0.0022072056 0.006786064 0.006426396
v -5.4889426E-10 0.0125572365 0.0062926244
v 1.6466829E-9 -0.0125572365 0.0062926244
v -0.0022072045 -0.0068367594 0.006425086
v -0.0062786173 -0.010874886 0.0062926244
v -0.010874885 -0.0062786196 0.0062926244
v -0.0057881754 -0.004235032 0.0064274273
v -0.0125572365 -1.0536328E-9 0.0062926244
v -0.0071518677 -1.26743835E-5 0.006432134
v -0.010874886 0.006278618 0.0062926244
v -0.0057881763 0.004184336 0.0064283866
v -0.006278619 0.010874885 0.0062926244
v 0.0022191177 0.006786064 0.006426313
v 0.0058000884 0.004184336 -1.2846224E-4
v 0.002219118 0.006786064 -1.2661389E-4
v 0.0058000884 0.0041843364 0.006428161
v -0.0022072056 0.006786064 0.006426396
v -0.0022072056 0.006786064 -1.2669628E-4
v 0.0071637803 -1.2673896E-5 0.006431827
v 0.0071637803 -1.2673942E-5 -1.3212772E-4
v 0.0058000893 -0.00423503 -1.275039E-4
v 0.0058000893 -0.00423503 0.006427203
v 0.002219119 -0.006836758 -1.2530455E-4
v 0.002219119 -0.006836759 0.006425003
v -0.0022072045 -0.0068367594 -1.2538696E-4
v -0.0022072045 -0.0068367594 0.006425086
v -0.0057881754 -0.004235032 -1.2772909E-4
v -0.0057881754 -0.004235032 0.0064274273
v -0.0071518677 -1.2674506E-5 -1.3243529E-4
v -0.0071518677 -1.26743835E-5 0.006432134
v -0.0057881763 0.0041843355 -1.2868752E-4
v -0.0057881763 0.004184336 0.0064283866
v -0.0022072056 0.006786064 -1.2669628E-4
v -0.0022072056 0.006786064 0.006426396
vn 0.7640062 -1.0249909E-5 -0.6452089
vn 0.6614654 0.3822631 0.64524287
vn 0.66146535 0.3822631 -0.6452429
vn 0.7640062 -1.0261619E-5 0.6452089
vn 0.38153028 0.66176105 0.6453735
vn 0.38153028 0.6617611 -0.6453735
vn -7.5558223E-6 0.7641092 0.6450869
vn -7.5622493E-6 0.7641092 -0.6450869
vn -7.5622493E-6 0.7641092 -0.6450869
vn -0.3821275 0.66173726 0.6450444
vn -0.3821275 0.6617374 -0.6450444
vn -7.5558223E-6 0.7641092 0.6450869
vn -0.3821275 0.6617374 -0.6450444
vn -0.66146266 0.3822652 0.6452445
vn -0.6614626 0.38226524 -0.6452445
vn -0.3821275 0.66173726 0.6450444
vn -0.76400435 -1.039573E-5 0.6452111
vn -0.7640044 -1.0386317E-5 -0.64521104
vn -0.6614566 -0.3822665 0.64524984
vn -0.6614566 -0.38226643 -0.6452499
vn -0.38212928 -0.66173255 0.64504826
vn -0.38212925 -0.6617325 -0.6450483
vn -0.38212925 -0.6617325 -0.6450483
vn -2.7602914E-7 -0.76410687 0.64508975
vn -2.808496E-7 -0.76410687 -0.64508975
vn -0.38212928 -0.66173255 0.64504826
vn 0.38153613 -0.6617545 0.64537686
vn 0.3815361 -0.6617545 -0.64537686
vn 0.66145957 -0.3822641 0.6452483
vn 0.66145957 -0.38226405 -0.6452483
vn 0.7640062 -1.0261619E-5 0.6452089
vn 0.7640062 -1.0249909E-5 -0.6452089
vn 0.66145957 -0.38226405 -0.6452483
vn -0.18746224 0.5799786 -0.79276896
vn 0.3815361 -0.6617545 -0.64537686
vn -0.49291286 0.35771006 -0.79314584
vn 0.18868607 0.5796518 -0.79271764
vn -2.808496E-7 -0.76410687 -0.64508975
vn 0.7640062 -1.0249909E-5 -0.6452089
vn -0.6092418 -5.9684546E-4 -0.79298437
vn 0.66146535 0.3822631 -0.6452429
vn -0.49276143 -0.35838422 -0.7929356
vn 0.38153028 0.6617611 -0.6453735
vn -0.18742578 -0.5799764 -0.7927793
vn -7.5622493E-6 0.7641092 -0.6450869
vn 0.1886609 -0.57965136 -0.79272395
vn -0.3821275 0.6617374 -0.6450444
vn -0.6614626 0.38226524 -0.6452445
vn 0.49277028 -0.35837325 -0.792935
vn 0.6092403 -5.9673964E-4 -0.7929854
vn -0.7640044 -1.0386317E-5 -0.64521104
vn -0.6614566 -0.38226643 -0.6452499
vn 0.4929216 0.3576993 -0.79314536
vn -0.38212925 -0.6617325 -0.6450483
vn 0.7640062 -1.0261619E-5 0.6452089
vn -0.49276137 -0.35838422 0.7929356
vn 0.6614654 0.3822631 0.64524287
vn -0.6092418 -5.968706E-4 0.79298437
vn 0.66145957 -0.3822641 0.6452483
vn -0.49291292 0.35771006 0.79314584
vn 0.38153613 -0.6617545 0.64537686
vn -0.18746223 0.5799786 0.79276896
vn -0.18742579 -0.5799763 0.7927793
vn 0.38153028 0.66176105 0.6453735
vn 0.18866093 -0.57965136 0.79272395
vn -7.5558223E-6 0.7641092 0.6450869
vn -2.7602914E-7 -0.76410687 0.64508975
vn 0.18868609 0.5796519 0.79271764
vn -0.38212928 -0.66173255 0.64504826
vn -0.6614566 -0.3822665 0.64524984
vn 0.4929217 0.35769933 0.79314536
vn -0.76400435 -1.039573E-5 0.6452111
vn 0.6092403 -5.967648E-4 0.7929855
vn -0.66146266 0.3822652 0.6452445
vn 0.49277028 -0.3583733 0.792935
vn -0.3821275 0.66173726 0.6450444
vn -0.18742579 -0.5799763 0.7927793
vn -0.49276143 -0.35838422 -0.7929356
vn -0.18742578 -0.5799764 -0.7927793
vn -0.49276137 -0.35838422 0.7929356
vn 0.18866093 -0.57965136 0.79272395
vn 0.1886609 -0.57965136 -0.79272395
vn -0.6092418 -5.968706E-4 0.79298437
vn -0.6092418 -5.9684546E-4 -0.79298437
vn -0.49291286 0.35771006 -0.79314584
vn -0.49291292 0.35771006 0.79314584
vn -0.18746224 0.5799786 -0.79276896
vn -0.18746223 0.5799786 0.79276896
vn 0.18868607 0.5796518 -0.79271764
vn 0.18868609 0.5796519 0.79271764
vn 0.4929216 0.3576993 -0.79314536
vn 0.4929217 0.35769933 0.79314536
vn 0.6092403 -5.9673964E-4 -0.7929854
vn 0.6092403 -5.967648E-4 0.7929855
vn 0.49277028 -0.35837325 -0.792935
vn 0.49277028 -0.3583733 0.792935
vn 0.1886609 -0.57965136 -0.79272395
vn 0.18866093 -0.57965136 0.79272395
vt 2.1614008 0.19862372
vt 2.5072765 0.004196048
vt 2.5072765 0.19862372
vt 2.1614008 0.004196048
vt 2.8531544 0.004196048
vt 2.8531544 0.19862372
vt 3.1990292 0.004196048
vt 3.1990292 0.19862372
vt -0.95148224 0.19862372
vt -0.6056053 0.004196048
vt -0.6056053 0.19862372
vt -0.95148224 0.004196048
vt -0.6056053 0.19862372
vt -0.25972897 0.004196048
vt -0.25972897 0.19862372
vt -0.6056053 0.004196048
vt 0.086146414 0.004196048
vt 0.086146414 0.19862372
vt 0.43202192 0.004196048
vt 0.43202192 0.19862372
vt 0.77789843 0.004196048
vt 0.77789843 0.19862372
vt 0.77789843 0.19862372
vt 1.1237737 0.004196048
vt 1.1237737 0.19862372
vt 0.77789843 0.004196048
vt 1.4696498 0.004196048
vt 1.4696498 0.19862372
vt 1.8155255 0.004196048
vt 1.8155255 0.19862372
vt 2.1614008 0.004196048
vt 2.1614008 0.19862372
vt 0.87645006 0.39734203
vt 0.6452228 0.44473612
vt 0.722559 0.3110639
vt 0.75801516 0.48657376
vt 0.5290638 0.47634518
vt 0.5455917 0.3123135
vt 0.96602947 0.5480304
vt 0.8243571 0.58587724
vt 0.9672953 0.72275174
vt 0.81891257 0.7047181
vt 0.8799083 0.8746899
vt 0.7437566 0.797702
vt 0.7272831 0.9631329
vt 0.627598 0.82931125
vt 0.55031556 0.9643826
vt 0.39642465 0.8781042
vt 0.51480585 0.78747356
vt 0.44886294 0.68876815
vt 0.3068449 0.7274159
vt 0.305579 0.5526943
vt 0.45390818 0.5693279
vt 0.39296633 0.40075618
vt 0.9660297 0.55008817
vt 0.7583818 0.4899453
vt 0.8764503 0.39939976
vt 0.82432437 0.5886506
vt 0.96729535 0.7248094
vt 0.81927896 0.7080909
vt 0.8799084 0.8767475
vt 0.74412346 0.8010737
vt 0.6455896 0.44810802
vt 0.7225592 0.31312162
vt 0.529431 0.47971725
vt 0.5455919 0.31437153
vt 0.7272831 0.96519053
vt 0.6279645 0.832683
vt 0.5503157 0.96644044
vt 0.39642468 0.88016206
vt 0.51517224 0.79084516
vt 0.30684492 0.72947377
vt 0.44882998 0.69154173
vt 0.30557925 0.55475223
vt 0.45427537 0.57269967
vt 0.3929667 0.40281427
vt 0.16457605 0.92046446
vt 0.060346846 0.8478151
vt 0.06037625 0.9204645
vt 0.16460541 0.8478151
vt 0.16457734 0.9931139
vt 0.06037493 0.9931139
vt 0.16466065 0.7751658
vt 0.060285497 0.77560323
vt 0.0603621 0.7025163
vt 0.1645902 0.7025164
vt 0.06039708 0.6298671
vt 0.1645552 0.6298671
vt 0.06039576 0.5572177
vt 0.16455653 0.5572177
vt 0.060358528 0.48456836
vt 0.16459377 0.48456836
vt 0.060286783 0.41191912
vt 0.16467173 0.41148162
vt 0.06034327 0.3392697
vt 0.16460903 0.3392697
vt 0.060374964 0.26662034
vt 0.16457736 0.2666204

g Tire
s 1
usemtl Tire
f 3/3/3 2/2/2 1/1/1 
f 2/2/2 4/4/4 1/1/1 
f 5/5/5 2/2/2 3/3/3 
f 6/6/6 5/5/5 3/3/3 
f 7/7/7 5/5/5 6/6/6 
f 8/8/8 7/7/7 6/6/6 
f 11/11/11 10/10/10 9/9/9 
f 10/10/10 12/12/12 9/9/9 
f 15/15/15 14/14/14 13/13/13 
f 14/14/14 16/16/16 13/13/13 
f 17/17/17 14/14/14 15/15/15 
f 18/18/18 17/17/17 15/15/15 
f 19/19/19 17/17/17 18/18/18 
f 20/20/20 19/19/19 18/18/18 
f 21/21/21 19/19/19 20/20/20 
f 22/22/22 21/21/21 20/20/20 
f 25/25/25 24/24/24 23/23/23 
f 24/24/24 26/26/26 23/23/23 
f 27/27/27 24/24/24 25/25/25 
f 28/28/28 27/27/27 25/25/25 
f 29/29/29 27/27/27 28/28/28 
f 30/30/30 29/29/29 28/28/28 
f 31/31/31 29/29/29 30/30/30 
f 32/32/32 31/31/31 30/30/30 
f 35/35/35 34/34/34 33/33/33 
f 34/34/34 36/36/36 33/33/33 
f 37/37/37 34/34/34 35/35/35 
f 38/38/38 37/37/37 35/35/35 
f 33/33/33 36/36/36 39/39/39 
f 36/36/36 40/40/40 39/39/39 
f 39/39/39 40/40/40 41/41/41 
f 40/40/40 42/42/42 41/41/41 
f 41/41/41 42/42/42 43/43/43 
f 42/42/42 44/44/44 43/43/43 
f 43/43/43 44/44/44 45/45/45 
f 44/44/44 46/46/46 45/45/45 
f 45/45/45 46/46/46 47/47/47 
f 47/47/47 46/46/46 48/48/48 
f 46/46/46 49/49/49 48/48/48 
f 48/48/48 49/49/49 50/50/50 
f 51/51/51 48/48/48 50/50/50 
f 51/51/51 50/50/50 52/52/52 
f 50/50/50 53/53/53 52/52/52 
f 52/52/52 53/53/53 54/54/54 
f 53/53/53 37/37/37 54/54/54 
f 54/54/54 37/37/37 38/38/38 
f 57/57/57 56/56/56 55/55/55 
f 56/56/56 58/58/58 55/55/55 
f 55/55/55 58/58/58 59/59/59 
f 58/58/58 60/60/60 59/59/59 
f 59/59/59 60/60/60 61/61/61 
f 60/60/60 62/62/62 61/61/61 
f 63/63/63 56/56/56 57/57/57 
f 64/64/64 63/63/63 57/57/57 
f 65/65/65 63/63/63 64/64/64 
f 66/66/66 65/65/65 64/64/64 
f 61/61/61 62/62/62 67/67/67 
f 62/62/62 68/68/68 67/67/67 
f 67/67/67 68/68/68 69/69/69 
f 69/69/69 68/68/68 70/70/70 
f 68/68/68 71/71/71 70/70/70 
f 70/70/70 71/71/71 72/72/72 
f 71/71/71 73/73/73 72/72/72 
f 72/72/72 73/73/73 74/74/74 
f 73/73/73 75/75/75 74/74/74 
f 74/74/74 75/75/75 76/76/76 
f 75/75/75 65/65/65 76/76/76 
f 76/76/76 65/65/65 66/66/66 
f 79/79/79 78/78/78 77/77/77 
f 78/78/78 80/80/80 77/77/77 
f 79/79/79 77/77/77 81/81/81 
f 82/82/82 79/79/79 81/81/81 
f 80/80/80 78/78/78 83/83/83 
f 78/78/78 84/84/84 83/83/83 
f 84/84/84 85/85/85 83/83/83 
f 85/85/85 86/86/86 83/83/83 
f 85/85/85 87/87/87 86/86/86 
f 87/87/87 88/88/88 86/86/86 
f 87/87/87 89/89/89 88/88/88 
f 89/89/89 90/90/90 88/88/88 
f 89/89/89 91/91/91 90/90/90 
f 91/91/91 92/92/92 90/90/90 
f 91/91/91 93/93/93 92/92/92 
f 93/93/93 94/94/94 92/92/92 
f 93/93/93 95/95/95 94/94/94 
f 95/95/95 96/96/96 94/94/94 
f 95/95/95 97/97/97 96/96/96 
f 97/97/97 98/98/98 96/96/96 

