# Created by DisUnity v0.3.4
v 0.12526008 0.5902118 0.51212263
v 0.12576409 0.90463287 -2.7803748E-4
v 0.05074696 0.39233276 0.2895923
v 0.30699232 0.44954368 2.5586176E-4
v 0.04993187 0.88633776 0.30809084
v -0.30844924 0.56955045 0.90890783
v -0.19132274 1.2285401 0.1568626
v -0.52220345 0.15696944 0.84500855
v 0.05074696 0.39233276 0.2895923
v -1.0205702 0.49544063 0.6095162
v -0.6780214 0.8815468 0.5690544
v 0.12576409 0.90463287 -2.7803748E-4
v 0.073088646 1.0879514 -5.6530227E-4
v -0.33707544 1.261444 0.061861027
v -0.33707544 1.261444 0.061861027
v 0.073088646 1.0879514 -5.6530227E-4
v 0.22462705 -1.1565794 0.6645223
v 0.5219225 -0.49837515 0.42980286
v 0.21121435 -1.0573491 0.34526536
v 0.52844286 -0.71933544 1.1904113
v 0.31893742 -1.1772102 7.598014E-4
v 0.7231494 -0.49500147 7.351956E-4
v 0.16814296 -0.06249361 0.84894097
v 0.5611847 -0.3693709 1.1780528
v 0.21121435 -1.0573491 0.34526536
v -0.24549651 -1.0180793 0.7256977
v 0.52844286 -0.71933544 1.1904113
v 0.027487976 -0.25616053 1.0860044
v 0.5611847 -0.3693709 1.1780528
v 0.16814296 -0.06249361 0.84894097
v -0.43007156 -0.8025326 0.7140116
v -0.46288997 -0.6746454 0.30690005
v -0.13916953 -1.1148738 7.6335313E-4
v 0.21121435 -1.0573491 0.34526536
v -0.46288997 -0.6746454 0.30690005
v -0.27195618 -0.38796797 0.7657899
v -0.5175841 -0.5453127 7.4339885E-4
v 0.31893742 -1.1772102 7.598014E-4
v -0.27195618 -0.38796797 0.7657899
v 0.16814296 -0.06249361 0.84894097
v -0.5175841 -0.5453127 7.4339885E-4
v -0.7202368 -0.052609414 5.973687E-4
v -1.0524083 -0.018286219 0.34860668
v -1.0236121 -0.27935156 0.72251284
v -0.9020438 -0.56344175 0.670804
v -0.471263 -0.26168504 1.0324131
v -0.52220345 0.15696944 0.84500855
v -0.6333293 0.45027182 2.5519318E-4
v -0.11079838 -0.124411285 1.0784186
v 0.045138985 0.25321233 0.6865642
v 0.05074696 0.39233276 0.2895923
v 0.6369898 0.15239231 0.23727742
v -0.52220345 0.15696944 0.84500855
v -0.471263 -0.26168504 1.0324131
v -0.46288997 -0.6746454 0.30690005
v -0.9020438 -0.56344175 0.670804
v -0.27195618 -0.38796797 0.7657899
v -0.11079838 -0.124411285 1.0784186
v 0.16814296 -0.06249361 0.84894097
v -0.46288997 -0.6746454 0.30690005
v -0.5175841 -0.5453127 7.4339885E-4
v -0.33707544 1.261444 0.061861027
v -1.0205702 0.49544063 0.6095162
v -0.6109648 0.58522457 1.2147624E-4
v -0.6780214 0.8815468 0.5690544
v -0.28602305 1.0030367 -4.266716E-4
v -0.28602305 1.0030367 -4.266716E-4
v 0.073088646 1.0879514 -5.6530227E-4
v -0.33707544 1.261444 0.061861027
v 0.4196167 0.52355593 0.2453407
v 1.0255744 0.52796793 1.8060421E-4
v 0.6369898 0.15239231 0.23727742
v 0.8125929 0.7611141 -8.338224E-5
v 0.47035503 0.71106786 9.5305714E-4
v 0.05074696 0.39233276 0.2895923
v 0.30699232 0.44954368 2.5586176E-4
v 0.9250038 0.27122736 4.0361276E-4
v -0.52220345 0.15696944 0.84500855
v -1.0236121 -0.27935156 0.72251284
v -1.0205702 0.49544063 0.6095162
v -1.0524083 -0.018286219 0.34860668
v -0.6333293 0.45027182 2.5519318E-4
v 0.7231494 -0.49500147 7.351956E-4
v 0.16814296 -0.06249361 0.84894097
v 0.5677115 0.21015118 0.502089
v 0.6369898 0.15239231 0.23727742
v 0.6752565 0.17219198 4.7252444E-4
v 0.9250038 0.27122736 4.0361276E-4
v -0.6109648 0.58522457 1.2147624E-4
v -1.0205702 0.49544063 0.6095162
v -1.06216 0.66463846 0.34086478
v -0.8616218 0.73588127 0.0015338471
v -1.0205702 0.49544063 0.6095162
v -0.6333293 0.45027182 2.5519318E-4
v -0.84965736 0.50916094 1.9924753E-4
v -1.06216 0.66463846 0.34086478
v -0.8616218 0.73588127 0.0015338471
v 0.689088 -0.100508384 0.38458982
v 0.62290305 -0.0039687925 0.0035851654
v 0.7928712 0.072461426 -0.0043751
v 0.6306756 -0.09063628 0.2785271
v 0.689088 -0.100508384 0.38458982
v 0.88383114 -0.11476212 -0.0047475817
v 0.6306756 -0.09063628 0.2785271
v 0.88383114 -0.11476212 -0.0047475817
v 0.62290305 -0.0039687925 0.0035851654
v 0.88383114 -0.11476212 -0.0047475817
v 0.689088 -0.100508384 0.38458982
v -0.27185017 -0.8255636 0.26313096
v -0.21364419 -0.86317104 0.0032217223
v -0.5974347 -0.7914566 0.0032200252
v -0.5974347 -0.7914566 0.0032200252
v -0.44491935 -0.60912997 0.2900033
v -0.5249411 -0.5410528 0.0031883584
v 0.16814296 -0.06249361 0.84894097
v 0.045138985 0.25321233 0.6865642
v 0.5677115 0.21015118 0.502089
v -0.11079838 -0.124411285 1.0784186
v 0.6369898 0.15239231 0.23727742
v 0.5677115 0.21015118 0.502089
v -0.779587 0.451004 0.24036697
v -0.6657835 0.18692128 0.0027782784
v -0.9934661 0.37345824 0.002572959
v -0.843949 0.5246119 0.0023700027
v 0.28915057 0.8309202 0.0018473578
v 0.044332694 0.77397126 0.2102288
v 0.09100642 1.0059794 0.0014752311
v 0.17244779 0.7260619 0.002043964
vn 0.8909905 -0.045032576 0.45178297
vn 0.85150975 0.36424255 0.37717187
vn 0.73919827 0.40290225 0.5396812
vn -0.13771693 0.8821418 0.4503996
vn 0.7116529 0.5326236 0.4581073
vn 0.24385622 0.18070446 0.95282733
vn 0.32060397 0.8949567 0.31026694
vn -0.17444791 0.20807981 0.96242964
vn 0.73919827 0.40290225 0.5396812
vn -0.86863995 0.33997026 0.36039537
vn -0.56609637 0.7344554 0.37431306
vn 0.85150975 0.36424255 0.37717187
vn 0.72418696 0.6849202 0.08023424
vn -0.29688287 0.87090796 -0.39163747
vn -0.29688287 0.87090796 -0.39163747
vn 0.72418696 0.6849202 0.08023424
vn 0.36254004 -0.9104172 0.19926193
vn 0.99465334 0.015898064 0.10203864
vn 0.45641956 -0.879845 0.13249122
vn 0.5295259 -0.4358221 0.72777843
vn 0.42440417 -0.8128567 0.39892995
vn 0.9055338 -0.18982181 0.3794421
vn 0.47823444 0.51686746 0.71002805
vn 0.66236013 0.33830097 0.6684545
vn 0.45641956 -0.879845 0.13249122
vn -0.5048341 -0.73470277 0.45316038
vn 0.5295259 -0.4358221 0.72777843
vn -0.45566958 0.44192153 0.7727034
vn 0.66236013 0.33830097 0.6684545
vn 0.47823444 0.51686746 0.71002805
vn -0.848851 -0.23949833 0.4712669
vn -0.6878358 -0.725414 0.025621956
vn -0.46590996 -0.88375866 0.0435723
vn 0.45641956 -0.879845 0.13249122
vn -0.6878358 -0.725414 0.025621956
vn -0.43306428 -0.47846934 0.76388633
vn -0.7497357 -0.5784838 -0.32132977
vn 0.42440417 -0.8128567 0.39892995
vn -0.43306428 -0.47846934 0.76388633
vn 0.47823444 0.51686746 0.71002805
vn -0.7497357 -0.5784838 -0.32132977
vn -0.7245799 -0.103088945 -0.68143725
vn -0.9229158 -0.10325065 -0.37089843
vn -0.89135414 -0.15444598 0.42618564
vn -0.6911453 -0.6702932 0.2702316
vn -0.111740015 -0.36292967 0.9250926
vn -0.17444791 0.20807981 0.96242964
vn -0.76568735 -0.3297783 -0.55224013
vn 0.30756038 -0.0917396 0.94709575
vn 0.18819158 0.8215344 0.5382055
vn 0.73919827 0.40290225 0.5396812
vn 0.8375934 0.16161726 0.52184016
vn -0.17444791 0.20807981 0.96242964
vn -0.111740015 -0.36292967 0.9250926
vn -0.6878358 -0.725414 0.025621956
vn -0.6911453 -0.6702932 0.2702316
vn -0.43306428 -0.47846934 0.76388633
vn 0.30756038 -0.0917396 0.94709575
vn 0.47823444 0.51686746 0.71002805
vn -0.6878358 -0.725414 0.025621956
vn -0.7497357 -0.5784838 -0.32132977
vn -0.29688287 0.87090796 -0.39163747
vn -0.86863995 0.33997026 0.36039537
vn -0.48108143 0.8549901 -0.19378497
vn -0.56609637 0.7344554 0.37431306
vn -0.16352299 0.20052925 -0.9659443
vn -0.16352299 0.20052925 -0.9659443
vn 0.72418696 0.6849202 0.08023424
vn -0.29688287 0.87090796 -0.39163747
vn -0.13937348 0.58512795 0.7988743
vn 0.46486366 0.11379346 0.8780392
vn 0.8375934 0.16161726 0.52184016
vn 0.2527962 0.41746217 0.8728227
vn -0.38915664 0.7680822 0.50853395
vn 0.73919827 0.40290225 0.5396812
vn -0.13771693 0.8821418 0.4503996
vn 0.6691156 -0.46302563 0.5812844
vn -0.17444791 0.20807981 0.96242964
vn -0.89135414 -0.15444598 0.42618564
vn -0.86863995 0.33997026 0.36039537
vn -0.9229158 -0.10325065 -0.37089843
vn -0.76568735 -0.3297783 -0.55224013
vn 0.9055338 -0.18982181 0.3794421
vn 0.47823444 0.51686746 0.71002805
vn 0.6654844 0.6335939 0.3945749
vn 0.8375934 0.16161726 0.52184016
vn 0.80987513 -0.58079875 0.08231107
vn 0.6691156 -0.46302563 0.5812844
vn -0.48108143 0.8549901 -0.19378497
vn -0.86863995 0.33997026 0.36039537
vn -0.7726472 0.5940259 0.22394113
vn -0.22366911 0.97201025 0.071889974
vn -0.86863995 0.33997026 0.36039537
vn -0.76568735 -0.3297783 -0.55224013
vn -0.6352211 -0.7101712 -0.30356383
vn -0.7726472 0.5940259 0.22394113
vn -0.22366911 0.97201025 0.071889974
vn -0.065504365 -0.16027284 0.9848969
vn -0.9810096 0.17469658 0.084268905
vn 0.34872413 0.8182922 0.4569347
vn -0.9362079 -0.18862557 0.29653883
vn -0.065504365 -0.16027284 0.9848969
vn 0.7973409 -0.5120675 0.31942803
vn -0.9362079 -0.18862557 0.29653883
vn 0.7973409 -0.5120675 0.31942803
vn -0.9810096 0.17469658 0.084268905
vn 0.7973409 -0.5120675 0.31942803
vn -0.065504365 -0.16027284 0.9848969
vn -0.39907432 -0.82933426 0.39108115
vn -0.18274805 -0.9780009 0.10058522
vn -0.77351457 -0.43872648 0.45737752
vn -0.77351457 -0.43872648 0.45737752
vn -0.76672053 -0.2727525 0.581159
vn -0.91106796 0.26380068 0.3168036
vn 0.47823444 0.51686746 0.71002805
vn 0.18819158 0.8215344 0.5382055
vn 0.6654844 0.6335939 0.3945749
vn 0.30756038 -0.0917396 0.94709575
vn 0.8375934 0.16161726 0.52184016
vn 0.6654844 0.6335939 0.3945749
vn -0.67837435 -0.24883293 0.69129616
vn -0.40012008 -0.702228 0.58888006
vn -0.71488774 -0.133212 0.6864329
vn -0.6576006 0.65098983 0.3791751
vn 0.64238906 0.03904239 0.76538354
vn 0.62447065 0.13217199 0.76978374
vn 0.47173735 0.53543425 0.7005527
vn 0.577936 -0.6422736 0.5034626
vt 0.40796885 0.81323916
vt 0.6483706 1.0164036
vt 0.30249307 0.9236779
vt 0.3902765 1.1345545
vt 0.61644655 0.81954294
vt 0.28946653 0.5453068
vt 0.8155676 0.64419603
vt 0.069613904 0.4878735
vt 0.30249307 0.9236779
vt 0.31118068 0.15888107
vt 0.5217384 0.3548749
vt 0.78000814 0.91284186
vt 0.8345982 0.8272075
vt 0.8818891 0.5750146
vt 0.8818891 0.5750146
vt 0.8345982 0.8272075
vt 0.95704794 0.89889085
vt 1.1639657 1.3331811
vt 0.8588147 1.0867519
vt 1.4111538 0.96243364
vt 0.73043454 1.2549196
vt 0.985749 1.4801947
vt 1.5585148 1.5035691
vt 1.5530216 1.1513383
vt 0.8588147 1.0867519
vt 0.69872034 0.8044726
vt 1.035326 0.41560638
vt 0.6339443 0.32934725
vt 0.919164 0.21966553
vt 0.56734186 0.18675572
vt 0.57789844 0.744293
vt 0.37372074 0.85899466
vt 0.5913239 1.1492443
vt 0.8588147 1.0867519
vt 0.37372074 0.85899466
vt 0.46308187 0.51192236
vt 0.2663186 1.0294564
vt 0.73043454 1.2549196
vt 0.46308187 0.51192236
vt 0.56734186 0.18675572
vt -0.30781054 -0.31604016
vt 0.008178013 -0.26532578
vt 0.030472444 -0.0031138659
vt -0.12892535 0.16547203
vt -0.2740373 0.14053524
vt -0.20185633 0.47556752
vt 0.069613904 0.4878735
vt 0.3162309 -0.27368593
vt -0.19883281 0.6629504
vt 0.03284612 0.8282312
vt 0.30249307 0.9236779
vt 0.1258034 1.230368
vt 0.069613904 0.4878735
vt 0.28954414 0.4049818
vt 0.37372074 0.85899466
vt 0.10248609 0.6626631
vt 0.46308187 0.51192236
vt 0.3847538 0.24538153
vt 0.56734186 0.18675572
vt 0.37372074 0.85899466
vt 0.2663186 1.0294564
vt 1.0108471 -0.30100048
vt 1.5630363 -0.65247464
vt 1.4208237 -0.26141047
vt 1.2851692 -0.591979
vt 1.1285775 -0.20442855
vt 0.9890356 0.68560934
vt 0.8345982 0.8272075
vt 0.8818891 0.5750146
vt -0.85073 0.7739372
vt -1.1513364 0.98762536
vt -1.0681765 0.6664983
vt -0.9816419 1.03615
vt -0.8102303 0.94513214
vt -0.7183868 0.595526
vt -0.69803554 0.8136579
vt -1.2021393 0.84114623
vt 0.069613904 0.4878735
vt -0.12892535 0.16547203
vt 0.31118068 0.15888107
vt 0.030472444 -0.0031138659
vt 0.3162309 -0.27368593
vt -0.45859516 0.79319227
vt -0.31506148 0.19956422
vt -0.121740125 0.47047937
vt -0.078429006 0.6087328
vt -0.075099394 0.76020914
vt -0.028517373 0.78181344
vt -0.5524022 1.6372466
vt -0.42082083 1.2197293
vt -0.40752208 1.3659939
vt -0.4056808 1.5862709
vt -0.42082083 1.2197293
vt -0.16404277 1.5404875
vt -0.28859052 1.5600222
vt -0.40752208 1.3659939
vt -0.4056808 1.5862709
vt 0.29868045 0.18216681
vt 0.1612451 -0.010722756
vt 0.30101222 -0.06430614
vt 0.2261052 0.18901134
vt 0.29868045 0.18216681
vt 0.41424564 -0.033915043
vt 0.34898153 0.23501706
vt 0.41424564 -0.033915043
vt 0.5324017 0.13263184
vt 0.41424564 -0.033915043
vt 0.29868045 0.18216681
vt 0.57821333 0.23424393
vt 0.6516685 0.36655486
vt 0.43975753 0.424299
vt 0.43975753 0.424299
vt 0.42268386 0.21545696
vt 0.31412047 0.34865838
vt -0.31506148 0.19956422
vt -0.11270534 0.16907251
vt -0.121740125 0.47047937
vt -0.37855953 0.0022062063
vt -0.078429006 0.6087328
vt -0.121740125 0.47047937
vt 0.14139709 0.5476619
vt 0.3210885 0.6560217
vt 0.12300417 0.7318744
vt 0.037406947 0.6483407
vt 0.5362515 0.24616861
vt 0.5522754 0.06320071
vt 0.6746834 0.19176793
vt 0.47658935 0.18112963

g WO_DeRocks_c
s 1
usemtl WO_DeRocks_c
f 3/3/3 2/2/2 1/1/1 
f 2/2/2 3/3/3 4/4/4 
f 1/1/1 2/2/2 5/5/5 
f 5/5/5 6/6/6 1/1/1 
f 5/5/5 7/7/7 6/6/6 
f 1/1/1 6/6/6 8/8/8 
f 8/8/8 9/9/9 1/1/1 
f 8/8/8 6/6/6 10/10/10 
f 11/11/11 10/10/10 6/6/6 
f 7/7/7 11/11/11 6/6/6 
f 5/5/5 12/12/12 7/7/7 
f 12/12/12 13/13/13 7/7/7 
f 11/11/11 7/7/7 14/14/14 
f 7/7/7 16/16/16 15/15/15 
f 19/19/19 18/18/18 17/17/17 
f 18/18/18 20/20/20 17/17/17 
f 18/18/18 19/19/19 21/21/21 
f 22/22/22 18/18/18 21/21/21 
f 18/18/18 22/22/22 23/23/23 
f 24/24/24 18/18/18 23/23/23 
f 24/24/24 20/20/20 18/18/18 
f 17/17/17 26/26/26 25/25/25 
f 17/17/17 27/27/27 26/26/26 
f 26/26/26 27/27/27 28/28/28 
f 28/28/28 27/27/27 29/29/29 
f 29/29/29 30/30/30 28/28/28 
f 31/31/31 26/26/26 28/28/28 
f 31/31/31 28/28/28 32/32/32 
f 33/33/33 26/26/26 31/31/31 
f 26/26/26 33/33/33 34/34/34 
f 35/35/35 33/33/33 31/31/31 
f 28/28/28 36/36/36 35/35/35 
f 35/35/35 37/37/37 33/33/33 
f 38/38/38 34/34/34 33/33/33 
f 40/40/40 39/39/39 28/28/28 
f 43/43/43 42/42/42 41/41/41 
f 43/43/43 41/41/41 44/44/44 
f 44/44/44 41/41/41 45/45/45 
f 44/44/44 45/45/45 46/46/46 
f 47/47/47 44/44/44 46/46/46 
f 43/43/43 48/48/48 42/42/42 
f 47/47/47 46/46/46 49/49/49 
f 47/47/47 49/49/49 50/50/50 
f 50/50/50 52/52/52 51/51/51 
f 53/53/53 50/50/50 51/51/51 
f 56/56/56 55/55/55 54/54/54 
f 55/55/55 57/57/57 54/54/54 
f 58/58/58 54/54/54 57/57/57 
f 59/59/59 58/58/58 57/57/57 
f 56/56/56 61/61/61 60/60/60 
f 64/64/64 63/63/63 62/62/62 
f 63/63/63 65/65/65 62/62/62 
f 62/62/62 66/66/66 64/64/64 
f 69/69/69 68/68/68 67/67/67 
f 72/72/72 71/71/71 70/70/70 
f 71/71/71 73/73/73 70/70/70 
f 74/74/74 70/70/70 73/73/73 
f 70/70/70 75/75/75 72/72/72 
f 70/70/70 76/76/76 75/75/75 
f 70/70/70 74/74/74 76/76/76 
f 77/77/77 71/71/71 72/72/72 
f 80/80/80 79/79/79 78/78/78 
f 79/79/79 80/80/80 81/81/81 
f 82/82/82 81/81/81 80/80/80 
f 85/85/85 84/84/84 83/83/83 
f 86/86/86 85/85/85 83/83/83 
f 83/83/83 87/87/87 86/86/86 
f 87/87/87 88/88/88 86/86/86 
f 91/91/91 90/90/90 89/89/89 
f 89/89/89 92/92/92 91/91/91 
f 95/95/95 94/94/94 93/93/93 
f 95/95/95 93/93/93 96/96/96 
f 96/96/96 97/97/97 95/95/95 
f 100/100/100 99/99/99 98/98/98 
f 101/101/101 98/98/98 99/99/99 
f 103/103/103 100/100/100 102/102/102 
f 106/106/106 105/105/105 104/104/104 
f 108/108/108 104/104/104 107/107/107 
f 111/111/111 110/110/110 109/109/109 
f 109/109/109 113/113/113 112/112/112 
f 114/114/114 112/112/112 113/113/113 
f 117/117/117 116/116/116 115/115/115 
f 115/115/115 116/116/116 118/118/118 
f 116/116/116 120/120/120 119/119/119 
f 123/123/123 122/122/122 121/121/121 
f 124/124/124 123/123/123 121/121/121 
f 127/127/127 126/126/126 125/125/125 
f 128/128/128 125/125/125 126/126/126 

