# Created by DisUnity v0.3.4
v 0.75441194 0.6197931 0.6806323
v 0.072826296 0.8911134 1.3004419
v 0.78178257 0.8586156 0.38806835
v 0.23632239 0.5920312 1.4541394
v 0.7976696 0.68590826 -7.4785954E-4
v 0.29144526 0.7644266 -7.4785954E-4
v 0.3246995 0.9314127 0.22212033
v 0.7976696 0.68590826 -7.4785954E-4
v 0.78178257 0.8586156 0.38806835
v -0.046021968 0.9520504 0.79529566
v -0.34384242 0.719127 1.1583439
v 0.5246807 -0.42651758 0.7426068
v -0.38416007 -0.5302625 0.42053008
v 0.02901848 -0.04229125 0.9371034
v 0.5581204 0.04365707 0.9775238
v 0.28372505 0.24469078 1.0571064
v 0.3246995 0.9314127 0.22212033
v -0.046021968 0.9520504 0.79529566
v -0.21833502 0.6599218 0.4651846
v 0.02607078 0.8964779 -7.4785954E-4
v 0.5246807 -0.42651758 0.7426068
v -0.009083969 -0.8897318 -7.4785965E-4
v -0.22570129 -0.7958209 0.48783946
v 0.6715751 -0.62363315 0.43557045
v 0.97131246 0.2710962 0.5469493
v 0.7976696 0.68590826 -7.4785954E-4
v 0.9877822 0.14492269 -7.4785954E-4
v 0.75441194 0.6197931 0.6806323
v 0.93104374 0.050160855 0.6643471
v 0.87778914 -0.1868479 -7.4785954E-4
v 0.67155784 -0.10338537 0.54696816
v -0.13275592 0.31886593 0.42512828
v -0.22720487 0.052271303 1.1779103
v -0.3910486 -0.05378605 0.8209941
v -0.1629413 0.25610468 1.0465174
v 0.28372505 0.24469078 1.0571064
v -0.29891196 -0.19777773 0.7943753
v -0.22720487 0.052271303 1.1779103
v -0.857718 -0.3714566 0.31165057
v -0.22720487 0.052271303 1.1779103
v 0.02901848 -0.04229125 0.9371034
v 0.28372505 0.24469078 1.0571064
v -0.37724265 -0.5525288 0.23943399
v -0.22570129 -0.7958209 0.48783946
v -0.38586518 -0.67431295 -7.478606E-4
v -0.009083969 -0.8897318 -7.4785965E-4
v -0.5207425 -0.3219619 0.1705307
v -0.38416007 -0.5302625 0.42053008
v 0.3246995 0.9314127 0.22212033
v 0.072826296 0.8911134 1.3004419
v -0.046021968 0.9520504 0.79529566
v 0.78178257 0.8586156 0.38806835
v 0.89883107 -0.58863693 0.24699108
v -0.009083969 -0.8897318 -7.4785965E-4
v 0.6715751 -0.62363315 0.43557045
v 0.6814814 -0.6843135 -7.4785954E-4
v -0.5870692 0.37045914 0.29705068
v -0.5652377 0.0824549 -7.4786105E-4
v -0.56467384 0.5568382 -7.4786E-4
v -0.5922107 -0.07997109 0.12537861
v -0.42736694 0.84732753 0.21548775
v -0.21833502 0.6599218 0.4651846
v 0.02607078 0.8964779 -7.4785954E-4
v -0.37255 0.7680186 -7.4785965E-4
v -0.56467384 0.5568382 -7.4786E-4
v -0.8380975 -0.16776125 0.19365075
v -0.5922107 -0.07997109 0.12537861
v -0.13275592 0.31886593 0.42512828
v -0.3910486 -0.05378605 0.8209941
v 0.41745526 0.23401181 0.5833614
v 0.23632239 0.5920312 1.4541394
v 0.75441194 0.6197931 0.6806323
v 0.28372505 0.24469078 1.0571064
v -0.5207425 -0.3219619 0.1705307
v -0.857718 -0.3714566 0.31165057
v -0.38416007 -0.5302625 0.42053008
v -0.857718 -0.3714566 0.31165057
v -0.29891196 -0.19777773 0.7943753
v -0.38416007 -0.5302625 0.42053008
v 0.02901848 -0.04229125 0.9371034
v -0.1629413 0.25610468 1.0465174
v 0.17712055 0.41504452 1.4607993
v 0.28372505 0.24469078 1.0571064
v -0.35061786 0.48815164 1.2226175
v 0.6715751 -0.62363315 0.43557045
v 0.5581204 0.04365707 0.9775238
v 0.67155784 -0.10338537 0.54696816
v 0.5246807 -0.42651758 0.7426068
v 0.67155784 -0.10338537 0.54696816
v 0.8246285 -0.39399865 -7.4785954E-4
v 0.8690734 -0.3423322 0.5870861
v 0.87778914 -0.1868479 -7.4785954E-4
v -0.21833502 0.6599218 0.4651846
v -0.34384242 0.719127 1.1583439
v -0.35061786 0.48815164 1.2226175
v -0.34384242 0.719127 1.1583439
v 0.072826296 0.8911134 1.3004419
v -0.35061786 0.48815164 1.2226175
v 0.23632239 0.5920312 1.4541394
v 0.17712055 0.41504452 1.4607993
v 0.8246285 -0.39399865 -7.4785954E-4
v 0.89883107 -0.58863693 0.24699108
v 0.8690734 -0.3423322 0.5870861
v 0.6814814 -0.6843135 -7.4785954E-4
v 0.6715751 -0.62363315 0.43557045
v -0.5922107 -0.07997109 0.12537861
v -0.5870692 0.37045914 0.29705068
v -0.13275592 0.31886593 0.42512828
v -0.21833502 0.6599218 0.4651846
v -0.5207425 -0.3219619 0.1705307
v -0.8380975 -0.16776125 0.19365075
v -0.857718 -0.3714566 0.31165057
v -0.5922107 -0.07997109 0.12537861
v -0.35061786 0.48815164 1.2226175
v -0.13275592 0.31886593 0.42512828
v -0.21833502 0.6599218 0.4651846
v -0.1629413 0.25610468 1.0465174
v 0.93104374 0.050160855 0.6643471
v 0.41745526 0.23401181 0.5833614
v 0.97131246 0.2710962 0.5469493
v 0.67155784 -0.10338537 0.54696816
v 0.75441194 0.6197931 0.6806323
v -0.5652377 0.0824549 -7.4786105E-4
v -0.5207425 -0.3219619 0.1705307
v -0.38586518 -0.67431295 -7.478606E-4
v -0.5922107 -0.07997109 0.12537861
v -0.37724265 -0.5525288 0.23943399
v -0.38416007 -0.5302625 0.42053008
v -0.22570129 -0.7958209 0.48783946
v 0.5246807 -0.42651758 0.7426068
v -0.3910486 -0.05378605 0.8209941
v -0.857718 -0.3714566 0.31165057
v -0.8380975 -0.16776125 0.19365075
v 0.5581204 0.04365707 0.9775238
v 0.41745526 0.23401181 0.5833614
v 0.67155784 -0.10338537 0.54696816
v 0.28372505 0.24469078 1.0571064
v 0.02607078 0.8964779 -7.4785954E-4
v 0.29144526 0.7644266 -7.4785954E-4
v 0.3246995 0.9314127 0.22212033
v -0.34384242 0.719127 1.1583439
v -0.21833502 0.6599218 0.4651846
v -0.046021968 0.9520504 0.79529566
v 0.67155784 -0.10338537 0.54696816
v 0.8690734 -0.3423322 0.5870861
v 0.6715751 -0.62363315 0.43557045
v 0.23632239 0.5920312 1.4541394
v 0.28372505 0.24469078 1.0571064
v 0.17712055 0.41504452 1.4607993
vn 0.83104444 0.13635743 0.53923273
vn 0.0031755655 0.7707838 0.63708895
vn 0.7406311 0.6719044 -0.00318263
vn 0.41807216 0.14094694 0.8974128
vn 0.74678034 0.6287663 -0.21673052
vn 0.28593436 0.7937421 -0.5368566
vn 0.044389542 0.9738418 -0.22284931
vn 0.74678034 0.6287663 -0.21673052
vn 0.7406311 0.6719044 -0.00318263
vn -0.34659758 0.93540204 -0.06995074
vn -0.829632 0.4457171 0.33622485
vn 0.42366892 -0.5533555 0.7171488
vn -0.60351807 -0.65974885 0.44776937
vn 0.03705281 -0.6539561 0.7556246
vn 0.66739 0.14827955 0.729797
vn 0.4951512 -0.44702572 0.74497867
vn 0.044389542 0.9738418 -0.22284931
vn -0.34659758 0.93540204 -0.06995074
vn -0.8248845 0.4928053 0.2769633
vn -0.06918138 0.9970849 0.032181457
vn 0.42366892 -0.5533555 0.7171488
vn -0.026794361 -0.98030967 0.19564007
vn -0.38238323 -0.6941896 0.60982287
vn 0.311259 -0.8039234 0.50677896
vn 0.8215706 0.08690542 0.56344414
vn 0.74678034 0.6287663 -0.21673052
vn 0.9991364 0.019971002 0.036438067
vn 0.83104444 0.13635743 0.53923273
vn 0.5311936 -0.32954282 0.7805349
vn 0.9884616 -0.098825864 0.11479203
vn 0.7378616 -0.13249151 0.6618205
vn -0.8652163 0.07332074 0.4960088
vn -0.46081787 -0.11576905 0.8799116
vn -0.76184106 0.061261244 0.6448607
vn -0.88222563 -0.19102864 0.43033233
vn 0.4951512 -0.44702572 0.74497867
vn -0.17767519 -0.71498525 0.676186
vn -0.46081787 -0.11576905 0.8799116
vn -0.8602815 -0.50937754 -0.02121851
vn -0.46081787 -0.11576905 0.8799116
vn 0.03705281 -0.6539561 0.7556246
vn 0.4951512 -0.44702572 0.74497867
vn -0.87890834 -0.45321262 0.14872274
vn -0.38238323 -0.6941896 0.60982287
vn -0.79831177 -0.60039073 0.04721514
vn -0.026794361 -0.98030967 0.19564007
vn -0.6810142 -0.51773435 -0.51785207
vn -0.60351807 -0.65974885 0.44776937
vn 0.044389542 0.9738418 -0.22284931
vn 0.0031755655 0.7707838 0.63708895
vn -0.34659758 0.93540204 -0.06995074
vn 0.7406311 0.6719044 -0.00318263
vn 0.8626281 -0.50564337 0.014050328
vn -0.026794361 -0.98030967 0.19564007
vn 0.311259 -0.8039234 0.50677896
vn 0.47866553 -0.8751761 -0.0703291
vn -0.80039954 -0.021997456 0.5990632
vn -0.9872185 -0.038763966 -0.15458676
vn -0.9301205 0.33744124 0.14494614
vn -0.86346817 0.12376614 -0.48898318
vn -0.521382 0.82057774 0.2341216
vn -0.8248845 0.4928053 0.2769633
vn -0.06918138 0.9970849 0.032181457
vn -0.49273673 0.76912767 -0.40700513
vn -0.9301205 0.33744124 0.14494614
vn -0.8455531 0.2641783 -0.4639502
vn -0.86346817 0.12376614 -0.48898318
vn -0.8652163 0.07332074 0.4960088
vn -0.76184106 0.061261244 0.6448607
vn 0.7029991 0.06810793 0.707922
vn 0.41807216 0.14094694 0.8974128
vn 0.83104444 0.13635743 0.53923273
vn 0.4951512 -0.44702572 0.74497867
vn -0.6810142 -0.51773435 -0.51785207
vn -0.8602815 -0.50937754 -0.02121851
vn -0.60351807 -0.65974885 0.44776937
vn -0.8602815 -0.50937754 -0.02121851
vn -0.17767519 -0.71498525 0.676186
vn -0.60351807 -0.65974885 0.44776937
vn 0.03705281 -0.6539561 0.7556246
vn -0.88222563 -0.19102864 0.43033233
vn 0.19886918 -0.442463 0.87445843
vn 0.4951512 -0.44702572 0.74497867
vn -0.827426 -0.2824539 0.485372
vn 0.311259 -0.8039234 0.50677896
vn 0.66739 0.14827955 0.729797
vn 0.7378616 -0.13249151 0.6618205
vn 0.42366892 -0.5533555 0.7171488
vn 0.7378616 -0.13249151 0.6618205
vn 0.9824746 0.07546868 -0.17043483
vn 0.61195594 -0.09096485 0.7856432
vn 0.9884616 -0.098825864 0.11479203
vn -0.8248845 0.4928053 0.2769633
vn -0.829632 0.4457171 0.33622485
vn -0.827426 -0.2824539 0.485372
vn -0.829632 0.4457171 0.33622485
vn 0.0031755655 0.7707838 0.63708895
vn -0.827426 -0.2824539 0.485372
vn 0.41807216 0.14094694 0.8974128
vn 0.19886918 -0.442463 0.87445843
vn 0.9824746 0.07546868 -0.17043483
vn 0.8626281 -0.50564337 0.014050328
vn 0.61195594 -0.09096485 0.7856432
vn 0.47866553 -0.8751761 -0.0703291
vn 0.311259 -0.8039234 0.50677896
vn -0.86346817 0.12376614 -0.48898318
vn -0.80039954 -0.021997456 0.5990632
vn -0.8652163 0.07332074 0.4960088
vn -0.8248845 0.4928053 0.2769633
vn -0.6810142 -0.51773435 -0.51785207
vn -0.8455531 0.2641783 -0.4639502
vn -0.8602815 -0.50937754 -0.02121851
vn -0.86346817 0.12376614 -0.48898318
vn -0.827426 -0.2824539 0.485372
vn -0.8652163 0.07332074 0.4960088
vn -0.8248845 0.4928053 0.2769633
vn -0.88222563 -0.19102864 0.43033233
vn 0.5311936 -0.32954282 0.7805349
vn 0.7029991 0.06810793 0.707922
vn 0.8215706 0.08690542 0.56344414
vn 0.7378616 -0.13249151 0.6618205
vn 0.83104444 0.13635743 0.53923273
vn -0.9872185 -0.038763966 -0.15458676
vn -0.6810142 -0.51773435 -0.51785207
vn -0.79831177 -0.60039073 0.04721514
vn -0.86346817 0.12376614 -0.48898318
vn -0.87890834 -0.45321262 0.14872274
vn -0.60351807 -0.65974885 0.44776937
vn -0.38238323 -0.6941896 0.60982287
vn 0.42366892 -0.5533555 0.7171488
vn -0.76184106 0.061261244 0.6448607
vn -0.8602815 -0.50937754 -0.02121851
vn -0.8455531 0.2641783 -0.4639502
vn 0.66739 0.14827955 0.729797
vn 0.7029991 0.06810793 0.707922
vn 0.7378616 -0.13249151 0.6618205
vn 0.4951512 -0.44702572 0.74497867
vn -0.06918138 0.9970849 0.032181457
vn 0.28593436 0.7937421 -0.5368566
vn 0.044389542 0.9738418 -0.22284931
vn -0.829632 0.4457171 0.33622485
vn -0.8248845 0.4928053 0.2769633
vn -0.34659758 0.93540204 -0.06995074
vn 0.7378616 -0.13249151 0.6618205
vn 0.61195594 -0.09096485 0.7856432
vn 0.311259 -0.8039234 0.50677896
vn 0.41807216 0.14094694 0.8974128
vn 0.4951512 -0.44702572 0.74497867
vn 0.19886918 -0.442463 0.87445843
vt 1.551051 -0.46212077
vt 1.8622099 -1.0195425
vt 1.7098941 -0.26702952
vt 1.6211141 -1.0768983
vt 1.5958867 -0.008448005
vt 2.1081479 -0.13252246
vt 2.0343466 -0.30371988
vt 1.7996813 -0.009187698
vt 1.7098941 -0.26702952
vt 2.0864704 -0.7546005
vt 2.1673694 -1.0934176
vt 0.097167894 0.5047656
vt -0.5187785 0.31582832
vt -0.02359169 0.08560175
vt 0.30570534 0.22380316
vt 0.23077878 0.0041432977
vt 2.514687 -0.24861634
vt 2.6521053 -0.6802038
vt 2.8911896 -0.47393608
vt 2.7223246 -0.11437392
vt 1.1105958 0.41862565
vt 1.6342592 -0.023423672
vt 1.700264 0.32953674
vt 1.1109374 0.15917224
vt -0.34246165 1.5027496
vt -0.043568954 1.8670619
vt -0.42393196 1.8670931
vt -0.075479664 1.4169148
vt -0.49340087 1.4247322
vt -0.6550155 1.8667912
vt -0.7020902 1.4767611
vt 0.19705372 -0.001945734
vt 0.4920396 -0.40035617
vt 0.57644844 -0.18112922
vt 0.35894248 -0.41257167
vt 0.508055 -0.7338264
vt 0.68157715 -0.19354725
vt 0.4920396 -0.40035617
vt 0.6934137 0.31004113
vt 0.4920396 -0.40035617
vt 0.6885 -0.47844422
vt 0.508055 -0.7338264
vt 1.9368708 0.21917713
vt 1.700264 0.32953674
vt 1.9082023 0.04346752
vt 1.6342592 -0.023423672
vt 2.1247995 0.20800894
vt 1.9323372 0.34078133
vt 2.0343466 -0.30371988
vt 1.8622099 -1.0195425
vt 2.0864704 -0.7546005
vt 1.7098941 -0.26702952
vt 0.628862 0.85653013
vt -0.008884408 0.85170335
vt 0.5460635 0.6912192
vt 0.46030968 0.9882744
vt 3.238611 -0.45537674
vt 3.4961708 -0.368775
vt 3.2120368 -0.22905397
vt 3.5540986 -0.49326324
vt 2.9912617 -0.27107644
vt 2.8911896 -0.47393608
vt 2.7223246 -0.11437392
vt 3.021219 -0.13871336
vt 3.2120368 -0.22905397
vt 0.5997082 0.5665715
vt 0.4300917 0.50847065
vt 0.23786765 0.10094625
vt 0.6345272 0.050409734
vt 0.8561187 -0.18612576
vt 1.2765669 -0.6645881
vt 1.1762967 -0.054003835
vt 0.98439 -0.47980297
vt 1.2823855 1.5027528
vt 1.0385898 1.4793049
vt 1.3056154 1.2694557
vt -0.3515391 1.4751261
vt -0.022037411 1.0938097
vt -0.014816903 1.430895
vt 0.16604473 0.91563004
vt 0.831398 -0.6670898
vt 1.1633458 -0.8336705
vt 1.1001352 -0.5408342
vt 0.7892113 -0.87306845
vt 1.1109374 0.15917224
vt 0.8641006 0.67897475
vt 0.8365396 0.36867034
vt 1.1105958 0.41862565
vt 0.15420404 1.5028838
vt 0.0034038986 1.8994627
vt -0.05332887 1.5104414
vt 0.08536279 1.8726875
vt -0.113020636 0.8861483
vt -0.287419 0.45010138
vt -0.15315938 0.36429107
vt 0.7156455 -0.008788586
vt 1.0267987 -0.05091369
vt 0.6895366 0.14839983
vt 1.1130105 0.18206531
vt 1.0507114 0.2893613
vt 0.6893527 1.0499843
vt 0.628862 0.85653013
vt 0.81227577 0.66327894
vt 0.46030968 0.9882744
vt 0.5460635 0.6912192
vt 0.8030852 -0.8172773
vt 0.50559795 -0.6986848
vt 0.38739908 -0.9911531
vt 0.20675758 -0.8406657
vt 1.2823855 1.5027528
vt 1.084529 1.629373
vt 1.0385898 1.4793049
vt 1.2588179 1.6714072
vt 0.21868366 -0.5767311
vt 0.19705372 -0.001945734
vt -0.013353943 -0.10757887
vt 0.35894248 -0.41257167
vt 1.1826217 1.432901
vt 1.2030325 1.067099
vt 1.3489158 1.4066515
vt 1.0786968 1.2889024
vt 1.5292529 1.1835059
vt 0.038834825 0.8174175
vt 0.32045668 0.73560387
vt 0.55092597 0.8861152
vt 0.15107408 0.7393565
vt -0.40787703 0.45147526
vt -0.32947326 0.35891414
vt -0.1575054 0.47987896
vt 0.23870993 0.05518818
vt 0.6345272 0.050409734
vt 0.75456405 0.54106534
vt 0.5997082 0.5665715
vt 0.8641006 0.67897475
vt 0.6013311 0.5189419
vt 0.8365396 0.36867034
vt 0.6876096 0.8335173
vt 2.7223246 -0.11437392
vt 2.5330846 -0.06291628
vt 2.514687 -0.24861634
vt 2.8781912 -0.9440379
vt 2.8911896 -0.47393608
vt 2.6521053 -0.6802038
vt 0.8270405 1.497025
vt 0.79491895 1.7021964
vt 0.5455249 1.7107518
vt 1.2873071 -0.8387883
vt 1.1001352 -0.5408342
vt 1.1633458 -0.8336705

g WO_DeRocks_b
s 1
usemtl WO_DeRocks_b
f 3/3/3 2/2/2 1/1/1 
f 2/2/2 4/4/4 1/1/1 
f 3/3/3 1/1/1 5/5/5 
f 7/7/7 3/3/3 6/6/6 
f 9/9/9 8/8/8 6/6/6 
f 11/11/11 2/2/2 10/10/10 
f 14/14/14 13/13/13 12/12/12 
f 14/14/14 12/12/12 15/15/15 
f 16/16/16 14/14/14 15/15/15 
f 19/19/19 18/18/18 17/17/17 
f 17/17/17 20/20/20 19/19/19 
f 23/23/23 22/22/22 21/21/21 
f 24/24/24 21/21/21 22/22/22 
f 27/27/27 26/26/26 25/25/25 
f 26/26/26 28/28/28 25/25/25 
f 25/25/25 29/29/29 27/27/27 
f 27/27/27 29/29/29 30/30/30 
f 31/31/31 30/30/30 29/29/29 
f 34/34/34 33/33/33 32/32/32 
f 32/32/32 33/33/33 35/35/35 
f 33/33/33 36/36/36 35/35/35 
f 38/38/38 34/34/34 37/37/37 
f 39/39/39 37/37/37 34/34/34 
f 41/41/41 40/40/40 37/37/37 
f 41/41/41 42/42/42 40/40/40 
f 45/45/45 44/44/44 43/43/43 
f 44/44/44 45/45/45 46/46/46 
f 47/47/47 45/45/45 43/43/43 
f 47/47/47 43/43/43 48/48/48 
f 51/51/51 50/50/50 49/49/49 
f 50/50/50 52/52/52 49/49/49 
f 55/55/55 54/54/54 53/53/53 
f 54/54/54 56/56/56 53/53/53 
f 59/59/59 58/58/58 57/57/57 
f 58/58/58 60/60/60 57/57/57 
f 61/61/61 59/59/59 57/57/57 
f 62/62/62 61/61/61 57/57/57 
f 61/61/61 62/62/62 63/63/63 
f 61/61/61 63/63/63 64/64/64 
f 61/61/61 64/64/64 65/65/65 
f 68/68/68 67/67/67 66/66/66 
f 69/69/69 68/68/68 66/66/66 
f 72/72/72 71/71/71 70/70/70 
f 71/71/71 73/73/73 70/70/70 
f 76/76/76 75/75/75 74/74/74 
f 79/79/79 78/78/78 77/77/77 
f 80/80/80 78/78/78 79/79/79 
f 83/83/83 82/82/82 81/81/81 
f 82/82/82 84/84/84 81/81/81 
f 87/87/87 86/86/86 85/85/85 
f 86/86/86 88/88/88 85/85/85 
f 91/91/91 90/90/90 89/89/89 
f 90/90/90 92/92/92 89/89/89 
f 95/95/95 94/94/94 93/93/93 
f 98/98/98 97/97/97 96/96/96 
f 97/97/97 98/98/98 99/99/99 
f 99/99/99 98/98/98 100/100/100 
f 103/103/103 102/102/102 101/101/101 
f 104/104/104 101/101/101 102/102/102 
f 103/103/103 105/105/105 102/102/102 
f 108/108/108 107/107/107 106/106/106 
f 107/107/107 108/108/108 109/109/109 
f 112/112/112 111/111/111 110/110/110 
f 113/113/113 110/110/110 111/111/111 
f 116/116/116 115/115/115 114/114/114 
f 115/115/115 117/117/117 114/114/114 
f 120/120/120 119/119/119 118/118/118 
f 119/119/119 121/121/121 118/118/118 
f 120/120/120 122/122/122 119/119/119 
f 125/125/125 124/124/124 123/123/123 
f 124/124/124 126/126/126 123/123/123 
f 129/129/129 128/128/128 127/127/127 
f 130/130/130 128/128/128 129/129/129 
f 133/133/133 132/132/132 131/131/131 
f 136/136/136 135/135/135 134/134/134 
f 134/134/134 135/135/135 137/137/137 
f 140/140/140 139/139/139 138/138/138 
f 143/143/143 142/142/142 141/141/141 
f 146/146/146 145/145/145 144/144/144 
f 149/149/149 148/148/148 147/147/147 

